<?xml version="1.0" encoding="UTF-8"?>
<svg width="20px" height="20px" viewBox="0 0 20 20" version="1.1" xmlns="http://www.w3.org/2000/svg" xmlns:xlink="http://www.w3.org/1999/xlink">
    <title>Catalog Products</title>
    <defs>
        <filter id="filter-1">
            <feColorMatrix in="SourceGraphic" type="matrix" values="0 0 0 0 1.000000 0 0 0 0 1.000000 0 0 0 0 1.000000 0 0 0 1.000000 0"></feColorMatrix>
        </filter>
    </defs>
    <g id="Page-1" stroke="none" stroke-width="1" fill="none" fill-rule="evenodd">
        <g filter="url(#filter-1)" id="Products">
            <g>
                <path d="M7.67741935,12 L2.32258065,12 C2.14440523,12 2,12.1444052 2,12.3225806 L2,17.6774194 C2,17.8555948 2.14440523,18 2.32258065,18 L7.67741935,18 C7.85559477,18 8,17.8555948 8,17.6774194 L8,12.3225806 C8,12.1444052 7.85559477,12 7.67741935,12 Z M2.64516129,13.1014365 L4.54372481,15 L2.64516129,16.8985635 L2.64516129,13.1014365 Z M3.10143648,12.6451613 L6.89868952,12.6451613 L5,14.5437248 L3.10143648,12.6451613 Z M5,15.4562752 L6.89856352,17.3548387 L3.10143648,17.3548387 L5,15.4562752 Z M5.45627519,15 L7.35483871,13.1014365 L7.35483871,16.8986895 L5.45627519,15 Z" id="Shape" fill="#000000" fill-rule="nonzero"></path>
                <path d="M19.609375,9.609375 L15.1953125,9.609375 L15.1953125,6.73171996 C15.1953125,6.5159607 15.0204468,6.34109496 14.8046875,6.34109496 C14.5889282,6.34109496 14.4140625,6.5159607 14.4140625,6.73171996 L14.4140625,9.609375 L5.5859375,9.609375 L5.5859375,0.78125 L14.4140625,0.78125 L14.4140625,3.58078004 C14.4140625,3.7965393 14.5889282,3.97140504 14.8046875,3.97140504 C15.0204468,3.97140504 15.1953125,3.7965393 15.1953125,3.58078004 L15.1953125,0.390625 C15.1953125,0.174865703 15.0204468,0 14.8046875,0 L5.1953125,0 C4.9795532,0 4.8046875,0.174865703 4.8046875,0.390625 L4.8046875,9.609375 L0.390625,9.609375 C0.174865703,9.609375 0,9.7842407 0,10 L0,19.609375 C0,19.8251343 0.174865703,20 0.390625,20 L19.609375,20 C19.8251343,20 20,19.8251343 20,19.609375 L20,10 C20,9.7842407 19.8251343,9.609375 19.609375,9.609375 Z M0.78125,10.390625 L9.609375,10.390625 L9.609375,19.21875 L0.78125,19.21875 L0.78125,10.390625 Z M19.21875,19.21875 L10.390625,19.21875 L10.390625,10.390625 L19.21875,10.390625 L19.21875,19.21875 Z" id="Shape" fill="#000000" fill-rule="nonzero"></path>
                <path d="M12,12.3225806 L12,17.6774194 C12,17.8555948 12.1444052,18 12.3225806,18 L17.6774194,18 C17.8555948,18 18,17.8555948 18,17.6774194 L18,12.3225806 C18,12.1444052 17.8555948,12 17.6774194,12 L12.3225806,12 C12.1444052,12 12,12.1444052 12,12.3225806 Z M14.5438508,15 L12.6451613,16.8986895 L12.6451613,13.1014365 L14.5438508,15 Z M15,15.4562752 L16.8985635,17.3548387 L13.1013105,17.3548387 L15,15.4562752 Z M17.3548387,16.8985635 L15.4562752,15 L15.9143145,14.5419607 C16.0401966,14.4160786 16.0401966,14.2118195 15.9143145,14.0858115 C15.7883065,13.9599294 15.5840474,13.9598034 15.4580393,14.0858115 L15,14.5438508 L13.1014365,12.6451613 L17.3548387,12.6451613 L17.3548387,16.8985635 Z" id="Shape" fill="#000000" fill-rule="nonzero"></path>
                <path d="M16.625824,13.374176 C16.7286682,13.374176 16.8293762,13.332367 16.902008,13.2597351 C16.9747925,13.1871033 17.016449,13.0863953 17.016449,12.983551 C17.016449,12.8808594 16.9747925,12.7801514 16.902008,12.707367 C16.8293762,12.6347351 16.7286682,12.592926 16.625824,12.592926 C16.5228271,12.592926 16.4219666,12.6347351 16.3493347,12.707367 C16.2767029,12.7801514 16.235199,12.8808594 16.235199,12.983551 C16.235199,13.0863953 16.2767029,13.1871033 16.3493347,13.2597351 C16.4224243,13.332367 16.5228271,13.374176 16.625824,13.374176 Z" id="Path" fill="#000000" fill-rule="nonzero"></path>
                <path d="M14.8048401,4.79965211 C14.7016907,4.79965211 14.6012879,4.84146117 14.528656,4.91409301 C14.4555664,4.98672484 14.4142151,5.08743285 14.4142151,5.19027711 C14.4142151,5.29342652 14.4555664,5.39367676 14.528656,5.46676637 C14.6012879,5.5393982 14.7016907,5.58090211 14.8048401,5.58090211 C14.9075317,5.58090211 15.0083923,5.5393982 15.0810242,5.46676637 C15.153656,5.39367676 15.1954651,5.29342652 15.1954651,5.19027711 C15.1954651,5.08743285 15.153656,4.98672484 15.0810242,4.91409301 C15.0083923,4.84146117 14.9075317,4.79965211 14.8048401,4.79965211 Z" id="Path" fill="#000000" fill-rule="nonzero"></path>
                <path d="M7.32258065,2 C7.14440523,2 7,2.14440523 7,2.32258065 L7,7.67741935 C7,7.85559477 7.14440523,8 7.32258065,8 L12.6774194,8 C12.8555948,8 13,7.85559477 13,7.67741935 L13,2.32258065 C13,2.14440523 12.8555948,2 12.6774194,2 L7.32258065,2 Z M7.64516129,3.10143648 L9.54372481,5 L7.64516129,6.89856352 L7.64516129,3.10143648 Z M8.10143648,2.64516129 L11.8986895,2.64516129 L10,4.54372481 L8.10143648,2.64516129 Z M10,5.45627519 L11.8985635,7.35483871 L8.10143648,7.35483871 L10,5.45627519 Z M10.4562752,5 L12.3548387,3.10143648 L12.3548387,6.89868952 L10.4562752,5 Z" id="Shape" fill="#000000" fill-rule="nonzero"></path>
            </g>
        </g>
    </g>
</svg>