<?xml version="1.0" encoding="UTF-8"?>
<svg width="26px" height="20px" viewBox="0 0 26 20" version="1.1" xmlns="http://www.w3.org/2000/svg" xmlns:xlink="http://www.w3.org/1999/xlink">
    <title>Catalog  Rating Review </title>
    <defs>
        <filter id="filter-1">
            <feColorMatrix in="SourceGraphic" type="matrix" values="0 0 0 0 1.000000 0 0 0 0 1.000000 0 0 0 0 1.000000 0 0 0 1.000000 0"></feColorMatrix>
        </filter>
    </defs>
    <g id="Page-1" stroke="none" stroke-width="1" fill="none" fill-rule="evenodd">
        <g filter="url(#filter-1)" id="-Rating-Review-">
            <g>
                <path d="M6.23738281,12.1532031 C6.37085937,12.2425391 6.52179687,12.2852344 6.67113281,12.2852344 C6.92308594,12.2852344 7.17046875,12.1635156 7.32113281,11.9383984 C8.58351562,10.0519922 10.6937891,8.92578125 12.9660937,8.92578125 C15.2316797,8.92578125 17.3384766,10.0468359 18.6017578,11.9246094 C18.8426562,12.2826172 19.3280859,12.3775781 19.6860547,12.1367188 C20.0440625,11.8958594 20.1390234,11.4103906 19.8981641,11.0524219 C18.8888281,9.5521875 17.4417187,8.44519531 15.7880469,7.85300781 C16.7797656,7.04289063 17.4140625,5.81097656 17.4140625,4.43359375 C17.4140625,1.99964844 15.4339453,0.01953125 13,0.01953125 C10.5660547,0.01953125 8.5859375,1.99964844 8.5859375,4.43359375 C8.5859375,5.80109375 9.21101562,7.02527344 10.1904687,7.83558594 C8.5109375,8.42558594 7.04207031,9.54597656 6.02257812,11.0694141 C5.78261719,11.4280078 5.87878906,11.9132422 6.23738281,12.1532031 Z M13,1.58203125 C14.5723437,1.58203125 15.8515625,2.86125 15.8515625,4.43359375 C15.8515625,6.0059375 14.5723437,7.28515625 13,7.28515625 C11.4276563,7.28515625 10.1484375,6.0059375 10.1484375,4.43359375 C10.1484375,2.86125 11.4276563,1.58203125 13,1.58203125 Z M16.1155469,13.8527344 L14.9508594,14.6929297 C14.7775781,14.8179297 14.7050391,15.0395312 14.77125,15.2417969 L15.2402734,16.60125 C15.2600781,16.6617969 15.2676953,16.7209375 15.2651563,16.7773438 C15.2485547,17.1424609 14.7909375,17.3922266 14.4553125,17.1501172 L13.2906641,16.3096875 C13.2040234,16.2471875 13.1020313,16.2159375 13.0000391,16.2159375 C12.8980469,16.2159375 12.7960547,16.2471875 12.7094141,16.3096875 L11.5447656,17.1501172 C11.2091406,17.3922266 10.7493359,17.1424609 10.7348047,16.7773438 C10.7325781,16.7209375 10.7403906,16.6617578 10.7601953,16.60125 L11.2287891,15.2417969 C11.295,15.0395312 11.2224609,14.8179297 11.0491797,14.6929297 L9.88449219,13.8527344 C9.49699219,13.5732031 9.69613281,12.9101562 10.1751172,12.9101562 L11.6147266,12.9101562 C11.8289453,12.9101562 12.0187891,12.8276953 12.0849609,12.6254297 L12.5298047,11.2571875 C12.6038281,11.0310547 12.8019141,10.9179688 13.0000391,10.9179688 C13.1981641,10.9179688 13.39625,11.0310547 13.4702734,11.2571875 L13.9151172,12.6254297 C13.9813281,12.8276953 14.1711328,12.9101562 14.3853516,12.9101562 L15.8249609,12.9101562 C16.3039063,12.9101562 16.5030469,13.5732031 16.1155469,13.8527344 Z M25.7952344,16.5871094 L24.6305469,17.4273047 C24.4572656,17.5523047 24.3847266,17.7739062 24.4509375,17.9761719 L24.9199609,19.335625 C24.9397656,19.3961719 24.9473828,19.4553125 24.9448437,19.5117188 C24.9282422,19.8768359 24.470625,20.1266016 24.135,19.8844922 L22.9703516,19.0440625 C22.8837109,18.9815625 22.7817187,18.9503125 22.6797266,18.9503125 C22.5777344,18.9503125 22.4757422,18.9815625 22.3891016,19.0440625 L21.2244531,19.8844922 C20.8888281,20.1266016 20.4290234,19.8768359 20.4144922,19.5117188 C20.4122656,19.4553125 20.4200781,19.3961328 20.4398828,19.335625 L20.9084766,17.9761719 C20.9746875,17.7739062 20.9021484,17.5523047 20.7288672,17.4273047 L19.5641797,16.5871094 C19.1766797,16.3075781 19.3758203,15.6445312 19.8548047,15.6445312 L21.2944141,15.6445312 C21.5086328,15.6445312 21.6984766,15.5620703 21.7646484,15.3598047 L22.2094922,13.9915625 C22.2835156,13.7654297 22.4816016,13.6523438 22.6797266,13.6523438 C22.8778516,13.6523438 23.0759375,13.7654297 23.1499609,13.9915625 L23.5948047,15.3598047 C23.6610156,15.5620703 23.8508203,15.6445312 24.0650391,15.6445312 L25.5046484,15.6445312 C25.9835937,15.6445312 26.1827344,16.3075781 25.7952344,16.5871094 Z M6.43585937,16.5871094 L5.27117187,17.4273047 C5.09789062,17.5523047 5.02535156,17.7739062 5.0915625,17.9761719 L5.56058594,19.335625 C5.58039062,19.3961719 5.58800781,19.4553125 5.58546875,19.5117188 C5.56886719,19.8768359 5.11125,20.1266016 4.775625,19.8844922 L3.6109375,19.0440625 C3.52429687,18.9815625 3.42230469,18.9503125 3.3203125,18.9503125 C3.21832031,18.9503125 3.11632812,18.9815625 3.0296875,19.0440625 L1.86503906,19.8844922 C1.52941406,20.1266016 1.06960937,19.8768359 1.05507812,19.5117188 C1.05285156,19.4553125 1.06066406,19.3961328 1.08046875,19.335625 L1.5490625,17.9761719 C1.61527344,17.7739062 1.54273437,17.5523047 1.36945312,17.4273047 L0.204765625,16.5871094 C-0.182734375,16.3075781 0.01640625,15.6445312 0.495390625,15.6445312 L1.935,15.6445312 C2.14921875,15.6445312 2.3390625,15.5620703 2.40523437,15.3598047 L2.85007812,13.9915625 C2.92410156,13.7654297 3.1221875,13.6523438 3.3203125,13.6523438 C3.5184375,13.6523438 3.71652344,13.7654297 3.79054687,13.9915625 L4.23539062,15.3598047 C4.30160156,15.5620703 4.49140625,15.6445312 4.705625,15.6445312 L6.14523437,15.6445312 C6.62421875,15.6445312 6.82335937,16.3075781 6.43585937,16.5871094 Z" id="Shape" fill="#000000" fill-rule="nonzero"></path>
            </g>
        </g>
    </g>
</svg>