<?xml version="1.0" encoding="UTF-8"?>
<svg width="24px" height="20px" viewBox="0 0 24 20" version="1.1" xmlns="http://www.w3.org/2000/svg" xmlns:xlink="http://www.w3.org/1999/xlink">
    <title>Catalog Brands</title>
    <defs>
        <filter id="filter-1">
            <feColorMatrix in="SourceGraphic" type="matrix" values="0 0 0 0 1.000000 0 0 0 0 1.000000 0 0 0 0 1.000000 0 0 0 1.000000 0"></feColorMatrix>
        </filter>
    </defs>
    <g id="Page-1" stroke="none" stroke-width="1" fill="none" fill-rule="evenodd">
        <g filter="url(#filter-1)" id="Brands">
            <g>
                <path d="M22.481982,6.85608108 L21.3213964,5.85310811 C21.1774324,5.7286036 20.9597297,5.7445045 20.8352703,5.88855856 C20.7108108,6.03256757 20.7266216,6.25022523 20.8707207,6.37468468 L22.0312162,7.37765766 C22.4449099,7.73518018 22.4905856,8.36261261 22.1331081,8.77630631 L14.594955,17.4986486 C14.4704955,17.6426577 14.4863063,17.8603153 14.6303604,17.9848198 C14.6955405,18.0411712 14.7757658,18.0687387 14.8555856,18.0687387 C14.9522973,18.0687387 15.0483784,18.0282883 15.1165315,17.9494595 L22.6546396,9.22702703 C23.2607207,8.52576577 23.1832432,7.46211712 22.481982,6.85608108 Z" id="Path" fill="#000000" fill-rule="nonzero"></path>
                <path d="M20.4387838,5.09022523 L15.0701351,0.450540541 C14.7304054,0.156936937 14.2966216,0.0133783784 13.8488739,0.0458108108 C13.401036,0.0783783784 12.9927477,0.283468468 12.6991441,0.623153153 L12.1876126,1.21504505 C12.0631532,1.3590991 12.078964,1.57675676 12.223018,1.70121622 C12.3671171,1.82576577 12.5847297,1.80981982 12.7091892,1.66581081 L13.2207207,1.07391892 C13.3939189,0.873558559 13.6347748,0.752567568 13.898964,0.733333333 C14.1631532,0.713918919 14.418964,0.798873874 14.6193694,0.972072072 L19.988018,5.61175676 C20.0531982,5.66810811 20.1334234,5.69567568 20.2132432,5.69567568 C20.309955,5.69567568 20.406036,5.65522523 20.4741892,5.5763964 C20.5986036,5.43234234 20.5827928,5.21468468 20.4387838,5.09022523 Z" id="Path" fill="#000000" fill-rule="nonzero"></path>
                <path d="M17.1666216,3.87171171 L7.87887387,0.756486486 C7,0.461711712 6.04536036,0.936891892 5.75063063,1.81563063 L5.62810811,2.1809009 C5.56756757,2.36135135 5.66481982,2.55675676 5.84531532,2.6172973 C6.02581081,2.67783784 6.22112613,2.58063063 6.28171171,2.40009009 L6.40423423,2.03481982 C6.57810811,1.5163964 7.14121622,1.23608108 7.65968468,1.41 L16.9474775,4.52518018 C17.4659009,4.6990991 17.7461712,5.26225225 17.5722973,5.78063063 L13.250991,18.6644144 C13.1904505,18.8448649 13.2877027,19.0402252 13.4681982,19.1008108 C13.5045495,19.112973 13.5414865,19.1187838 13.5778378,19.1187838 C13.7218919,19.1187838 13.8562162,19.0277477 13.9045946,18.8836486 L18.2259009,5.99990991 C18.5205856,5.12121622 18.0454505,4.16644144 17.1666216,3.87171171 Z" id="Path" fill="#000000" fill-rule="nonzero"></path>
                <path d="M11.4772523,3 L1.68099099,3 C0.754099099,3 0,3.75405405 0,4.68094595 L0,18.2700901 C0,19.196982 0.754099099,19.9510811 1.68099099,19.9510811 L11.4772973,19.9510811 C12.4041892,19.9510811 13.1582883,19.196982 13.1582883,18.2700901 L13.1582883,4.68094595 C13.1582883,3.75405405 12.4041892,3 11.4772523,3 Z M12.4689189,18.2700901 C12.4689189,18.8168919 12.024009,19.2617117 11.4772523,19.2617117 L1.68099099,19.2617117 C1.13418919,19.2617117 0.689369369,18.8168468 0.689369369,18.2700901 L0.689369369,4.68094595 C0.689369369,4.13414414 1.13423423,3.68932432 1.68099099,3.68932432 L11.4772973,3.68932432 C12.0240991,3.68932432 12.4689189,4.13418919 12.4689189,4.68094595 L12.4689189,18.2700901 L12.4689189,18.2700901 Z" id="Shape" fill="#000000" fill-rule="nonzero"></path>
                <path d="M10.0498198,17.126982 L3.10837838,17.126982 C2.91801802,17.126982 2.76369369,17.2813063 2.76369369,17.4716667 C2.76369369,17.662027 2.91801802,17.8163514 3.10837838,17.8163514 L10.0498198,17.8163514 C10.2401802,17.8163514 10.3945045,17.662027 10.3945045,17.4716667 C10.3945045,17.2813063 10.2401802,17.126982 10.0498198,17.126982 Z" id="Path" fill="#000000" fill-rule="nonzero"></path>
                <path d="M6.50002664,6 C6.65520246,6 6.79684768,6.092213 6.86556611,6.23783594 L6.86556611,6.23783594 L8.03532441,8.71849941 L10.6510465,9.11628643 C10.804571,9.13959057 10.9320996,9.25215287 10.9800427,9.40658455 C11.0279858,9.56101623 10.9879799,9.73050083 10.8769118,9.84384365 L10.8769118,9.84384365 L8.98417157,11.7747415 L9.43100123,14.5013248 C9.45721012,14.6613317 9.39440467,14.8230668 9.26884702,14.9185134 C9.14334265,15.01396 8.97692683,15.0265598 8.8395965,14.9510165 L8.8395965,14.9510165 L6.50002664,13.6636584 L4.16045677,14.9510165 C4.10079425,14.9837427 4.03564491,15 3.97081519,15 C3.8863288,15 3.8022153,14.9724809 3.73120625,14.9185134 C3.60570187,14.8230668 3.54284315,14.6613317 3.56905204,14.5013248 L3.56905204,14.5013248 L4.0158817,11.7747415 L2.12308823,9.84384365 C2.01202006,9.73050083 1.97201421,9.56101623 2.01995731,9.40658455 C2.06784713,9.25215287 2.19542904,9.13959057 2.34895349,9.11628643 L2.34895349,9.11628643 L4.96467559,8.71849941 L6.13448716,6.23783594 C6.20320559,6.092213 6.34490408,6 6.50002664,6 Z" id="Shape" fill="#000000" fill-rule="nonzero"></path>
            </g>
        </g>
    </g>
</svg>