<?xml version="1.0" encoding="UTF-8"?>
<svg width="29px" height="20px" viewBox="0 0 29 20" version="1.1" xmlns="http://www.w3.org/2000/svg" xmlns:xlink="http://www.w3.org/1999/xlink">
    <title>Catalog  Coupon </title>
    <defs>
        <filter id="filter-1">
            <feColorMatrix in="SourceGraphic" type="matrix" values="0 0 0 0 1.000000 0 0 0 0 1.000000 0 0 0 0 1.000000 0 0 0 1.000000 0"></feColorMatrix>
        </filter>
    </defs>
    <g id="Page-1" stroke="none" stroke-width="1" fill="none" fill-rule="evenodd">
        <g filter="url(#filter-1)" id="-Coupon-">
            <g>
                <path d="M28.1634746,7.09674672 C28.6254922,7.09674672 29,6.66343413 29,6.12901746 L29,0.967729253 C29,0.43324706 28.6254355,0 28.1634746,0 L0.836525391,0 C0.374564453,0 0,0.43324706 0,0.967729253 L0,6.12901746 C0,6.66349966 0.374564453,7.09674672 0.836525391,7.09674672 C2.2203125,7.09674672 3.3461582,8.39910887 3.3461582,10 C3.3461582,11.6008911 2.22036914,12.9032533 0.836525391,12.9032533 C0.374564453,12.9032533 0,13.3365003 0,13.8709825 L0,19.0322707 C0,19.5667529 0.374564453,20 0.836525391,20 L28.1634746,20 C28.6254922,20 29,19.5666874 29,19.0322707 L29,13.8709825 C29,13.3365003 28.6254355,12.9032533 28.1634746,12.9032533 C26.7796875,12.9032533 25.6538418,11.6008911 25.6538418,10 C25.6538418,8.39910887 26.7796309,7.09674672 28.1634746,7.09674672 Z M28,15.2914679 L28,19 L9.51089808,19 L9.51089808,15.7599795 C9.51089808,15.1634993 9.11667962,14.6799971 8.63047884,14.6799971 C8.14427807,14.6799971 7.75005961,15.1635724 7.75005961,15.7599795 L7.75005961,19 L1,19 L1,15.2914679 C3.00685987,14.7896845 4.52173654,12.607709 4.52173654,10 C4.52173654,7.392291 3.00685987,5.21024237 1,4.70853206 L1,1 L7.75,1 L7.75,4.24002047 C7.75,4.83650073 8.14421846,5.32000292 8.63041923,5.32000292 C9.11662001,5.32000292 9.51083846,4.8364276 9.51083846,4.24002047 L9.51083846,1 L28,1 L28,4.70853206 C25.9930805,5.21031549 24.4782038,7.392291 24.4782038,10 C24.4782038,12.607709 25.9931401,14.7897576 28,15.2914679 Z" id="Shape" fill="#000000" fill-rule="nonzero"></path>
                <text id="%" font-family="Montserrat-Bold, Montserrat" font-size="15" font-weight="bold" fill="#FFFFFF">
                    <tspan x="10" y="15">%</tspan>
                </text>
            </g>
        </g>
    </g>
</svg>