<?xml version="1.0" encoding="UTF-8"?>
<svg width="16px" height="20px" viewBox="0 0 16 20" version="1.1" xmlns="http://www.w3.org/2000/svg" xmlns:xlink="http://www.w3.org/1999/xlink">
    <title>Catalog  Products Options </title>
    <defs>
        <filter id="filter-1">
            <feColorMatrix in="SourceGraphic" type="matrix" values="0 0 0 0 1.000000 0 0 0 0 1.000000 0 0 0 0 1.000000 0 0 0 1.000000 0"></feColorMatrix>
        </filter>
    </defs>
    <g id="Page-1" stroke="none" stroke-width="1" fill="none" fill-rule="evenodd">
        <g filter="url(#filter-1)" id="-Products-Options-">
            <g>
                <path d="M13.9093018,0 L10.2896118,0 C9.44534301,0 8.75854492,0.686798086 8.75854492,1.5309143 L8.75854492,5.15075684 C8.75854492,5.99487305 9.44534301,6.68167113 10.2896118,6.68167113 L13.9093018,6.68167113 C14.753418,6.68167113 15.4402161,5.99487305 15.4402161,5.15075684 L15.4402161,1.5309143 C15.4403687,0.686798086 14.7535705,0 13.9093018,0 Z M14.2684937,5.15075684 C14.2684937,5.34866332 14.1073609,5.50979613 13.9093018,5.50979613 L10.2896118,5.50979613 C10.0915527,5.50979613 9.9305725,5.34866332 9.9305725,5.15075684 L9.9305725,1.5309143 C9.9305725,1.33300781 10.0915527,1.171875 10.2896118,1.171875 L13.9093018,1.171875 C14.1073609,1.171875 14.2684937,1.33300781 14.2684937,1.5309143 L14.2684937,5.15075684 Z" id="Shape" fill="#000000" fill-rule="nonzero"></path>
                <path d="M11.1053467,8.14453125 C10.8241272,8.14453125 10.559082,8.21426391 10.3263855,8.33740234 C10.0265503,7.88818359 9.51522828,7.59185789 8.93585203,7.59185789 C8.63662719,7.59185789 8.35556031,7.67089844 8.1123352,7.80929566 C7.80792234,7.39593508 7.31796266,7.12722777 6.76635742,7.12722777 C6.59271242,7.12722777 6.4251709,7.15377809 6.26754762,7.20321656 L6.26754762,6.68167113 L6.40670777,6.68167113 C7.25097656,6.68167113 7.93777465,5.99487305 7.93777465,5.15060426 L7.93777465,1.5309143 C7.93777465,0.686798086 7.25097656,0 6.40670777,0 L2.78701781,0 C1.9429016,0 1.25610352,0.686798086 1.25610352,1.5309143 L1.25610352,5.15075684 C1.25610352,5.99487305 1.9429016,6.68167113 2.78701781,6.68167113 L2.92633055,6.68167113 L2.92633055,10.3114319 C2.83569336,10.2206421 2.73391723,10.1396179 2.62222289,10.0701904 C2.26226805,9.84664918 1.84020996,9.76882934 1.4263916,9.84848023 C0.981292734,9.86633301 0.581970234,10.0605774 0.322570781,10.3875732 C0.0500488281,10.7310486 -0.0445556641,11.1915588 0.0627136328,11.6511536 L0.832824687,14.9465942 C1.27197266,17.6960754 3.41674805,19.7531128 3.5081482,19.8396301 C3.61694336,19.942627 3.76113891,20 3.91098023,20 L10.5012512,20 C10.6985473,20 10.8824158,19.9006653 10.9909058,19.7358704 C12.1580505,17.9603577 12.7752686,15.8988953 12.7754211,13.7742615 L12.7760315,9.81521605 C12.7760315,9.81521605 12.7760315,9.81521605 12.7760315,9.81506348 C12.7760315,8.89389039 12.0265198,8.14453125 11.1053467,8.14453125 Z M4.15710449,18.828125 C3.68484496,18.3258057 2.2932434,16.7037964 1.98699953,14.7436523 C1.9847107,14.7291565 1.9819641,14.7148132 1.97860719,14.7007752 L1.20376586,11.3845825 C1.17797852,11.2738037 1.19094848,11.1782837 1.24053953,11.1158752 C1.28997805,11.0534668 1.37481688,11.020813 1.48803711,11.0099793 C1.54495238,11.0046387 1.56860352,10.9979248 1.62139891,10.9947205 C1.75430297,10.9866333 1.89056398,10.9953308 2.00378418,11.0656738 C2.11700438,11.1360168 2.19589234,11.2461853 2.22625734,11.375885 L2.89459227,14.2362976 C2.95043945,14.4750977 3.14910891,14.6539307 3.39233398,14.6844482 L3.43933105,14.6902466 C3.60610961,14.7111511 3.77380371,14.6594238 3.89984133,14.5481873 C4.02587891,14.4369507 4.09805297,14.276886 4.09805297,14.1088867 L4.09805297,4.79660035 C4.09805297,4.52148437 4.32174684,4.29779055 4.59686281,4.29779055 C4.87182617,4.29779055 5.09567262,4.52148437 5.09567262,4.79660035 L5.09567262,10.2911377 C5.09567262,10.614624 5.35797117,10.8770752 5.68161012,10.8770752 C6.00524902,10.8770752 6.26754762,10.614624 6.26754762,10.2911377 L6.26754762,8.79791258 C6.26754762,8.52279664 6.49124145,8.29910277 6.76635742,8.29910277 C7.04132078,8.29910277 7.26516723,8.52279664 7.26516723,8.79791258 L7.26516723,10.3578186 C7.26516723,10.6814575 7.52746582,10.9437561 7.85110473,10.9437561 C8.17474367,10.9437561 8.43704223,10.6814575 8.43704223,10.3578186 L8.43704223,9.26254273 C8.43704223,8.98757934 8.66088867,8.76373289 8.93585203,8.76373289 C9.21096801,8.76373289 9.43466187,8.98757934 9.43466187,9.26254273 L9.43466187,10.7670593 C9.43466187,11.0905457 9.69696047,11.3529968 10.0205994,11.3529968 C10.3442383,11.3529968 10.6065369,11.0905457 10.6065369,10.7670593 L10.6065369,9.81521605 C10.6065369,9.54010008 10.8303833,9.31625367 11.1053467,9.31625367 C11.3804627,9.31625367 11.6041565,9.54010008 11.6041565,9.81506348 L11.6035461,13.7741089 C11.6033936,15.565033 11.1117554,17.305603 10.1791382,18.828125 L4.15710449,18.828125 Z M2.42797852,5.15075684 L2.42797852,1.5309143 C2.42797852,1.33300781 2.58911133,1.171875 2.78701781,1.171875 L6.40670777,1.171875 C6.60476684,1.171875 6.76589965,1.33300781 6.76589965,1.5309143 L6.76589965,5.15075684 C6.76589965,5.34866332 6.60476684,5.50979613 6.40670777,5.50979613 L6.26754762,5.50979613 L6.26754762,4.79644773 C6.26754762,3.87527465 5.5180359,3.12576293 4.59686281,3.12576293 C3.67568969,3.12576293 2.92617797,3.87527465 2.92617797,4.79644773 L2.92617797,5.50979613 L2.78701781,5.50979613 C2.58911133,5.50979613 2.42797852,5.34866332 2.42797852,5.15075684 Z" id="Shape" fill="#000000" fill-rule="nonzero"></path>
            </g>
        </g>
    </g>
</svg>