<?xml version="1.0" encoding="UTF-8"?>
<svg width="15px" height="20px" viewBox="0 0 15 20" version="1.1" xmlns="http://www.w3.org/2000/svg" xmlns:xlink="http://www.w3.org/1999/xlink">
    <title>Catalog Import</title>
    <defs>
        <filter id="filter-1">
            <feColorMatrix in="SourceGraphic" type="matrix" values="0 0 0 0 1.000000 0 0 0 0 1.000000 0 0 0 0 1.000000 0 0 0 1.000000 0"></feColorMatrix>
        </filter>
    </defs>
    <g id="Page-1" stroke="none" stroke-width="1" fill="none" fill-rule="evenodd">
        <g filter="url(#filter-1)" id="Import">
            <g>
                <path d="M14.5,6 L10,6 L10,7 L14,7 L14,19 L1,19 L1,7 L5,7 L5,6 L0.5,6 C0.223984375,6 0,6.22398437 0,6.5 L0,19.5 C0,19.7760156 0.223984375,20 0.5,20 L14.5,20 C14.7760156,20 15,19.7760156 15,19.5 L15,6.5 C15,6.22398437 14.7760156,6 14.5,6 Z" id="Path" fill="#000000" fill-rule="nonzero"></path>
                <path d="M10.8576562,9.15035156 C10.6646484,8.95300781 10.3476562,8.94933594 10.1506641,9.14234375 L8,11.2460156 L8,0.5 C8,0.223984375 7.77601562,0 7.5,0 C7.22398437,0 7,0.223984375 7.00035156,0.5 L7.00035156,11.2456641 L4.8496875,9.14199219 C4.65269531,8.94898438 4.33570312,8.95265625 4.14269531,9.15 C3.9496875,9.34765625 3.95304687,9.66398438 4.15070312,9.85699219 L7.15070312,12.7916797 C7.34769531,12.985 7.6646875,12.9813281 7.85769531,12.7843359 L10.8496875,9.85734375 C11.0469922,9.66433594 11.0506641,9.34800781 10.8576562,9.15035156 Z" id="Path" fill="#000000" fill-rule="nonzero"></path>
            </g>
        </g>
    </g>
</svg>