<?xml version="1.0" encoding="UTF-8"?>
<svg width="22px" height="20px" viewBox="0 0 22 20" version="1.1" xmlns="http://www.w3.org/2000/svg" xmlns:xlink="http://www.w3.org/1999/xlink">
    <title>CMSfiles</title>
    <defs>
        <filter id="filter-1">
            <feColorMatrix in="SourceGraphic" type="matrix" values="0 0 0 0 1.000000 0 0 0 0 1.000000 0 0 0 0 1.000000 0 0 0 1.000000 0"></feColorMatrix>
        </filter>
    </defs>
    <g id="Page-1" stroke="none" stroke-width="1" fill="none" fill-rule="evenodd">
        <g filter="url(#filter-1)" id="files">
            <g>
                <path d="M13.2640285,0.0173048115 L1.99149905,0.0173048115 C0.899674961,0.0173048115 0.0113905089,0.905545455 0.0113905089,1.99736954 C0.0113905089,16.4436453 -0.0729430664,15.5545284 0.216945384,15.8444169 C4.43734797,20.0647756 4.16975863,19.8197045 4.31735334,19.8926913 C4.52842823,19.9986231 3.95084181,19.9668173 13.2639847,19.9668173 C14.3558088,19.9668173 15.2440932,19.0785766 15.2440932,17.9867525 L15.2440932,1.99736954 C15.2440932,0.905545455 14.3558526,0.0173048115 13.2640285,0.0173048115 Z M18.4925788,1.99736954 L18.4925788,17.9867964 C18.4925788,19.0786204 17.6042943,19.9668611 16.5124702,19.9668611 C16.1253682,19.9668611 15.8115158,19.6530526 15.8115158,19.2659067 C15.8115158,18.8787608 16.1253682,18.5649523 16.5124702,18.5649523 C16.831273,18.5649523 17.09067,18.3055992 17.09067,17.9867964 L17.09067,1.99736954 C17.09067,1.67856672 16.8313168,1.41921359 16.5124702,1.41921359 C16.1253682,1.41921359 15.8115158,1.10540508 15.8115158,0.718259203 C15.8115158,0.331113331 16.1253682,0.0173048115 16.5124702,0.0173048115 C17.6042943,0.0173048115 18.4925788,0.905545455 18.4925788,1.99736954 Z M21.7409766,1.99736954 L21.7409766,17.9867964 C21.7409766,19.0786204 20.852736,19.9668611 19.7608681,19.9668611 C19.373766,19.9668611 19.0599137,19.6530526 19.0599137,19.2659067 C19.0599137,18.8787608 19.373766,18.5649523 19.7608681,18.5649523 C20.0796709,18.5649523 20.3390679,18.3055992 20.3390679,17.9867964 L20.3390679,1.99736954 C20.3390679,1.67856672 20.0797147,1.41921359 19.7608681,1.41921359 C19.373766,1.41921359 19.0599137,1.10540508 19.0599137,0.718259203 C19.0599137,0.331113331 19.373766,0.0173048115 19.7608681,0.0173048115 C20.852736,0.0173048115 21.7409766,0.905545455 21.7409766,1.99736954 Z" id="Shape" fill="#000000" fill-rule="nonzero"></path>
            </g>
        </g>
    </g>
</svg>