<?xml version="1.0" encoding="UTF-8"?>
<svg width="20px" height="20px" viewBox="0 0 20 20" version="1.1" xmlns="http://www.w3.org/2000/svg" xmlns:xlink="http://www.w3.org/1999/xlink">
    <title>CMSBanner</title>
    <defs>
        <filter id="filter-1">
            <feColorMatrix in="SourceGraphic" type="matrix" values="0 0 0 0 1.000000 0 0 0 0 1.000000 0 0 0 0 1.000000 0 0 0 1.000000 0"></feColorMatrix>
        </filter>
    </defs>
    <g id="Page-1" stroke="none" stroke-width="1" fill="none" fill-rule="evenodd">
        <g filter="url(#filter-1)" id="Banner">
            <g>
                <path d="M18.6666667,0 L1.33333333,0 C0.596953667,0 0,0.596953667 0,1.33333333 L0,18.6666667 C0,19.4030463 0.596953667,20 1.33333333,20 L18.6666667,20 C19.4030463,20 20,19.4030463 20,18.6666667 L20,1.33333333 C20,0.596953667 19.4030463,0 18.6666667,0 Z M1.33333333,0.666666667 L18.6666667,0.666666667 C19.0348565,0.666666667 19.3333333,0.9651435 19.3333333,1.33333333 L19.3333333,4 L0.666666667,4 L0.666666667,1.33333333 C0.666666667,0.9651435 0.9651435,0.666666667 1.33333333,0.666666667 Z M18.6666667,19.3333333 L1.33333333,19.3333333 C0.9651435,19.3333333 0.666666667,19.0348565 0.666666667,18.6666667 L0.666666667,4.66666667 L19.3333333,4.66666667 L19.3333333,18.6666667 C19.3333333,19.0348565 19.0348565,19.3333333 18.6666667,19.3333333 Z" id="Shape" fill="#000000" fill-rule="nonzero"></path>
                <path d="M17,12 L3.53846154,12 C3.24107744,12 3,11.720178 3,11.375 L3,11.375 L3,7.625 C3,7.27982203 3.24107744,7 3.53846154,7 L3.53846154,7 L16.4615385,7 C16.7589226,7 17,7.27982203 17,7.625 L17,7.625 L17,12 Z" id="Shape" fill="#000000" fill-rule="nonzero"></path>
                <path d="M18,16.1510417 L12,16.1510417 C11.8159051,16.1510417 11.6666667,16.3002801 11.6666667,16.484375 C11.6666667,16.6684699 11.8159051,16.8177083 12,16.8177083 L18,16.8177083 C18.1840949,16.8177083 18.3333333,16.6684699 18.3333333,16.484375 C18.3333333,16.3002801 18.1840949,16.1510417 18,16.1510417 Z" id="Shape" fill="#000000" fill-rule="nonzero"></path>
                <path d="M10.6666667,16.1510417 L5.66666667,16.1510417 C5.48257177,16.1510417 5.33333333,16.3002801 5.33333333,16.484375 C5.33333333,16.6684699 5.48257177,16.8177083 5.66666667,16.8177083 L10.6666667,16.8177083 C10.8507616,16.8177083 11,16.6684699 11,16.484375 C11,16.3002801 10.8507616,16.1510417 10.6666667,16.1510417 Z" id="Shape" fill="#000000" fill-rule="nonzero"></path>
                <path d="M2,16.1510417 C1.81590508,16.1510417 1.66666667,16.3002801 1.66666667,16.484375 C1.66666667,16.6684699 1.81590508,16.8177083 2,16.8177083 L4.33333333,16.8177083 C4.51742823,16.8177083 4.66666667,16.6684699 4.66666667,16.484375 C4.66666667,16.3002801 4.51742823,16.1510417 4.33333333,16.1510417 L2,16.1510417 Z" id="Shape" fill="#000000" fill-rule="nonzero"></path>
            </g>
        </g>
    </g>
</svg>