<?xml version="1.0" encoding="UTF-8"?>
<svg width="20px" height="20px" viewBox="0 0 20 20" version="1.1" xmlns="http://www.w3.org/2000/svg" xmlns:xlink="http://www.w3.org/1999/xlink">
    <title>CMSblog</title>
    <defs>
        <filter id="filter-1">
            <feColorMatrix in="SourceGraphic" type="matrix" values="0 0 0 0 1.000000 0 0 0 0 1.000000 0 0 0 0 1.000000 0 0 0 1.000000 0"></feColorMatrix>
        </filter>
    </defs>
    <g id="Page-1" stroke="none" stroke-width="1" fill="none" fill-rule="evenodd">
        <g filter="url(#filter-1)" id="blog">
            <g>
                <path d="M18.2421875,0 L1.7578125,0 C0.788554688,0 0,0.788554688 0,1.7578125 L0,18.2421875 C0,19.2114453 0.788554688,20 1.7578125,20 L18.2421875,20 C19.2114453,20 20,19.2114453 20,18.2421875 L20,1.7578125 C20,0.788554688 19.2114453,0 18.2421875,0 Z M18.828125,18.2421875 C18.828125,18.5652734 18.5652734,18.828125 18.2421875,18.828125 L1.7578125,18.828125 C1.43472656,18.828125 1.171875,18.5652734 1.171875,18.2421875 L1.171875,5.859375 L18.828125,5.859375 L18.828125,18.2421875 Z M18.828125,4.6875 L1.171875,4.6875 L1.171875,1.7578125 C1.171875,1.43472656 1.43472656,1.171875 1.7578125,1.171875 L18.2421875,1.171875 C18.5652734,1.171875 18.828125,1.43472656 18.828125,1.7578125 L18.828125,4.6875 Z" id="Shape" fill="#000000" fill-rule="nonzero"></path>
                <path d="M8.7890625,7.03125 C9.11265625,7.03125 9.375,7.29359375 9.375,7.6171875 L9.375,7.6171875 L9.375,12.3828125 C9.375,12.7064063 9.11265625,12.96875 8.7890625,12.96875 L8.7890625,12.96875 L2.9296875,12.96875 C2.60609375,12.96875 2.34375,12.7064063 2.34375,12.3828125 L2.34375,12.3828125 L2.34375,7.6171875 C2.34375,7.29359375 2.60609375,7.03125 2.9296875,7.03125 L2.9296875,7.03125 Z" id="Shape" fill="#000000" fill-rule="nonzero"></path>
                <path d="M17.0703125,9.4140625 L11.1328125,9.4140625 C10.8092187,9.4140625 10.546875,9.67640625 10.546875,10 C10.546875,10.3235937 10.8092187,10.5859375 11.1328125,10.5859375 L17.0703125,10.5859375 C17.3939063,10.5859375 17.65625,10.3235937 17.65625,10 C17.65625,9.67640625 17.3939063,9.4140625 17.0703125,9.4140625 Z" id="Path" fill="#000000" fill-rule="nonzero"></path>
                <path d="M17.0703125,15.2734375 L2.9296875,15.2734375 C2.60609375,15.2734375 2.34375,15.5357812 2.34375,15.859375 C2.34375,16.1829688 2.60609375,16.4453125 2.9296875,16.4453125 L17.0703125,16.4453125 C17.3939063,16.4453125 17.65625,16.1829688 17.65625,15.859375 C17.65625,15.5357812 17.3939063,15.2734375 17.0703125,15.2734375 Z" id="Path" fill="#000000" fill-rule="nonzero"></path>
            </g>
        </g>
    </g>
</svg>