<?xml version="1.0" encoding="UTF-8"?>
<svg width="34px" height="20px" viewBox="0 0 34 20" version="1.1" xmlns="http://www.w3.org/2000/svg" xmlns:xlink="http://www.w3.org/1999/xlink">
    <title>Customers Customers details</title>
    <defs>
        <filter id="filter-1">
            <feColorMatrix in="SourceGraphic" type="matrix" values="0 0 0 0 1.000000 0 0 0 0 1.000000 0 0 0 0 1.000000 0 0 0 1.000000 0"></feColorMatrix>
        </filter>
    </defs>
    <g id="Page-1" stroke="none" stroke-width="1" fill="none" fill-rule="evenodd">
        <g id="Customers-details" transform="translate(0.000000, 0.000000)">
            <g filter="url(#filter-1)" id="customer-review-(1)">
                <g>
                    <path d="M5.77316358,18.5557167 C5.88745338,16.1523453 7.09802981,13.9342519 9.05750857,12.5379355 C9.59804628,12.6473914 10.1550401,12.6473914 10.6955778,12.5379355 C12.6550566,13.9342519 13.865633,16.1523453 13.9799228,18.5557167 C11.3827537,19.7864117 8.37033268,19.7864117 5.77316358,18.5557167 L5.77316358,18.5557167 Z M11.2482853,8.5048011 C11.2482853,9.26239335 10.6341355,9.87654321 9.87654321,9.87654321 C9.11895096,9.87654321 8.5048011,9.26239335 8.5048011,8.5048011 L8.5048011,7.13305898 C8.5048011,6.37546674 9.11895096,5.76131687 9.87654321,5.76131687 C10.6341355,5.76131687 11.2482853,6.37546674 11.2482853,7.13305898 L11.2482853,8.5048011 Z M9.87654321,0.274345884 C13.7969998,0.271506966 17.3248613,2.6539963 18.786724,6.29170786 C20.2485868,9.92941943 19.3503792,14.0905834 16.5181567,16.8013957 C16.0578165,14.5501489 14.8770625,12.5099707 13.1543999,10.9892936 C13.6983668,10.2753346 13.9925882,9.40237384 13.9917695,8.5048011 L13.9917695,7.13305898 C13.9917695,4.86028224 12.14932,3.01783265 9.87654321,3.01783265 C7.60376646,3.01783265 5.76131687,4.86028224 5.76131687,7.13305898 L5.76131687,8.5048011 C5.76049818,9.40237384 6.05471958,10.2753346 6.59868656,10.9892936 C4.87602395,12.5099707 3.69526988,14.5501489 3.2349297,16.8013957 C0.402707173,14.0905834 -0.495500336,9.92941943 0.966362381,6.29170786 C2.4282251,2.6539963 5.95608661,0.271506966 9.87654321,0.274345884 L9.87654321,0.274345884 Z" id="Shape" fill="#000000" fill-rule="nonzero"></path>
                </g>
            </g>
            <line x1="21.7777778" y1="6.33333333" x2="32.8888889" y2="6.33333333" id="Line-Copy" stroke="#FFFFFF" stroke-width="2" stroke-linecap="round"></line>
            <line x1="21.7777778" y1="11.0277778" x2="27.3333333" y2="11.0277778" id="Line-Copy" stroke="#FFFFFF" stroke-width="2" stroke-linecap="round"></line>
            <line x1="21.7777778" y1="15.6666667" x2="25.3333333" y2="15.6666667" id="Line-Copy" stroke="#FFFFFF" stroke-width="2" stroke-linecap="round"></line>
        </g>
    </g>
</svg>