<?xml version="1.0" encoding="UTF-8"?>
<svg width="17px" height="20px" viewBox="0 0 17 20" version="1.1" xmlns="http://www.w3.org/2000/svg" xmlns:xlink="http://www.w3.org/1999/xlink">
    <title>Customers Activity</title>
    <defs>
        <filter id="filter-1">
            <feColorMatrix in="SourceGraphic" type="matrix" values="0 0 0 0 1.000000 0 0 0 0 1.000000 0 0 0 0 1.000000 0 0 0 1.000000 0"></feColorMatrix>
        </filter>
    </defs>
    <g id="Page-1" stroke="none" stroke-width="1" fill="none" fill-rule="evenodd">
        <g filter="url(#filter-1)" id="Activity">
            <g>
                <path d="M15.5312891,9.39453125 C16.2225,9.39453125 16.7848438,9.956875 16.7848438,10.6480469 L16.7848438,10.6480469 L16.7848438,15.0769531 C16.7848438,15.5882813 16.6436328,16.0889844 16.3765234,16.5249609 C16.3734375,16.5299609 16.3702734,16.5348828 16.3669922,16.5397266 L16.3669922,16.5397266 L14.9089844,18.6953125 L14.9089844,19.609375 C14.9089844,19.7130469 14.8677734,19.8125 14.7944141,19.8857422 C14.7211719,19.9589062 14.621875,20 14.5183594,20 L14.5183594,20 L11.4039453,19.99625 C11.1883984,19.9960156 11.0137891,19.8211719 11.0137891,19.605625 L11.0137891,19.605625 L11.0137891,18.6167578 L10.8627344,18.4244922 C10.4278906,17.8710547 10.1884375,17.1786719 10.1884375,16.4748437 L10.1884375,16.4748437 L10.1884375,13.3263672 C10.1884375,12.6352344 10.7507031,12.0729687 11.4418359,12.0729687 C12.0633594,12.0729687 12.5969922,12.5371484 12.683125,13.1526953 C12.6837891,13.1570703 12.6842969,13.1614844 12.6847656,13.1658984 L12.6847656,13.1658984 L12.8815625,15.0335156 C12.9082031,15.2000391 13.1098047,15.2792188 13.2427344,15.1748438 L13.2427344,15.1748438 L13.9232031,14.5918359 C13.9258984,14.5895313 13.9285937,14.5872656 13.9313672,14.5850391 C14.1515234,14.4066016 14.2777734,14.1417578 14.2777734,13.8583984 L14.2777734,13.8583984 L14.2777734,10.6480469 C14.2777734,9.956875 14.8401172,9.39453125 15.5312891,9.39453125 Z" id="Shape" fill="#000000" fill-rule="nonzero"></path>
                <path d="M5.53128906,9.39453125 C6.2225,9.39453125 6.78484375,9.956875 6.78484375,10.6480469 L6.78484375,10.6480469 L6.78484375,15.0769531 C6.78484375,15.5882813 6.64363281,16.0889844 6.37652344,16.5249609 C6.3734375,16.5299609 6.37027344,16.5348828 6.36699219,16.5397266 L6.36699219,16.5397266 L4.90898437,18.6953125 L4.90898437,19.609375 C4.90898437,19.7130469 4.86777344,19.8125 4.79441406,19.8857422 C4.72117187,19.9589062 4.621875,20 4.51835937,20 L4.51835937,20 L1.40394531,19.99625 C1.18839844,19.9960156 1.01378906,19.8211719 1.01378906,19.605625 L1.01378906,19.605625 L1.01378906,18.6167578 L0.862734375,18.4244922 C0.427890625,17.8710547 0.1884375,17.1786719 0.1884375,16.4748437 L0.1884375,16.4748437 L0.1884375,13.3263672 C0.1884375,12.6352344 0.750703125,12.0729687 1.44183594,12.0729687 C2.06335937,12.0729687 2.59699219,12.5371484 2.683125,13.1526953 C2.68378906,13.1570703 2.68429687,13.1614844 2.68476562,13.1658984 L2.68476562,13.1658984 L2.8815625,15.0335156 C2.90820312,15.2000391 3.10980469,15.2792188 3.24273437,15.1748438 L3.24273437,15.1748438 L3.92320312,14.5918359 C3.92589844,14.5895313 3.92859375,14.5872656 3.93136719,14.5850391 C4.15152344,14.4066016 4.27777344,14.1417578 4.27777344,13.8583984 L4.27777344,13.8583984 L4.27777344,10.6480469 C4.27777344,9.956875 4.84011719,9.39453125 5.53128906,9.39453125 Z" id="Shape" fill="#000000" fill-rule="nonzero" transform="translate(3.486641, 14.697266) scale(-1, 1) translate(-3.486641, -14.697266) "></path>
                <path d="M14.6442969,3.76941406 C15.6652734,3.76941406 16.4959375,4.60007812 16.4959375,5.62105469 C16.4959375,6.64203125 15.6653125,7.47269531 14.6442969,7.47269531 C13.6232812,7.47269531 12.7926172,6.64207031 12.7926172,5.62105469 C12.7926172,4.60007812 13.6232812,3.76941406 14.6442969,3.76941406 Z" id="Shape" fill="#000000" fill-rule="nonzero"></path>
                <path d="M2.35632813,3.76941406 C3.37730469,3.76941406 4.20796875,4.60007812 4.20796875,5.62105469 C4.20796875,6.64203125 3.37730469,7.47269531 2.35632813,7.47269531 C1.33535156,7.47269531 0.5046875,6.64207031 0.5046875,5.62105469 C0.5046875,4.60007812 1.33535156,3.76941406 2.35632813,3.76941406 Z" id="Shape" fill="#000000" fill-rule="nonzero"></path>
                <path d="M8.5003125,3.70332031 C9.52132813,3.70332031 10.3519531,2.87265625 10.3519531,1.85164063 C10.3519922,0.830664063 9.52132813,2.77555756e-16 8.5003125,2.77555756e-16 C7.47929688,2.77555756e-16 6.64867188,0.830664063 6.64867188,1.85164063 C6.64867188,2.87269531 7.47933594,3.70332031 8.5003125,3.70332031 Z M8.5003125,0.78125 C9.09054688,0.78125 9.57070312,1.26140625 9.57070312,1.85164063 C9.57070312,2.441875 9.09054688,2.92207031 8.5003125,2.92207031 C7.91007813,2.92207031 7.42992188,2.441875 7.42992188,1.85164063 C7.42992188,1.26140625 7.91007813,0.78125 8.5003125,0.78125 Z" id="Shape" fill="#000000" fill-rule="nonzero"></path>
                <path d="M8.42363281,7.71792969 C7.40261719,7.71792969 6.57199219,8.54859375 6.57199219,9.56957031 C6.57199219,10.5905469 7.40265625,11.4212109 8.42363281,11.4212109 C9.44460937,11.4212109 10.2752734,10.5905469 10.2752734,9.56957031 C10.2752734,8.54859375 9.44464844,7.71792969 8.42363281,7.71792969 Z M8.42363281,10.6399609 C7.83339844,10.6399609 7.35324219,10.1598047 7.35324219,9.56957031 C7.35324219,8.97933594 7.83339844,8.49917969 8.42363281,8.49917969 C9.01386719,8.49917969 9.49402344,8.97933594 9.49402344,9.56957031 C9.49402344,10.1598047 9.01386719,10.6399609 8.42363281,10.6399609 Z" id="Shape" fill="#000000" fill-rule="nonzero"></path>
            </g>
        </g>
    </g>
</svg>