<?xml version="1.0" encoding="UTF-8"?>
<svg width="21px" height="20px" viewBox="0 0 21 20" version="1.1" xmlns="http://www.w3.org/2000/svg" xmlns:xlink="http://www.w3.org/1999/xlink">
    <title>Customers Groups</title>
    <defs>
        <filter id="filter-1">
            <feColorMatrix in="SourceGraphic" type="matrix" values="0 0 0 0 1.000000 0 0 0 0 1.000000 0 0 0 0 1.000000 0 0 0 1.000000 0"></feColorMatrix>
        </filter>
    </defs>
    <g id="Page-1" stroke="none" stroke-width="1" fill="none" fill-rule="evenodd">
        <g filter="url(#filter-1)" id="Groups">
            <g>
                <path d="M2.89854844,14.9209242 C1.30023452,14.9209242 0,16.2213172 0,17.8196311 L0,19.3835573 C0,19.7196691 0.272407465,19.9920766 0.60851927,19.9920766 L5.18857761,19.9920766 C5.52468941,19.9920766 5.79709688,19.7196691 5.79709688,19.3835573 L5.79709688,17.8196311 C5.79709688,16.2213172 4.49686231,14.9209242 2.89854844,14.9209242 L2.89854844,14.9209242 Z M4.58005834,18.7750381 L1.21703854,18.7750381 L1.21703854,17.8196311 C1.21703854,16.8924316 1.97134888,16.1381212 2.89854844,16.1381212 C3.82574799,16.1381212 4.58005834,16.8924316 4.58005834,17.8196311 L4.58005834,18.7750381 Z" id="Shape" fill="#000000" fill-rule="nonzero"></path>
                <path d="M2.89854844,14.5391734 C4.01337477,14.5391734 4.9202903,13.6322578 4.9202903,12.5174316 C4.9202903,11.4026052 4.01337477,10.4955312 2.89854844,10.4955312 C1.78372211,10.4955312 0.876806531,11.4026052 0.876806531,12.5174316 C0.876806531,13.6322578 1.78372211,14.5391734 2.89854844,14.5391734 L2.89854844,14.5391734 Z M2.89854844,11.7125697 C3.34226041,11.7125697 3.70325176,12.0735611 3.70325176,12.5174316 C3.70325176,12.9611435 3.34226041,13.3221349 2.89854844,13.3221349 C2.45483647,13.3221349 2.09384507,12.9611435 2.09384507,12.5174316 C2.09384507,12.0735611 2.45483647,11.7125697 2.89854844,11.7125697 Z" id="Shape" fill="#000000" fill-rule="nonzero"></path>
                <path d="M10.3853955,14.9209242 C8.78708162,14.9209242 7.4868471,16.2213172 7.4868471,17.8194726 L7.4868471,19.3835573 C7.4868471,19.7196691 7.75925456,19.9920766 8.09536637,19.9920766 L12.6754247,19.9920766 C13.0115365,19.9920766 13.283944,19.7196691 13.283944,19.3835573 L13.283944,17.8196311 C13.283944,16.2213172 11.9837095,14.9209242 10.3853955,14.9209242 L10.3853955,14.9209242 Z M12.0669054,18.7750381 L8.70388564,18.7750381 L8.70388564,17.8196311 C8.70388564,16.8924316 9.45819598,16.1381212 10.3853955,16.1381212 C11.3125951,16.1381212 12.0669054,16.8924316 12.0669054,17.8196311 L12.0669054,18.7750381 Z" id="Shape" fill="#000000" fill-rule="nonzero"></path>
                <path d="M8.36365363,12.5174316 C8.36365363,13.6322578 9.27056921,14.5391734 10.3853955,14.5391734 C11.5002219,14.5391734 12.4071374,13.6322578 12.4071374,12.5174316 C12.4071374,11.4026052 11.5002219,10.4955312 10.3853955,10.4955312 C9.27056921,10.4955312 8.36365363,11.4026052 8.36365363,12.5174316 L8.36365363,12.5174316 Z M10.3853955,11.7125697 C10.8291075,11.7125697 11.1900989,12.0735611 11.1900989,12.5174316 C11.1900989,12.9611435 10.8291075,13.3221349 10.3853955,13.3221349 C9.94168357,13.3221349 9.58069217,12.9611435 9.58069217,12.5174316 C9.58069217,12.0735611 9.94168357,11.7125697 10.3853955,11.7125697 Z" id="Shape" fill="#000000" fill-rule="nonzero"></path>
                <path d="M17.8722426,14.9209242 C16.2739288,14.9209242 14.9736942,16.2213172 14.9736942,17.8194726 L14.9736942,19.3835573 C14.9736942,19.7196691 15.2461017,19.9920766 15.5822135,19.9920766 L20.1622718,19.9920766 C20.4983836,19.9920766 20.7707911,19.7196691 20.7707911,19.3835573 L20.7707911,17.8196311 C20.7707911,16.2213172 19.4705566,14.9209242 17.8722426,14.9209242 L17.8722426,14.9209242 Z M19.5537525,18.7750381 L16.1907327,18.7750381 L16.1907327,17.8196311 C16.1907327,16.8924316 16.9450431,16.1381212 17.8722426,16.1381212 C18.7994422,16.1381212 19.5537525,16.8922731 19.5537525,17.8196311 L19.5537525,18.7750381 Z" id="Shape" fill="#000000" fill-rule="nonzero"></path>
                <path d="M15.8505008,12.5174316 C15.8505008,13.6322578 16.7574163,14.5391734 17.8722426,14.5391734 C18.987069,14.5391734 19.8939845,13.6322578 19.8939845,12.5174316 C19.8939845,11.4026052 18.987069,10.4955312 17.8722426,10.4955312 C16.7574163,10.4955312 15.8505008,11.4026052 15.8505008,12.5174316 L15.8505008,12.5174316 Z M17.8722426,11.7125697 C18.3159546,11.7125697 18.676946,12.0735611 18.676946,12.5174316 C18.676946,12.9611435 18.3159546,13.3221349 17.8722426,13.3221349 C17.4283722,13.3221349 17.0675393,12.9611435 17.0675393,12.5174316 C17.0675393,12.0735611 17.4285307,11.7125697 17.8722426,11.7125697 Z" id="Shape" fill="#000000" fill-rule="nonzero"></path>
                <path d="M6.6420512,4.42539302 C8.24036511,4.42539302 9.54059963,5.72562755 9.54059963,7.32394142 L9.54059963,7.32394142 L9.54059963,8.88802613 C9.54059963,9.22397947 9.26819221,9.4965454 8.93208037,9.4965454 L8.93208037,9.4965454 L4.35202207,9.4965454 C4.01591026,9.4965454 3.7435028,9.22397947 3.7435028,8.88802613 L3.7435028,8.88802613 L3.7435028,7.32394142 C3.7435028,5.72562755 5.04373732,4.42539302 6.6420512,4.42539302 Z" id="Shape" fill="#000000" fill-rule="nonzero"></path>
                <path d="M6.6420512,0 C7.75703602,0 8.66395156,0.906915578 8.66395156,2.02174191 C8.66395156,3.13656819 7.75703602,4.04364223 6.6420512,4.04364223 C5.52722491,4.04364223 4.62030933,3.13672665 4.62030933,2.02190037 C4.62030933,0.906915578 5.52722491,0 6.6420512,0 Z" id="Shape" fill="#000000" fill-rule="nonzero"></path>
                <path d="M14.1288983,4.42539302 C15.7272122,4.42539302 17.0274467,5.72562755 17.0274467,7.32394142 L17.0274467,7.32394142 L17.0274467,8.88802613 C17.0274467,9.22397947 16.7550393,9.4965454 16.4189275,9.4965454 L16.4189275,9.4965454 L11.8388692,9.4965454 C11.5029158,9.4965454 11.2303499,9.22397947 11.2303499,8.88802613 L11.2303499,8.88802613 L11.2303499,7.32394142 C11.2303499,5.72562755 12.5305844,4.42539302 14.1288983,4.42539302 Z" id="Shape" fill="#000000" fill-rule="nonzero"></path>
                <path d="M14.1288983,0 C15.2437246,0 16.1507987,0.906915578 16.1507987,2.02174191 C16.1507987,3.13656819 15.2437246,4.04364223 14.1288983,4.04364223 C13.014072,4.04364223 12.1071564,3.13672665 12.1071564,2.02190037 C12.1071564,0.906915578 13.014072,0 14.1288983,0 Z" id="Shape" fill="#000000" fill-rule="nonzero"></path>
            </g>
        </g>
    </g>
</svg>