<?xml version="1.0" encoding="UTF-8"?>
<svg width="22px" height="20px" viewBox="0 0 22 20" version="1.1" xmlns="http://www.w3.org/2000/svg" xmlns:xlink="http://www.w3.org/1999/xlink">
    <title>MainCMS</title>
    <defs>
        <filter id="filter-1">
            <feColorMatrix in="SourceGraphic" type="matrix" values="0 0 0 0 1.000000 0 0 0 0 1.000000 0 0 0 0 1.000000 0 0 0 1.000000 0"></feColorMatrix>
        </filter>
    </defs>
    <g id="Page-1" stroke="none" stroke-width="1" fill="none" fill-rule="evenodd">
        <g filter="url(#filter-1)" id="CMS">
            <g>
                <path d="M18.3829787,10.893617 L15.2056738,10.893617 C14.829844,10.893617 14.5248227,10.5885957 14.5248227,10.212766 L14.5248227,7.03546099 C14.5248227,6.65963121 14.829844,6.35460993 15.2056738,6.35460993 L18.3829787,6.35460993 C18.7588085,6.35460993 19.0638298,6.65963121 19.0638298,7.03546099 L19.0638298,10.212766 C19.0638298,10.5885957 18.7588085,10.893617 18.3829787,10.893617 Z M15.8865248,9.53191489 L17.7021277,9.53191489 L17.7021277,7.71631206 L15.8865248,7.71631206 L15.8865248,9.53191489 Z" id="Shape" fill="#000000" fill-rule="nonzero"></path>
                <path d="M18.3829787,17.248227 L15.2056738,17.248227 C14.829844,17.248227 14.5248227,16.9432057 14.5248227,16.5673759 L14.5248227,13.3900709 C14.5248227,13.0142411 14.829844,12.7092199 15.2056738,12.7092199 L18.3829787,12.7092199 C18.7588085,12.7092199 19.0638298,13.0142411 19.0638298,13.3900709 L19.0638298,16.5673759 C19.0638298,16.9432057 18.7588085,17.248227 18.3829787,17.248227 Z M15.8865248,15.8865248 L17.7021277,15.8865248 L17.7021277,14.070922 L15.8865248,14.070922 L15.8865248,15.8865248 Z" id="Shape" fill="#000000" fill-rule="nonzero"></path>
                <polygon id="Path" fill="#000000" fill-rule="nonzero" points="11.8014184 4.08510638 13.1631206 4.08510638 13.1631206 19.5177305 11.8014184 19.5177305"></polygon>
                <path d="M8.39716312,8.62411348 L3.40425532,8.62411348 C3.02842553,8.62411348 2.72340426,8.3190922 2.72340426,7.94326241 C2.72340426,7.56743262 3.02842553,7.26241135 3.40425532,7.26241135 L8.39716312,7.26241135 C8.77299291,7.26241135 9.07801418,7.56743262 9.07801418,7.94326241 C9.07801418,8.3190922 8.77299291,8.62411348 8.39716312,8.62411348 Z" id="Path" fill="#000000" fill-rule="nonzero"></path>
                <path d="M8.39716312,12.2553191 L3.40425532,12.2553191 C3.02842553,12.2553191 2.72340426,11.9502979 2.72340426,11.5744681 C2.72340426,11.1986383 3.02842553,10.893617 3.40425532,10.893617 L8.39716312,10.893617 C8.77299291,10.893617 9.07801418,11.1986383 9.07801418,11.5744681 C9.07801418,11.9502979 8.77299291,12.2553191 8.39716312,12.2553191 Z" id="Path" fill="#000000" fill-rule="nonzero"></path>
                <path d="M8.39716312,15.8865248 L3.40425532,15.8865248 C3.02842553,15.8865248 2.72340426,15.5815035 2.72340426,15.2056738 C2.72340426,14.829844 3.02842553,14.5248227 3.40425532,14.5248227 L8.39716312,14.5248227 C8.77299291,14.5248227 9.07801418,14.829844 9.07801418,15.2056738 C9.07801418,15.5815035 8.77299291,15.8865248 8.39716312,15.8865248 Z" id="Path" fill="#000000" fill-rule="nonzero"></path>
                <path d="M19.2907801,19.9716312 L2.4964539,19.9716312 C1.11931915,19.9716312 0,18.8523121 0,17.4751773 L0,2.4964539 C0,1.11931915 1.11931915,0 2.4964539,0 L19.2907801,0 C20.6679149,0 21.787234,1.11931915 21.787234,2.4964539 L21.787234,17.4751773 C21.787234,18.8523121 20.6679149,19.9716312 19.2907801,19.9716312 Z M2.4964539,1.36170213 C1.87097872,1.36170213 1.36170213,1.87097872 1.36170213,2.4964539 L1.36170213,17.4751773 C1.36170213,18.1006525 1.87097872,18.6099291 2.4964539,18.6099291 L19.2907801,18.6099291 C19.9162553,18.6099291 20.4255319,18.1006525 20.4255319,17.4751773 L20.4255319,2.4964539 C20.4255319,1.87097872 19.9162553,1.36170213 19.2907801,1.36170213 L2.4964539,1.36170213 Z" id="Shape" fill="#000000" fill-rule="nonzero"></path>
                <path d="M21.106383,4.53900709 L0.680851064,4.53900709 C0.305021277,4.53900709 0,4.23398582 0,3.85815603 C0,3.48232624 0.305021277,3.17730496 0.680851064,3.17730496 L21.106383,3.17730496 C21.4822128,3.17730496 21.787234,3.48232624 21.787234,3.85815603 C21.787234,4.23398582 21.4822128,4.53900709 21.106383,4.53900709 Z" id="Path" fill="#000000" fill-rule="nonzero"></path>
            </g>
        </g>
    </g>
</svg>