<?xml version="1.0" encoding="UTF-8"?>
<svg width="22px" height="20px" viewBox="0 0 22 20" version="1.1" xmlns="http://www.w3.org/2000/svg" xmlns:xlink="http://www.w3.org/1999/xlink">
    <title>MainMarketplace</title>
    <defs>
        <filter id="filter-1">
            <feColorMatrix in="SourceGraphic" type="matrix" values="0 0 0 0 1.000000 0 0 0 0 1.000000 0 0 0 0 1.000000 0 0 0 1.000000 0"></feColorMatrix>
        </filter>
    </defs>
    <g id="Page-1" stroke="none" stroke-width="1" fill="none" fill-rule="evenodd">
        <g filter="url(#filter-1)" id="Marketplace">
            <g>
                <path d="M19.0638298,0 L2.72340426,0 C1.22190071,0 0,1.22190071 0,2.72340426 L0,8.50609929 C0,10.3235177 1.47880851,11.8014184 3.29622695,11.8014184 C4.27029787,11.8014184 5.13815603,11.3683972 5.74184397,10.6939007 C6.38275177,11.3720284 7.28419858,11.8014184 8.28913475,11.8014184 C9.32675177,11.8014184 10.2499858,11.3411631 10.893617,10.624 C11.5372482,11.3411631 12.4604823,11.8014184 13.4980993,11.8014184 C14.5030355,11.8014184 15.4044823,11.3720284 16.0453901,10.6939007 C16.649078,11.3683972 17.5169362,11.8014184 18.4910071,11.8014184 C20.3084255,11.8014184 21.787234,10.3235177 21.787234,8.50609929 L21.787234,2.72340426 C21.787234,1.22190071 20.5653333,0 19.0638298,0 Z M4.77594326,8.28822695 L4.77594326,8.50519149 C4.77594326,9.32130496 4.11234043,9.98490873 3.29622695,9.98490873 C2.47920567,9.9858156 1.81560284,9.32221277 1.81560284,8.50609929 L1.81560284,5.44680851 L4.77594326,5.44680851 L4.77594326,8.28822695 Z M9.9858156,8.28822695 C9.9858156,9.22417021 9.22417021,9.9858156 8.28913475,9.9858156 C7.35319149,9.9858156 6.5915461,9.22417021 6.5915461,8.28822695 L6.5915461,5.44680851 L9.9858156,5.44680851 L9.9858156,8.28822695 Z M15.1956879,8.28822695 C15.1956879,9.22417021 14.4340426,9.9858156 13.4980993,9.9858156 C12.5630638,9.9858156 11.8014184,9.22417021 11.8014184,8.28822695 L11.8014184,5.44680851 L15.1956879,5.44680851 L15.1956879,8.28822695 Z M19.9716312,8.50609929 C19.9716312,9.32221277 19.3080284,9.9858156 18.4910071,9.9858156 C17.6758014,9.9858156 17.0112908,9.32221277 17.0112908,8.50609929 L17.0112908,8.28822695 L17.0112908,5.44680851 L19.9716312,5.44680851 L19.9716312,8.50609929 Z" id="Shape" fill="#000000" fill-rule="nonzero"></path>
                <path d="M19.9716312,13.3964255 L19.9716312,17.248227 C19.9716312,17.7493333 19.5640284,18.1560284 19.0638298,18.1560284 L2.72340426,18.1560284 C2.22320567,18.1560284 1.81560284,17.7493333 1.81560284,17.248227 L1.81560284,13.3964255 C1.14110638,13.1912624 0.525617021,12.8508369 0,12.4060142 L0,17.248227 C0,18.7497305 1.22190071,19.9716312 2.72340426,19.9716312 L19.0638298,19.9716312 C20.5653333,19.9716312 21.787234,18.7497305 21.787234,17.248227 L21.787234,12.4060142 C21.261617,12.8508369 20.6461277,13.1921702 19.9716312,13.3964255 Z" id="Path" fill="#000000" fill-rule="nonzero"></path>
            </g>
        </g>
    </g>
</svg>