<?xml version="1.0" encoding="UTF-8"?>
<svg width="23px" height="20px" viewBox="0 0 23 20" version="1.1" xmlns="http://www.w3.org/2000/svg" xmlns:xlink="http://www.w3.org/1999/xlink">
    <title>MainServices</title>
    <defs>
        <filter id="filter-1">
            <feColorMatrix in="SourceGraphic" type="matrix" values="0 0 0 0 1.000000 0 0 0 0 1.000000 0 0 0 0 1.000000 0 0 0 1.000000 0"></feColorMatrix>
        </filter>
    </defs>
    <g id="Page-1" stroke="none" stroke-width="1" fill="none" fill-rule="evenodd">
        <g filter="url(#filter-1)" id="Services">
            <g>
                <path d="M22.0944633,6.46101695 C21.880339,6.22610169 21.5771751,6.0920904 21.259209,6.0920904 L1.1299435,6.0920904 C0.812090395,6.0920904 0.508813559,6.22610169 0.294689266,6.46101695 C0.0805649718,6.6959322 -0.0246327684,7.01028249 0.00485875706,7.32677966 L1.07887006,18.8633898 C1.13299435,19.4444068 1.62045198,19.8885876 2.2039548,19.8885876 L20.1851977,19.8885876 C20.7687006,19.8885876 21.2561582,19.4442938 21.3102825,18.8633898 L22.3842938,7.32677966 C22.4137853,7.01028249 22.3085876,6.6959322 22.0944633,6.46101695 Z M14.9633898,17.5223729 C14.9625989,17.5222599 14.9619209,17.5222599 14.9611299,17.5223729 L7.42813559,17.5223729 C6.8040678,17.5223729 6.29819209,17.0163842 6.29819209,16.3924294 C6.29819209,14.8579661 7.54655367,13.6096045 9.08101695,13.6096045 L9.8919774,13.6096045 C9.0579661,13.1488136 8.49163842,12.260452 8.49163842,11.2421469 C8.49163842,9.75175141 9.70418079,8.53909605 11.1946893,8.53909605 C12.6851977,8.53909605 13.8977401,9.75163842 13.8977401,11.2421469 C13.8977401,12.260452 13.3314124,13.1488136 12.4974011,13.6096045 L13.3083616,13.6096045 C14.8115254,13.6096045 16.040113,14.8076836 16.0896045,16.299096 C16.0920904,16.3298305 16.0934463,16.3610169 16.0934463,16.3924294 C16.0933333,17.0164972 15.5874576,17.5223729 14.9633898,17.5223729 Z M20.2153672,3.98847458 C20.2153672,4.45661017 19.8359322,4.8359322 19.3679096,4.8359322 L3.02135593,4.8359322 C2.55333333,4.8359322 2.17389831,4.45661017 2.17389831,3.98847458 C2.17389831,3.52033898 2.55333333,3.14101695 3.02135593,3.14101695 L19.3679096,3.14101695 C19.8359322,3.14101695 20.2153672,3.52033898 20.2153672,3.98847458 Z M17.9780791,0.862259887 C17.9780791,1.33039548 17.5986441,1.70971751 17.1306215,1.70971751 L5.25864407,1.70971751 C4.79062147,1.70971751 4.41118644,1.33039548 4.41118644,0.862259887 C4.41118644,0.394124294 4.79062147,0.0148022599 5.25864407,0.0148022599 L17.1305085,0.0148022599 C17.5986441,0.0148022599 17.9780791,0.394124294 17.9780791,0.862259887 Z" id="Shape" fill="#000000" fill-rule="nonzero"></path>
            </g>
        </g>
    </g>
</svg>