<?xml version="1.0" encoding="UTF-8"?>
<svg width="21px" height="20px" viewBox="0 0 21 20" version="1.1" xmlns="http://www.w3.org/2000/svg" xmlns:xlink="http://www.w3.org/1999/xlink">
    <title>MainCatelog</title>
    <defs>
        <filter id="filter-1">
            <feColorMatrix in="SourceGraphic" type="matrix" values="0 0 0 0 1.000000 0 0 0 0 1.000000 0 0 0 0 1.000000 0 0 0 1.000000 0"></feColorMatrix>
        </filter>
    </defs>
    <g id="Page-1" stroke="none" stroke-width="1" fill="none" fill-rule="evenodd">
        <g filter="url(#filter-1)" id="Catelog">
            <g>
                <path d="M18.8772923,10.0264615 C18.7825231,9.76732308 18.4956923,9.6344 18.2379692,9.72947692 L13.5681231,11.44 L17.3429538,7.66812308 C17.4364308,7.57513846 17.4886154,7.44806154 17.4886154,7.31556923 C17.4886154,7.18363077 17.4363692,7.05673846 17.3429538,6.96295385 L14.4229538,4.04129231 C14.2282462,3.84658462 13.9128,3.84658462 13.7180923,4.04129231 L10.0158154,7.74098462 L12.0922462,2.81544615 C12.1435077,2.6936 12.1441846,2.55630769 12.0948308,2.43396923 C12.0448615,2.31163077 11.9484923,2.21396923 11.8264615,2.16283077 L8.02067692,0.558092308 C7.76670769,0.449846154 7.47433846,0.570461538 7.36756923,0.823692308 L5.31692308,5.68824615 L5.31692308,0.508923077 C5.31692308,0.233723077 5.09366154,0.0104615385 4.81846154,0.0104615385 L0.498461538,0.0104615385 C0.223261538,0.0104615385 0,0.233723077 0,0.508923077 L0,19.4504615 C0,19.7256615 0.223261538,19.9489231 0.498461538,19.9489231 L4.81846154,19.9489231 C4.87932308,19.9489231 4.93710769,19.9362462 4.99095385,19.9164923 C5.04486154,19.9359385 5.10098462,19.9489231 5.15938462,19.9489231 C5.21667692,19.9489231 5.2744,19.9392 5.33089231,19.9184 L20.0014154,14.5437538 C20.2596923,14.4489846 20.3927385,14.1627692 20.2979692,13.9044308 L18.8772923,10.0264615 Z M2.94664615,18.9520615 L0.996923077,18.9520615 L0.996923077,18.1297231 L0.996923077,17.5890462 L0.996923077,17.2190769 L0.996923077,15.9362462 L0.996923077,1.00738462 L4.32,1.00738462 L4.32,8.05298462 L4.32,9.336 L4.32,10.6193231 L4.32,13.4332923 L4.32,14.1374769 L4.32,14.8280615 L4.32,14.8423385 L4.32,17.9304615 L4.32,18.4490462 L4.32,18.6077538 L4.32,18.6356308 L4.32,18.9520615 L4.22990769,18.9520615 L3.9312,18.9520615 L2.94664615,18.9520615 L2.94664615,18.9520615 Z M10.9801231,2.88763077 L8.14658462,9.60910769 L7.63316923,10.8267077 L7.11963077,12.0443077 L6.24307692,14.1234462 L5.7136,15.3790154 L5.31692308,16.3211077 L5.31692308,15.5244308 L5.31692308,14.4629538 L5.31692308,13.8460923 L5.31692308,13.1412308 L5.31692308,12.4370462 L5.31692308,8.25476923 L8.09267692,1.67076923 L10.9801231,2.88763077 Z M6.99341538,14.9100923 L7.52289231,13.6545846 L8.98923077,10.1760615 L14.0699077,5.09876923 L16.2854154,7.31526154 L11.3417231,12.2559385 L9.66461538,13.9316923 L5.76184615,17.8317538 L6.99341538,14.9100923 Z M6.61858462,18.3850462 L11.8907077,13.1164923 L18.1127385,10.8371077 L19.1904615,13.7792 L6.61858462,18.3850462 Z" id="Shape" fill="#000000" fill-rule="nonzero"></path>
                <path d="M2.65846154,16.9026462 C2.63655385,16.9026462 2.61593846,16.9075077 2.59470769,16.9088615 C2.40793846,16.9257231 2.24276923,17.0117538 2.12443077,17.1437538 C2.0464,17.2307692 1.9888,17.3365538 1.96024615,17.4540308 C1.94726154,17.5085538 1.93833846,17.5643692 1.93833846,17.6227692 C1.93833846,17.7811077 1.99089231,17.9258462 2.07723077,18.0446154 C2.20812308,18.2243692 2.41876923,18.3425231 2.65846154,18.3425231 C2.69329231,18.3425231 2.72658462,18.3373538 2.76018462,18.3321231 C2.90393846,18.3116923 3.03353846,18.2493538 3.13661538,18.1568615 C3.1864,18.1120615 3.23033846,18.0614769 3.26621538,18.0043077 C3.32529231,17.9108308 3.36129231,17.8024615 3.37150769,17.6862769 C3.37347692,17.6648615 3.37784742,17.6440615 3.37784742,17.6223385 C3.37858462,17.2248615 3.05618462,16.9026462 2.65846154,16.9026462 Z" id="Path" fill="#000000" fill-rule="nonzero"></path>
            </g>
        </g>
    </g>
</svg>