<?xml version="1.0" encoding="UTF-8"?>
<svg width="27px" height="20px" viewBox="0 0 27 20" version="1.1" xmlns="http://www.w3.org/2000/svg" xmlns:xlink="http://www.w3.org/1999/xlink">
    <title>MainDashboard</title>
    <defs>
        <filter id="filter-1">
            <feColorMatrix in="SourceGraphic" type="matrix" values="0 0 0 0 1.000000 0 0 0 0 1.000000 0 0 0 0 1.000000 0 0 0 1.000000 0"></feColorMatrix>
        </filter>
    </defs>
    <g id="Page-1" stroke="none" stroke-width="1" fill="none" fill-rule="evenodd">
        <g filter="url(#filter-1)" id="Dashboard">
            <g>
                <path d="M13.9177429,14.1366771 C14.5236364,14.1366771 15.0159248,13.642069 15.0159248,13.0355486 C15.0159248,12.4303448 14.5236364,11.939185 13.9177429,11.939185 L8.94213166,8.27956113 L12.8194984,13.1062069 C12.8554859,13.6807524 13.3341693,14.1366771 13.9177429,14.1366771 Z" id="Path" fill="#030104" fill-rule="nonzero"></path>
                <rect id="Rectangle" fill="#030104" fill-rule="nonzero" x="7.96288401" y="17.3791223" width="10.9675862" height="2.60269592"></rect>
                <path d="M22.9548589,3.95341693 C20.415047,1.41366771 17.0383072,0.014984326 13.4466458,0.014984326 C9.85492163,0.014984326 6.47811912,1.41366771 3.93836991,3.95341693 C1.39862069,6.49316614 0,9.86990596 0,13.4616301 C0,15.7807524 0.584263323,18.0095298 1.68125392,19.9818182 L4.19448276,19.9818182 L6.03266458,18.9204389 L5.22087774,17.5142947 L2.85724138,18.8790596 C2.02219436,17.2532288 1.55047022,15.4115361 1.55047022,13.4616301 C1.55047022,13.1165517 1.5661442,12.775047 1.59504702,12.4373041 L4.41335423,12.934232 L4.69529781,11.3352351 L1.84382445,10.8324765 C2.35335423,8.58275862 3.50219436,6.57310345 5.08865204,5.00501567 L7.02062696,7.30752351 L8.26445141,6.26388715 L6.31780564,3.94401254 C8.10282132,2.60363636 10.275674,1.75354232 12.6348589,1.5938558 L12.6348589,4.67329154 L14.2584326,4.67329154 L14.2584326,1.5938558 C16.6176176,1.75366771 18.7904702,2.60369906 20.5755486,3.94407524 L18.6288401,6.26388715 L19.8726019,7.30752351 L21.8046395,5.00495298 C23.3910345,6.57310345 24.5398746,8.58275862 25.0494044,10.8324138 L22.1979937,11.3352978 L22.48,12.9341693 L25.2981191,12.4371787 C25.3270219,12.7749843 25.3426959,13.1164263 25.3426959,13.4615047 C25.3426959,15.4115361 24.8711599,17.2532915 24.0359875,18.8789969 L21.6722884,17.5143574 L20.8605643,18.9204389 L22.6986834,19.9818182 L25.2120376,19.9818182 C26.3090909,18.0094044 26.8932915,15.780627 26.8932915,13.4615047 C26.8932915,9.86984326 25.4945455,6.49304075 22.9548589,3.95341693 Z" id="Path" fill="#030104" fill-rule="nonzero"></path>
            </g>
        </g>
    </g>
</svg>