<?xml version="1.0" encoding="UTF-8"?>
<svg width="22px" height="20px" viewBox="0 0 22 20" version="1.1" xmlns="http://www.w3.org/2000/svg" xmlns:xlink="http://www.w3.org/1999/xlink">
    <title>MainSales</title>
    <defs>
        <filter id="filter-1">
            <feColorMatrix in="SourceGraphic" type="matrix" values="0 0 0 0 1.000000 0 0 0 0 1.000000 0 0 0 0 1.000000 0 0 0 1.000000 0"></feColorMatrix>
        </filter>
    </defs>
    <g id="Page-1" stroke="none" stroke-width="1" fill="none" fill-rule="evenodd">
        <g filter="url(#filter-1)" id="Sales">
            <g>
                <path d="M12.7777778,5.55555556 L10.5555556,5.55555556 L10.5555556,3.88888889 C10.5555556,1.74111486 8.81444069,0 6.66666667,0 C4.51889264,0 2.77777778,1.74111486 2.77777778,3.88888889 L2.77777778,5.55555556 L0.555555556,5.55555556 C0.248730695,5.55555556 0,5.80428625 0,6.11111111 L0,18.3333333 C0.00274566759,19.2526682 0.747331778,19.9972543 1.66666667,20 L8.88888889,20 L8.88888889,18.8888889 L1.66666667,18.8888889 C1.35984181,18.8888889 1.11111111,18.6401582 1.11111111,18.3333333 L1.11111111,17.7777778 L8.88888889,17.7777778 L8.88888889,16.6666667 L1.11111111,16.6666667 L1.11111111,6.66666667 L2.77777778,6.66666667 L2.77777778,8.33333333 L3.88888889,8.33333333 L3.88888889,6.66666667 L9.44444444,6.66666667 L9.44444444,8.33333333 L10.5555556,8.33333333 L10.5555556,6.66666667 L12.2222222,6.66666667 L12.2222222,8.33333333 L13.3333333,8.33333333 L13.3333333,6.11111111 C13.3333333,5.80428625 13.0846026,5.55555556 12.7777778,5.55555556 L12.7777778,5.55555556 Z M9.44444444,5.55555556 L3.88888889,5.55555556 L3.88888889,3.88888889 C3.88888889,2.35476458 5.13254236,1.11111111 6.66666667,1.11111111 C8.20079097,1.11111111 9.44444444,2.35476458 9.44444444,3.88888889 L9.44444444,5.55555556 Z" id="Shape" fill="#000000" fill-rule="nonzero"></path>
                <path d="M20.5555556,9.44444444 L10.5555556,9.44444444 C10.2487307,9.44444444 10,9.69317514 10,10 L10,18.3333333 C10.0027457,19.2526682 10.7473318,19.9972543 11.6666667,20 L19.4444444,20 C20.3637793,19.9972543 21.1083654,19.2526682 21.1111111,18.3333333 L21.1111111,10 C21.1111111,9.69317514 20.8623804,9.44444444 20.5555556,9.44444444 L20.5555556,9.44444444 Z M20,18.3333333 C20,18.6401582 19.7512693,18.8888889 19.4444444,18.8888889 L11.6666667,18.8888889 C11.3598418,18.8888889 11.1111111,18.6401582 11.1111111,18.3333333 L11.1111111,17.7777778 L20,17.7777778 L20,18.3333333 Z M20,16.6666667 L11.1111111,16.6666667 L11.1111111,10.5555556 L20,10.5555556 L20,16.6666667 Z" id="Shape" fill="#000000" fill-rule="nonzero"></path>
                <path d="M15.5555556,15.5555556 C17.0889184,15.5537188 18.3314966,14.3111406 18.3333333,12.7777778 L18.3333333,11.6666667 L17.2222222,11.6666667 L17.2222222,12.7777778 C17.2222222,13.6982524 16.4760301,14.4444444 15.5555556,14.4444444 C14.635081,14.4444444 13.8888889,13.6982524 13.8888889,12.7777778 L13.8888889,11.6666667 L12.7777778,11.6666667 L12.7777778,12.7777778 C12.7796145,14.3111406 14.0221927,15.5537188 15.5555556,15.5555556 L15.5555556,15.5555556 Z" id="Path" fill="#000000" fill-rule="nonzero"></path>
            </g>
        </g>
    </g>
</svg>