<?xml version="1.0" encoding="UTF-8"?>
<svg width="40px" height="21px" viewBox="0 0 40 21" version="1.1" xmlns="http://www.w3.org/2000/svg" xmlns:xlink="http://www.w3.org/1999/xlink">
    <title>MainCustomers</title>
    <defs>
        <filter id="filter-1">
            <feColorMatrix in="SourceGraphic" type="matrix" values="0 0 0 0 1.000000 0 0 0 0 1.000000 0 0 0 0 1.000000 0 0 0 1.000000 0"></feColorMatrix>
        </filter>
    </defs>
    <g id="Page-1" stroke="none" stroke-width="1" fill="none" fill-rule="evenodd">
        <g filter="url(#filter-1)" id="Customers">
            <g transform="translate(1.000000, 0.000000)">
                <path d="M15.5719557,3.32103321 C15.5719557,5.15221402 17.0618081,6.64206642 18.8929889,6.64206642 C20.7241697,6.64206642 22.2140221,5.15221402 22.2140221,3.32103321 C22.2140221,1.4898524 20.7241697,0 18.8929889,0 C17.0618081,0 15.5719557,1.4898524 15.5719557,3.32103321 Z" id="Path" fill="#000000" fill-rule="nonzero"></path>
                <path d="M18.8929889,8.85608856 C15.230339,8.85608856 12.2509225,11.8355051 12.2509225,15.498155 L12.2509225,20 L25.5350554,20 L25.5350554,15.498155 C25.5350554,11.8355051 22.5556388,8.85608856 18.8929889,8.85608856 Z" id="Path" fill="#000000" fill-rule="nonzero"></path>
                <path d="M10.0369004,5.53505535 C10.0369004,3.70387454 8.54704797,2.21402214 6.71586716,2.21402214 C4.88468635,2.21402214 3.39483395,3.70387454 3.39483395,5.53505535 C3.39483395,7.36623616 4.88468635,8.85608856 6.71586716,8.85608856 C8.54704797,8.85608856 10.0369004,7.36623616 10.0369004,5.53505535 Z" id="Path" stroke="#FFFFFF" fill-rule="nonzero"></path>
                <path d="M34.3911439,5.53505535 C34.3911439,3.70387454 32.9012915,2.21402214 31.0701107,2.21402214 C29.2389299,2.21402214 27.7490775,3.70387454 27.7490775,5.53505535 C27.7490775,7.36623616 29.2389299,8.85608856 31.0701107,8.85608856 C32.9012915,8.85608856 34.3911439,7.36623616 34.3911439,5.53505535 Z" id="Path" stroke="#FFFFFF" fill-rule="nonzero"></path>
                <path d="M31.0701107,11.0701107 C29.5987085,11.0701107 28.2521333,11.5639414 27.1514645,12.3734432 C27.5219096,13.3487085 27.7490775,14.3946033 27.7490775,15.498155 L27.7490775,20 L37.7859779,20 L37.7859779,17.7121771 C37.7859779,14.0437615 34.7385263,11.0701107 31.0701107,11.0701107 Z" id="Path" stroke="#FFFFFF" fill-rule="nonzero"></path>
                <path d="M0,17.7121771 L0,20 L10.0369004,20 L10.0369004,15.498155 C10.0369004,14.3946033 10.2640683,13.3487085 10.6345134,12.3734432 C9.53384458,11.5639414 8.18726937,11.0701107 6.71586716,11.0701107 C3.04745159,11.0701107 0,14.0437615 0,17.7121771 Z" id="Path" stroke="#FFFFFF" fill-rule="nonzero"></path>
            </g>
        </g>
    </g>
</svg>