<?xml version="1.0" encoding="UTF-8"?>
<svg width="16px" height="20px" viewBox="0 0 16 20" version="1.1" xmlns="http://www.w3.org/2000/svg" xmlns:xlink="http://www.w3.org/1999/xlink">
    <title>Multivendor  report</title>
    <defs>
        <filter id="filter-1">
            <feColorMatrix in="SourceGraphic" type="matrix" values="0 0 0 0 1.000000 0 0 0 0 1.000000 0 0 0 0 1.000000 0 0 0 1.000000 0"></feColorMatrix>
        </filter>
    </defs>
    <g id="Page-1" stroke="none" stroke-width="1" fill="none" fill-rule="evenodd">
        <g filter="url(#filter-1)" id="report">
            <g>
                <path d="M15.9375,19.21875 L15.9375,11.1328125 C15.9375,10.9171094 15.7626172,10.7421875 15.546875,10.7421875 L13.046875,10.7421875 C12.8311328,10.7421875 12.65625,10.9171094 12.65625,11.1328125 L12.65625,19.21875 L11.875,19.21875 L11.875,13.8671875 C11.875,13.6514844 11.7001172,13.4765625 11.484375,13.4765625 L8.984375,13.4765625 C8.76863281,13.4765625 8.59375,13.6514844 8.59375,13.8671875 L8.59375,19.21875 L7.8125,19.21875 L7.8125,16.1083984 C7.8125,15.8926953 7.63761719,15.7177734 7.421875,15.7177734 L4.921875,15.7177734 C4.70613281,15.7177734 4.53125,15.8926953 4.53125,16.1083984 L4.53125,19.21875 L1.171875,19.21875 C0.956484375,19.21875 0.78125,19.0435156 0.78125,18.828125 L0.78125,1.171875 C0.78125,0.956484375 0.956484375,0.78125 1.171875,0.78125 L11.2490234,0.78125 L11.2490234,3.35949219 C11.2490234,4.00566406 11.7747266,4.53136719 12.4208984,4.53136719 L14.9990234,4.53136719 L14.9990234,9.3359375 C14.9990234,9.55164062 15.1739062,9.7265625 15.3896484,9.7265625 C15.6053906,9.7265625 15.7802734,9.55164062 15.7802734,9.3359375 L15.7802734,4.14074219 C15.7802734,4.03714844 15.7391016,3.9378125 15.6658594,3.86453125 L11.9158594,0.114414063 C11.8425781,0.041171875 11.7432422,0 11.6396484,0 L1.171875,0 C0.525703125,0 0,0.525703125 0,1.171875 L0,18.828125 C0,19.4742969 0.525703125,20 1.171875,20 L15.9375,19.21875 Z M12.0302734,1.33371094 L14.4466406,3.75011719 L12.4208984,3.75011719 C12.2054688,3.75011719 12.0302734,3.57488281 12.0302734,3.35949219 L12.0302734,1.33371094 Z" id="Shape" fill="#000000" fill-rule="nonzero"></path>
                <path d="M5.68660156,2.13785156 C5.47085937,2.13785156 5.29597656,2.31277344 5.29597656,2.52847656 L5.29597656,3.23117188 C3.49789062,3.42636719 2.09382812,4.95371094 2.09382812,6.80285156 C2.09382812,8.78390625 3.70554687,10.395625 5.68660156,10.395625 C7.53574219,10.395625 9.06308594,8.99160156 9.25828125,7.19347656 L9.9609375,7.19347656 C10.1766797,7.19347656 10.3515625,7.01855469 10.3515625,6.80285156 C10.3515625,4.23054688 8.25886719,2.13785156 5.68660156,2.13785156 Z M5.29597656,4.01835938 L5.29597656,6.8028125 C5.29597656,7.01851563 5.47085937,7.1934375 5.68660156,7.1934375 L8.47105469,7.1934375 C8.2803125,8.55945313 7.10429687,9.61433594 5.68660156,9.61433594 C4.13632812,9.61433594 2.87507812,8.35308594 2.87507812,6.8028125 C2.87507812,5.38511719 3.92996094,4.20910156 5.29597656,4.01835938 Z" id="Shape" fill="#000000" fill-rule="nonzero"></path>
            </g>
        </g>
    </g>
</svg>