<?xml version="1.0" encoding="UTF-8"?>
<svg width="20px" height="20px" viewBox="0 0 20 20" version="1.1" xmlns="http://www.w3.org/2000/svg" xmlns:xlink="http://www.w3.org/1999/xlink">
    <title>Multivendor  sales</title>
    <defs>
        <filter id="filter-1">
            <feColorMatrix in="SourceGraphic" type="matrix" values="0 0 0 0 1.000000 0 0 0 0 1.000000 0 0 0 0 1.000000 0 0 0 1.000000 0"></feColorMatrix>
        </filter>
    </defs>
    <g id="Page-1" stroke="none" stroke-width="1" fill="none" fill-rule="evenodd">
        <g filter="url(#filter-1)" id="sales">
            <g>
                <path d="M20,7.109375 L20,9.0234375 C20,9.45495605 19.6502686,9.8046875 19.21875,9.8046875 C18.7872314,9.8046875 18.4375,9.45495605 18.4375,9.0234375 L18.4375,7.86270141 L10.81604,15.4840088 C10.5110168,15.7891846 10.0163269,15.7891846 9.71130371,15.4840088 L7.12738039,12.9000855 L4.40765383,15.700531 C4.25445555,15.8583069 4.05090332,15.9375 3.84719848,15.9375 C3.65097047,15.9375 3.45474242,15.8641052 3.3029175,15.7167053 C2.99346922,15.4161072 2.986145,14.9215698 3.28674316,14.611969 L6.55868531,11.2428284 C6.70440672,11.0928345 6.9041443,11.0073852 7.11334227,11.0058594 L7.11914062,11.0058594 C7.32620238,11.0058594 7.52502441,11.0881043 7.67150879,11.2347412 L10.2636719,13.8269043 L17.3716736,6.71875 L16.09375,6.71875 C15.6622314,6.71875 15.3125,6.36901855 15.3125,5.9375 C15.3125,5.50598145 15.6622314,5.15625 16.09375,5.15625 L18.046875,5.15625 C19.1238403,5.15625 20,6.03240969 20,7.109375 Z M19.21875,11.3671875 C18.7872314,11.3671875 18.4375,11.7169189 18.4375,12.1484375 L18.4375,16.875 C18.4375,17.7365112 17.7365112,18.4375 16.875,18.4375 L3.125,18.4375 C2.26348875,18.4375 1.5625,17.7365112 1.5625,16.875 L1.5625,6.71875 L6.09375,6.71875 L6.09375,8.3203125 C6.09375,8.75183105 6.44348145,9.1015625 6.875,9.1015625 C7.30651855,9.1015625 7.65625,8.75183105 7.65625,8.3203125 L7.65625,3.90625 C7.65625,2.61383055 8.70758055,1.5625 10,1.5625 C11.2924195,1.5625 12.34375,2.61383055 12.34375,3.90625 L12.34375,5.15625 L10.0390625,5.15625 C9.60754395,5.15625 9.2578125,5.50598145 9.2578125,5.9375 C9.2578125,6.36901855 9.60754395,6.71875 10.0390625,6.71875 L12.34375,6.71875 L12.34375,8.3203125 C12.34375,8.75183105 12.6934814,9.1015625 13.125,9.1015625 C13.5565186,9.1015625 13.90625,8.75183105 13.90625,8.3203125 L13.90625,3.90625 C13.90625,1.75231934 12.1539307,0 10,0 C7.84606934,0 6.09375,1.75231934 6.09375,3.90625 L6.09375,5.15625 L0.78125,5.15625 C0.349731445,5.15625 0,5.50598145 0,5.9375 L0,16.875 C0,18.598175 1.40182496,20 3.125,20 L16.875,20 C18.598175,20 20,18.598175 20,16.875 L20,12.1484375 C20,11.7169189 19.6502686,11.3671875 19.21875,11.3671875 Z" id="Shape" fill="#000000" fill-rule="nonzero"></path>
            </g>
        </g>
    </g>
</svg>