<?xml version="1.0" encoding="UTF-8"?>
<svg width="25px" height="20px" viewBox="0 0 25 20" version="1.1" xmlns="http://www.w3.org/2000/svg" xmlns:xlink="http://www.w3.org/1999/xlink">
    <title>Multivendor  dashboard</title>
    <defs>
        <filter id="filter-1">
            <feColorMatrix in="SourceGraphic" type="matrix" values="0 0 0 0 1.000000 0 0 0 0 1.000000 0 0 0 0 1.000000 0 0 0 1.000000 0"></feColorMatrix>
        </filter>
    </defs>
    <g id="Page-1" stroke="none" stroke-width="1" fill="none" fill-rule="evenodd">
        <g filter="url(#filter-1)" id="dashboard">
            <g>
                <polygon id="Path" fill="#000000" fill-rule="nonzero" points="3.40644054 2.2195122 5.89424541 2.2195122 5.89424541 3.68292683 3.40644054 3.68292683"></polygon>
                <polygon id="Path" fill="#000000" fill-rule="nonzero" points="3.40644054 4.70731707 5.89424541 4.70731707 5.89424541 6.17073171 3.40644054 6.17073171"></polygon>
                <polygon id="Path" fill="#000000" fill-rule="nonzero" points="11.2439024 2.2195122 13.7317073 2.2195122 13.7317073 3.68292683 11.2439024 3.68292683"></polygon>
                <polygon id="Path" fill="#000000" fill-rule="nonzero" points="11.2439024 4.70731707 13.7317073 4.70731707 13.7317073 6.17073171 11.2439024 6.17073171"></polygon>
                <path d="M0,0 C0,5.90262956 0,14.1137576 0,20 L24.9756098,20 C24.9756098,18.9193979 24.9756098,1.1410061 24.9756098,0 C24.1716844,0 0.584032,0 0,0 Z M9.30087654,1.46341463 L15.6749238,1.46341463 L15.6749238,6.92682927 L9.30087654,6.92682927 L9.30087654,1.46341463 Z M1.46341463,1.46341463 L7.8374619,1.46341463 L7.8374619,6.92682927 L1.46341463,6.92682927 L1.46341463,1.46341463 Z M23.5121951,18.5365854 L1.46341463,18.5365854 L1.46341463,8.3902439 C3.68883385,8.3902439 21.2936357,8.3902439 23.5121951,8.3902439 L23.5121951,18.5365854 Z M17.1381479,6.92682927 L17.1381479,1.46341463 L23.5121951,1.46341463 L23.5121951,6.92682927 L17.1381479,6.92682927 Z" id="Shape" fill="#000000" fill-rule="nonzero"></path>
                <polygon id="Path" fill="#000000" fill-rule="nonzero" points="19.0813643 2.2195122 21.5691692 2.2195122 21.5691692 3.68292683 19.0813643 3.68292683"></polygon>
                <polygon id="Path" fill="#000000" fill-rule="nonzero" points="19.0813643 4.70731707 21.5691692 4.70731707 21.5691692 6.17073171 19.0813643 6.17073171"></polygon>
                <polygon id="Path" fill="#000000" fill-rule="nonzero" points="13.1768293 10.808689 9.3639482 14.6215701 7.61185215 12.8696646 4.19207317 16.2894436 5.22675307 17.324314 7.61185215 14.9392149 9.3639482 16.691311 13.1768293 12.8782393 15.8597561 15.5611661 20.7835366 10.6373857 19.7488567 9.60251522 15.8597561 13.4916159"></polygon>
            </g>
        </g>
    </g>
</svg>