<?xml version="1.0" encoding="UTF-8"?>
<svg width="22px" height="23px" viewBox="0 0 22 23" version="1.1" xmlns="http://www.w3.org/2000/svg" xmlns:xlink="http://www.w3.org/1999/xlink">
    <title>Multivendor - salesorder-list</title>
    <defs>
        <filter id="filter-1">
            <feColorMatrix in="SourceGraphic" type="matrix" values="0 0 0 0 1.000000 0 0 0 0 1.000000 0 0 0 0 1.000000 0 0 0 1.000000 0"></feColorMatrix>
        </filter>
    </defs>
    <g id="Page-1" stroke="none" stroke-width="1" fill="none" fill-rule="evenodd">
        <g filter="url(#filter-1)" id="order-list">
            <g>
                <path d="M11.9767109,10.6015176 C12.1339375,8.55146289 13.8599707,6.93005273 15.9630781,6.91850781 L15.9630781,0.673828125 C15.9630781,0.301695312 15.6613828,0 15.28925,0 L0.689640625,0 C0.317507813,0 0.0158125,0.301695312 0.0158125,0.673828125 L0.0158125,17.7890625 C0.0158125,18.1611953 0.317507813,18.4628906 0.689640625,18.4628906 L9.3462207,18.4628906 L9.3462207,12.5867051 C9.3462207,11.4920488 10.236752,10.6015176 11.3314082,10.6015176 L11.9767109,10.6015176 Z M6.75409375,2.71777344 L12.7735801,2.71777344 C13.1457129,2.71777344 13.4474082,3.01946875 13.4474082,3.39160156 C13.4474082,3.76373438 13.1457129,4.06542969 12.7735801,4.06542969 L6.75409375,4.06542969 C6.38196094,4.06542969 6.08026563,3.76373438 6.08026563,3.39160156 C6.08026563,3.01946875 6.38196094,2.71777344 6.75409375,2.71777344 Z M4.54564453,11.3302402 L3.24924414,12.7228184 C3.12153125,12.8599648 2.94274219,12.9375 2.7560918,12.9375 C2.74791602,12.9375 2.73978516,12.9373652 2.73156445,12.9370508 C2.53606445,12.9299531 2.35336719,12.8382227 2.23082031,12.6857578 L1.69175781,12.0150293 C1.4586582,11.7249688 1.50483789,11.3008164 1.79489844,11.0677168 C2.08495898,10.8346172 2.50906641,10.880752 2.74225586,11.1708125 L2.79351172,11.2345566 L3.55933984,10.4119023 C3.81296875,10.139541 4.23936719,10.1242676 4.51163867,10.3778516 C4.784,10.6314805 4.79922852,11.057834 4.54564453,11.3302402 L4.54564453,11.3302402 Z M4.54564453,7.24234961 L3.24924414,8.63492773 C3.12153125,8.77207422 2.94274219,8.84960938 2.7560918,8.84960938 C2.74791602,8.84960938 2.73978516,8.84947461 2.73156445,8.84916016 C2.53606445,8.8420625 2.35336719,8.75033203 2.23082031,8.59786719 L1.69175781,7.92713867 C1.4586582,7.63707813 1.50483789,7.21292578 1.79489844,6.97982617 C2.08495898,6.74668164 2.50906641,6.79290625 2.74225586,7.08292187 L2.79351172,7.14666602 L3.55933984,6.32401172 C3.81296875,6.05165039 4.23936719,6.03642188 4.51163867,6.28996094 C4.784,6.54358984 4.79922852,6.96994336 4.54564453,7.24234961 Z M4.54564453,3.15445898 L3.24924414,4.54703711 C3.12153125,4.68418359 2.94274219,4.76171875 2.7560918,4.76171875 C2.74791602,4.76171875 2.73978516,4.76158398 2.73156445,4.76126953 C2.53606445,4.75417187 2.35336719,4.66244141 2.23082031,4.50997656 L1.69175781,3.83924805 C1.4586582,3.5491875 1.50483789,3.12503516 1.79489844,2.89193555 C2.08495898,2.65879102 2.50906641,2.70501563 2.74225586,2.99503125 L2.79351172,3.05877539 L3.55933984,2.23612109 C3.81296875,1.96375977 4.23936719,1.94853125 4.51163867,2.20207031 C4.784,2.45569922 4.79922852,2.88205273 4.54564453,3.15445898 Z M7.87700586,12.2412109 L6.75409375,12.2412109 C6.38196094,12.2412109 6.08026563,11.9395156 6.08026563,11.5673828 C6.08026563,11.19525 6.38196094,10.8935547 6.75409375,10.8935547 L7.87700586,10.8935547 C8.24913867,10.8935547 8.55083398,11.19525 8.55083398,11.5673828 C8.55083398,11.9395156 8.24913867,12.2412109 7.87700586,12.2412109 Z M10.5274414,8.15332031 L6.75409375,8.15332031 C6.38196094,8.15332031 6.08026563,7.851625 6.08026563,7.47949219 C6.08026563,7.10735937 6.38196094,6.80566406 6.75409375,6.80566406 L10.5274414,6.80566406 C10.8995742,6.80566406 11.2012695,7.10735937 11.2012695,7.47949219 C11.2012695,7.851625 10.8995742,8.15332031 10.5274414,8.15332031 L10.5274414,8.15332031 Z" id="Shape" fill="#000000" fill-rule="nonzero"></path>
                <path d="M20.639625,11.9491738 L18.6583906,11.9491738 L18.6583906,13.5978516 C18.6583906,13.9699844 18.3566953,14.2716797 17.9845625,14.2716797 C17.6124297,14.2716797 17.3107344,13.9699844 17.3107344,13.5978516 L17.3107344,11.9491738 L14.6603437,11.9491738 L14.6603437,13.5978516 C14.6603437,13.9699844 14.3586484,14.2716797 13.9865156,14.2716797 C13.6143828,14.2716797 13.3126875,13.9699844 13.3126875,13.5978516 L13.3126875,11.9491738 L11.3314082,11.9491738 C10.9793105,11.9491738 10.693877,12.2346074 10.693877,12.5867051 L10.693877,20.5046797 C10.693877,21.8805918 11.8150371,23 13.1930605,23 L18.7780176,23 C20.1560859,23 21.2772012,21.8805918 21.2772012,20.5046797 L21.2772012,12.5867051 C21.2772012,12.2346074 20.9917227,11.9491738 20.639625,11.9491738 Z" id="Path" fill="#000000" fill-rule="nonzero"></path>
                <path d="M14.6603437,10.9070312 C14.6603437,10.1936719 15.2547949,9.61328125 15.9855391,9.61328125 C16.7162832,9.61328125 17.3107344,10.193627 17.3107344,10.9070312 L17.3107344,11.9491738 L18.6583906,11.9491738 L18.6583906,10.9070312 C18.6583906,9.45057422 17.4593809,8.265625 15.9855391,8.265625 C14.5116973,8.265625 13.3126875,9.4505293 13.3126875,10.9070312 L13.3126875,11.9491738 L14.6603437,11.9491738 L14.6603437,10.9070312 Z" id="Path" fill="#000000" fill-rule="nonzero"></path>
            </g>
        </g>
    </g>
</svg>