<svg xmlns="http://www.w3.org/2000/svg" width="22" height="15" viewBox="0 0 22 15">
    <g fill="none" fill-rule="evenodd">
        <g fill="#FFF" fill-rule="nonzero">
            <g>
                <g>
                    <path d="M14.99 5.402c-.006-.032-.015-.063-.029-.094-.012-.03-.027-.059-.046-.086-.017-.027-.038-.053-.061-.076s-.049-.044-.076-.062c-.027-.018-.056-.033-.087-.046-.03-.012-.062-.022-.093-.028-.065-.013-.131-.013-.196 0-.031.006-.063.016-.093.028-.03.013-.06.028-.086.046-.028.018-.054.04-.077.062-.023.023-.044.049-.062.076-.018.027-.033.056-.045.086-.013.03-.023.062-.029.094-.006.032-.01.065-.01.098 0 .032.004.065.01.097s.016.064.029.094c.012.03.027.06.046.086.017.028.038.053.061.076s.049.044.076.062c.027.018.056.034.087.046.03.013.062.022.094.029.031.006.064.01.097.01s.066-.004.098-.01c.031-.007.063-.016.093-.029.03-.012.06-.028.086-.046.028-.018.054-.039.077-.062s.044-.048.062-.076c.018-.027.033-.056.045-.086.014-.03.023-.062.03-.094.006-.032.009-.065.009-.097 0-.033-.003-.066-.01-.098z" transform="translate(-570 -73) translate(570 72) translate(0 1)"/>
                    <path d="M21.544 1.58h-2.712c-.252 0-.456.21-.456.468v.403h-1.272c-.252 0-.456.209-.456.466v.135c-.742-.066-.986-.21-1.666-.612-.524-.31-1.316-.776-2.74-1.432L12.221 1c-.465-.186-1.68-.554-2.98.048l-1.835.673L5.86.137c-.178-.183-.467-.183-.645 0L.135 5.335c-.164.168-.196.46 0 .66l8.68 8.882c.139.142.464.185.645 0l4.637-4.746c.121.011.246.017.376.017 1.192 0 2.246-.837 2.849-1.749h4.222c.252 0 .456-.209.456-.466V2.048c0-.258-.204-.467-.456-.467zM5.537 1.128l1.04 1.064c-.31.195-.666.3-1.04.3-.373 0-.73-.105-1.04-.3l1.04-1.064zM2.143 6.728l-1.04-1.063L2.143 4.6c.19.316.293.682.293 1.064s-.102.747-.293 1.063zm6.995 7.159l-1.04-1.064c.635-.4 1.444-.4 2.079 0l-1.04 1.064zm1.696-1.737c-1.008-.748-2.385-.748-3.393 0L2.8 7.4c.356-.5.548-1.103.548-1.735 0-.633-.192-1.235-.548-1.737l1.04-1.065c.49.365 1.079.562 1.697.562.619 0 1.207-.197 1.697-.562l.987 1.01c-.213.032-.42.104-.614.214-.327.187-.584.466-.744.804-.514.097-.99.352-1.364.734-1.014 1.038-1.014 2.726 0 3.763.507.519 1.173.778 1.838.778.666 0 1.332-.26 1.84-.778.329-.337.56-.752.676-1.204l1.54.535c-.174.822.004 1.686.483 2.365l-1.042 1.066zM8.061 7.561l.012.005.912.317c-.069.318-.225.61-.454.845-.658.673-1.729.673-2.387 0-.658-.673-.658-1.77 0-2.443.159-.162.346-.29.55-.375.084.717.589 1.356 1.367 1.651zm4.472 2.85c-.176-.293-.276-.628-.291-.97.218.162.485.32.804.446l-.513.525zm4.115-2.664c-.433.725-1.271 1.467-2.175 1.467-.17 0-.328-.012-.476-.034h-.002c-.985-.147-1.515-.72-1.69-.947l-.054-.076c-.053-.097-.14-.175-.252-.213l-3.626-1.26c-.579-.222-.885-.73-.745-1.235v-.001-.001c.066-.233.216-.427.423-.544.205-.118.443-.147.67-.082l4.086 1.325c.24.078.497-.058.573-.304.076-.246-.057-.508-.297-.586l-3.25-1.054-.029-.03L8.12 2.45l1.446-.53.016-.006.004-.002.019-.008c.978-.46 1.907-.185 2.271-.04 1.377.634 2.112 1.068 2.649 1.384.746.441 1.106.653 2.122.74v3.759zm1.728-.281h-.816V3.384h.816v4.082zm2.712 0h-1.8V2.514h1.8v4.952z" transform="translate(-570 -73) translate(570 72) translate(0 1)"/>
                </g>
            </g>
        </g>
    </g>
</svg>
