<?xml version="1.0" encoding="UTF-8"?>
<svg width="36px" height="20px" viewBox="0 0 36 20" version="1.1" xmlns="http://www.w3.org/2000/svg" xmlns:xlink="http://www.w3.org/1999/xlink">
    <title>Multivendor  payments</title>
    <defs>
        <filter id="filter-1">
            <feColorMatrix in="SourceGraphic" type="matrix" values="0 0 0 0 1.000000 0 0 0 0 1.000000 0 0 0 0 1.000000 0 0 0 1.000000 0"></feColorMatrix>
        </filter>
    </defs>
    <g id="Page-1" stroke="none" stroke-width="1" fill="none" fill-rule="evenodd">
        <g filter="url(#filter-1)" id="payments">
            <g>
                <path d="M24.2612592,4.70588235 L21.1058134,1.55072382 C20.1151769,0.554342794 18.7672335,-0.00402113971 17.3624196,-2.15695114e-05 L9.96696919,-2.15695114e-05 C9.51056985,0.000574448529 9.06048941,0.107134632 8.65176926,0.310489412 L7.33340993,0.969956324 C7.0691636,1.10294118 6.77562044,1.16641772 6.48006662,1.15464154 L5.88235294,1.13367419 L5.88235294,-2.15695114e-05 L0,-2.15695114e-05 L0,12.9411765 L5.88235294,12.9411765 L5.88235294,11.1764706 L6.88246779,11.1764706 L7.23833868,11.4117073 C8.23414522,12.0728975 9.39366956,12.446289 10.5882353,12.4899471 L10.5882353,20 L35.2941176,20 L35.2941176,4.70588235 L24.2612592,4.70588235 Z M4.70588235,11.7647059 L1.17647059,11.7647059 L1.17647059,1.17647059 L4.70588235,1.17647059 L4.70588235,11.7647059 Z M29.147,6.98 L29.147,8.179 L29.4418272,8.20901235 C30.5977778,8.35133333 30.5977778,8.35133333 31.38,8.85 L31.38,8.85 L30.83,10.203 L30.5936122,10.0754898 C29.8824286,9.71585714 29.8824286,9.71585714 29.147,9.631 L29.147,9.631 L29.147,11.501 L29.44554,11.57338 C30.0237,11.7221 30.0237,11.7221 30.4505,11.9025 C30.984,12.128 30.984,12.128 31.347,12.5735 C31.71,13.019 31.71,13.019 31.71,13.745 C31.71,14.647 31.71,14.647 31.05,15.2905 C30.39,15.934 30.39,15.934 29.147,16.088 L29.147,16.088 L29.147,17.32 L28.047,17.32 L28.047,16.121 L27.72448,16.09548 C27.0856,16.0286 27.0856,16.0286 26.496,15.835 C25.759,15.593 25.759,15.593 25.308,15.241 L25.308,15.241 L25.913,13.899 L26.08592,14.01824 C26.4432,14.2488 26.4432,14.2488 26.892,14.416 C27.453,14.625 27.453,14.625 28.047,14.68 L28.047,14.68 L28.047,12.843 L27.74428,12.76644 C27.1582,12.6098 27.1582,12.6098 26.727,12.425 C26.188,12.194 26.188,12.194 25.825,11.7485 C25.462,11.303 25.462,11.303 25.462,10.566 C25.462,9.653 25.462,9.653 26.1275,8.9985 C26.793,8.344 26.793,8.344 28.047,8.201 L28.047,8.201 L28.047,6.98 L29.147,6.98 Z M29.147,13.118 L29.147,14.636 C29.543,14.548 29.543,14.548 29.741,14.35 C29.939,14.152 29.939,14.152 29.939,13.877 C29.939,13.602 29.939,13.602 29.7355,13.426 C29.532,13.25 29.532,13.25 29.147,13.118 L29.147,13.118 Z M17.3624196,1.17645347 C18.4550207,1.1733111 19.5036765,1.60759419 20.2740119,2.38223809 L22.5976562,4.70588235 L17.7435662,4.70588235 L16.3157743,3.27837779 L15.4842601,4.10989199 L19.6395335,8.26545265 C20.1011029,8.72501147 20.102539,9.47179456 19.6429802,9.93365118 C19.1831342,10.3952206 18.4363511,10.3966567 17.9747817,9.93709787 L14.5042509,6.46656706 L14.0923713,6.81956574 C12.9552504,7.78521368 11.2930837,7.809915 10.1275276,6.87815949 L9.78659235,6.60184971 L9.04526654,7.51579735 L9.38993566,7.79526654 C9.75040213,8.0833525 10.1551011,8.31140853 10.5882353,8.47053081 L10.5882353,11.3129021 C9.62545956,11.2701057 8.69226794,10.9659352 7.8894761,10.432847 L7.23517926,10 L5.88235294,10 L5.88235294,2.31071919 L6.43698301,2.33053765 C6.92957265,2.34805838 7.41842831,2.24207265 7.85931757,2.02234603 L9.17652801,1.36287912 C9.42181757,1.24023441 9.69267,1.17645347 9.96696919,1.17645347 L17.3624196,1.17645347 Z M28.047,9.664 L27.8886,9.70822 C27.5894,9.8059 27.5894,9.8059 27.431,9.9775 C27.233,10.192 27.233,10.192 27.233,10.478 C27.233,10.753 27.233,10.753 27.442,10.929 C27.651,11.105 27.651,11.105 28.047,11.226 L28.047,11.226 L28.047,9.664 Z" id="Shape" fill="#000000" fill-rule="nonzero"></path>
            </g>
        </g>
    </g>
</svg>