<?xml version="1.0" encoding="UTF-8"?>
<svg width="25px" height="23px" viewBox="0 0 25 23" version="1.1" xmlns="http://www.w3.org/2000/svg" xmlns:xlink="http://www.w3.org/1999/xlink">
    <title>Multivendor - vendorProducts</title>
    <defs>
        <filter id="filter-1">
            <feColorMatrix in="SourceGraphic" type="matrix" values="0 0 0 0 1.000000 0 0 0 0 1.000000 0 0 0 0 1.000000 0 0 0 1.000000 0"></feColorMatrix>
        </filter>
    </defs>
    <g id="Page-1" stroke="none" stroke-width="1" fill="none" fill-rule="evenodd">
        <g filter="url(#filter-1)" id="Products">
            <g>
                <polygon id="Path" fill="#000000" fill-rule="nonzero" points="9.59593995 10.6883603 18.819418 5.36324942 14.4813949 2.85869284 5.25791686 8.1838037"></polygon>
                <polygon id="Path" fill="#000000" fill-rule="nonzero" points="9.24249423 11.3323603 0 6.00682448 0 16.658746 9.24249423 21.9842818"></polygon>
                <rect id="Rectangle" fill="#000000" fill-rule="nonzero" x="17.4226328" y="16.7852194" width="1.00923788" height="1.00923788"></rect>
                <path d="M9.98614319,11.3323603 L9.98614319,21.9842818 L15.0323326,19.0662564 L15.0323326,11.376873 C15.0280685,10.4957197 15.738923,9.77794479 16.6200762,9.77367206 L17.9431871,9.77367206 C18.0980218,9.21312491 18.6055335,8.82301475 19.1870462,8.81755196 L19.1755196,8.81755196 L19.1755196,6.00682448 L9.98614319,11.3323603 Z" id="Path" fill="#000000" fill-rule="nonzero"></path>
                <rect id="Rectangle" fill="#000000" fill-rule="nonzero" x="18.6443418" y="9.56120092" width="3.24018476" height="1.11547344" rx="0.539729792"></rect>
                <polygon id="Path" fill="#000000" fill-rule="nonzero" points="13.737746 2.4293418 9.59593995 0.0380854503 0.372515012 5.36324942 4.5142679 7.75450577"></polygon>
                <path d="M23.8985404,10.517321 L22.5608753,10.517321 C22.397119,11.0579253 21.8964066,11.4257303 21.3315704,11.4203233 L19.1870462,11.4203233 C18.6222019,11.4257186 18.1214804,11.0579228 17.9576882,10.517321 L16.6200762,10.517321 C16.3940912,10.5191574 16.1781159,10.6108011 16.0197715,10.7720452 C15.861427,10.9332893 15.7737172,11.1508918 15.7759387,11.376873 L15.7759387,22.1119769 C15.7746631,22.3354094 15.8634706,22.5499396 16.0223264,22.7070659 C16.1811821,22.8641923 16.3966715,22.9506463 16.6200762,22.9468822 L23.8985404,22.9468822 C24.1230045,22.9510212 24.3397617,22.8650166 24.5003251,22.7081069 C24.6608884,22.5511972 24.7518588,22.3364768 24.7528868,22.1119769 L24.7528868,11.376873 C24.7527794,10.9042289 24.3711751,10.5202995 23.8985404,10.517321 Z M16.678975,13.0156097 C16.6783056,12.9170966 16.7168339,12.822358 16.7860751,12.7522798 C16.8553164,12.6822016 16.9495851,12.6425377 17.0480993,12.6420323 L18.7996582,12.6420323 C19.006149,12.6425199 19.1737735,12.8091257 19.1755196,13.0156097 L19.1755196,13.2657945 C19.1744953,13.4713728 19.0072568,13.6373281 18.8016767,13.6367691 C18.640791,13.6420771 18.4961506,13.53934 18.4481778,13.3856813 L17.4226328,13.3856813 L17.4226328,14.3949192 L17.4372933,14.3949192 C17.6426463,14.3949192 17.8091178,14.5613907 17.8091178,14.7667436 C17.8091178,14.9720966 17.6426463,15.1385681 17.4372933,15.1385681 L17.0480993,15.1385681 C16.9498112,15.1385681 16.8555857,15.099349 16.7863002,15.0296348 C16.7170146,14.9599205 16.6783899,14.865455 16.678975,14.7671686 L16.678975,13.0156097 Z M16.6789838,16.4133949 C16.6789838,16.2080419 16.8454553,16.0415704 17.0508083,16.0415704 L18.8036952,16.0415704 C19.0090481,16.0415704 19.1755196,16.2080419 19.1755196,16.4133949 L19.1755196,18.1662818 C19.1755196,18.3716347 19.0090481,18.5381062 18.8036952,18.5381062 L17.0508083,18.5381062 C16.8454553,18.5381062 16.6789838,18.3716347 16.6789838,18.1662818 L16.6789838,16.4133949 Z M17.4373464,21.9376443 L17.0480993,21.9376443 C16.9511424,21.9404745 16.8571734,21.9039119 16.7876263,21.8362964 C16.7180792,21.7686809 16.6788851,21.6757788 16.6789838,21.5787806 L16.6789838,19.8272217 C16.6766143,19.6195805 16.8405617,19.4480833 17.0480993,19.4411085 L18.7996582,19.4411085 C19.0085141,19.4475188 19.1747306,19.618269 19.1755196,19.8272217 L19.1755196,20.1855012 C19.171122,20.3888879 19.0048794,20.551413 18.8014452,20.5512105 C18.5980111,20.5510081 18.4320922,20.3881526 18.4280993,20.1847575 L17.4226328,20.1847575 L17.4226328,21.1939954 L17.4373464,21.1939954 C17.6426994,21.1939954 17.8091709,21.3604669 17.8091709,21.5658199 C17.8091709,21.7711729 17.6426994,21.9376443 17.4373464,21.9376443 L17.4373464,21.9376443 Z M20.1816236,20.4897067 L18.8296697,21.8416605 C18.759938,21.9113993 18.6653573,21.9505788 18.5667367,21.9505788 C18.4681162,21.9505788 18.3735354,21.9113993 18.3038037,21.8416605 L17.7094688,21.247485 C17.6155319,21.1535481 17.5788454,21.016632 17.6132287,20.8883118 C17.647612,20.7599916 17.7478415,20.6597621 17.8761617,20.6253788 C18.0044819,20.5909955 18.141398,20.627682 18.2353349,20.7216189 L18.5665774,21.0529145 L19.6554919,19.964 C19.8007058,19.8187861 20.0361441,19.8187861 20.181358,19.964 C20.3265718,20.1092139 20.3265719,20.3446521 20.181358,20.4898661 L20.1816236,20.4897067 Z M20.1816236,13.6242864 L18.8296697,14.9762402 C18.759938,15.045979 18.6653573,15.0851585 18.5667367,15.0851585 C18.4681162,15.0851585 18.3735354,15.045979 18.3038037,14.9762402 L17.7094688,14.3820647 C17.6155319,14.2881277 17.5788454,14.1512117 17.6132287,14.0228915 C17.647612,13.8945713 17.7478415,13.7943417 17.8761617,13.7599584 C18.0044819,13.7255751 18.141398,13.7622617 18.2353349,13.8561986 L18.5665774,14.1874942 L19.6554919,13.0985797 C19.8007058,12.9533658 20.0361441,12.9533658 20.181358,13.0985797 C20.3265719,13.2437936 20.3265719,13.4792318 20.181358,13.6244457 L20.1816236,13.6242864 Z M23.4704642,21.0877598 L21.1350878,21.0877598 C20.9297348,21.0877598 20.7632633,20.9212883 20.7632633,20.7159353 C20.7632633,20.5105823 20.9297348,20.3441109 21.1350878,20.3441109 L23.4704642,20.3441109 C23.6758172,20.3441109 23.8422887,20.5105823 23.8422887,20.7159353 C23.8422887,20.9212883 23.6758172,21.0877598 23.4704642,21.0877598 L23.4704642,21.0877598 Z M23.4704642,17.6882217 L21.1350878,17.6882217 C20.9297348,17.6882217 20.7632633,17.5217502 20.7632633,17.3163972 C20.7632633,17.1110442 20.9297348,16.9445727 21.1350878,16.9445727 L23.4704642,16.9445727 C23.6758172,16.9445727 23.8422887,17.1110442 23.8422887,17.3163972 C23.8422887,17.5217502 23.6758172,17.6882217 23.4704642,17.6882217 L23.4704642,17.6882217 Z M23.4704642,14.2886836 L21.1350878,14.2886836 C20.9297348,14.2886836 20.7632633,14.1222121 20.7632633,13.9168591 C20.7632633,13.7115061 20.9297348,13.5450346 21.1350878,13.5450346 L23.4704642,13.5450346 C23.6758172,13.5450346 23.8422887,13.7115061 23.8422887,13.9168591 C23.8422887,14.1222121 23.6758172,14.2886836 23.4704642,14.2886836 L23.4704642,14.2886836 Z" id="Shape" fill="#000000" fill-rule="nonzero"></path>
            </g>
        </g>
    </g>
</svg>