<?xml version="1.0" encoding="UTF-8"?>
<svg width="23px" height="23px" viewBox="0 0 23 23" version="1.1" xmlns="http://www.w3.org/2000/svg" xmlns:xlink="http://www.w3.org/1999/xlink">
    <title>Multivendor - vendorSettings</title>
    <defs>
        <filter id="filter-1">
            <feColorMatrix in="SourceGraphic" type="matrix" values="0 0 0 0 0.847000 0 0 0 0 0.847000 0 0 0 0 0.847000 0 0 0 1.000000 0"></feColorMatrix>
        </filter>
    </defs>
    <g id="Page-1" stroke="none" stroke-width="1" fill="none" fill-rule="evenodd">
        <g filter="url(#filter-1)" id="Settings">
            <g>
                <path d="M3.83331836,7.66668164 C5.61963672,7.66668164 7.12038672,6.44512109 7.54588672,4.79168164 L22.0416367,4.79168164 C22.5709063,4.79168164 22.9999551,4.36263281 22.9999551,3.83336328 C22.9999551,3.30404883 22.5709512,2.875 22.0416816,2.875 L7.54593164,2.875 C7.12043164,1.22156055 5.61968164,0 3.83336328,0 C1.71610547,0 0,1.71610547 0,3.83331836 C0,5.95053125 1.71610547,7.66668164 3.83331836,7.66668164 Z M3.83331836,1.91668164 C4.89199219,1.91668164 5.75,2.77464453 5.75,3.83336328 C5.75,4.89208203 4.89203711,5.75 3.83331836,5.75 C2.77459961,5.75 1.91663672,4.89203711 1.91663672,3.83331836 C1.91663672,2.77459961 2.77464453,1.91668164 3.83331836,1.91668164 Z" id="Shape" fill="#000000" fill-rule="nonzero"></path>
                <path d="M19.1666816,15.3333184 C17.3803633,15.3333184 15.8796133,16.5548789 15.4541133,18.2083184 L0.958318359,18.2083184 C0.429048828,18.2083184 0,18.6374121 0,19.1666816 C0,19.6959512 0.429048828,20.125 0.958318359,20.125 L15.4540684,20.125 C15.8795684,21.7784395 17.3803184,23 19.1666367,23 C21.2838945,23 23,21.2838945 23,19.1666816 C23,17.0494687 21.2838945,15.3333184 19.1666816,15.3333184 Z M19.1666816,21.0833184 C18.1080078,21.0833184 17.25,20.2253555 17.25,19.1666367 C17.25,18.107918 18.1079629,17.25 19.1666816,17.25 C20.2254004,17.25 21.0833633,18.1079629 21.0833633,19.1666816 C21.0833633,20.2254004 20.2253555,21.0833184 19.1666816,21.0833184 Z" id="Shape" fill="#000000" fill-rule="nonzero"></path>
                <path d="M22.0416816,10.5416816 L15.2125684,10.5416816 C14.7870684,8.88824219 13.2863184,7.66668164 11.5,7.66668164 C9.71368164,7.66668164 8.21293164,8.88824219 7.78743164,10.5416816 L0.958318359,10.5416816 C0.429048828,10.5416816 0,10.9707305 0,11.5 C0,12.0292695 0.429048828,12.4583184 0.958318359,12.4583184 L7.78738672,12.4583184 C8.21288672,14.1117578 9.71363672,15.3333184 11.4999551,15.3333184 C13.2862734,15.3333184 14.7870234,14.1117578 15.2125234,12.4583184 L22.0415918,12.4583184 C22.5708613,12.4583184 22.9999102,12.0292695 22.9999102,11.5 C22.9999102,10.9707305 22.5709512,10.5416816 22.0416816,10.5416816 Z M11.5,13.4166816 C10.4413262,13.4166816 9.58331836,12.5587188 9.58331836,11.5 C9.58331836,10.4412812 10.4412812,9.58331836 11.5,9.58331836 C12.5587187,9.58331836 13.4166816,10.4412812 13.4166816,11.5 C13.4166816,12.5587188 12.5586738,13.4166816 11.5,13.4166816 Z" id="Shape" fill="#000000" fill-rule="nonzero"></path>
            </g>
        </g>
    </g>
</svg>