<?xml version="1.0" encoding="UTF-8"?>
<svg width="23px" height="23px" viewBox="0 0 23 23" version="1.1" xmlns="http://www.w3.org/2000/svg" xmlns:xlink="http://www.w3.org/1999/xlink">
    <title>Multivendor - vendorVendors</title>
    <defs>
        <filter id="filter-1">
            <feColorMatrix in="SourceGraphic" type="matrix" values="0 0 0 0 1.000000 0 0 0 0 1.000000 0 0 0 0 1.000000 0 0 0 1.000000 0"></feColorMatrix>
        </filter>
    </defs>
    <g id="Page-1" stroke="none" stroke-width="1" fill="none" fill-rule="evenodd">
        <g filter="url(#filter-1)" id="Vendors">
            <g>
                <path d="M6.95198566,4.5632377 C8.0536291,4.5632377 8.94662295,3.54162295 8.94662295,2.28180738 C8.94662295,1.02161475 8.05367623,0 6.95198566,0 C5.85076639,0 4.95777254,1.02161475 4.95777254,2.28180738 C4.95777254,3.54162295 5.85076639,4.5632377 6.95198566,4.5632377 Z" id="Path" fill="#000000" fill-rule="nonzero"></path>
                <path d="M12.9086086,12.3730574 C13.1198504,12.3730574 13.3326475,12.3034447 13.5098607,12.1602131 C13.9207971,11.82775 13.9847541,11.2249898 13.6523852,10.8136291 L9.53524385,5.72205123 C9.33818852,5.4789959 9.0468709,5.37351639 8.75630738,5.38364959 C8.75069877,5.38289549 8.6033668,5.38251844 8.37600615,5.38214139 L8.37600615,10.8173996 L9.49932992,10.8173996 L9.50310041,8.72784016 L12.1632766,12.0177828 C12.3525082,12.2515533 12.6292152,12.3730574 12.9086086,12.3730574 Z" id="Path" fill="#000000" fill-rule="nonzero"></path>
                <path d="M6.17422746,5.38181148 L6.17422746,7.03130738 C6.17422746,7.20592828 6.31557377,7.34732172 6.49019467,7.34732172 L7.4138709,7.34732172 C7.5884918,7.34732172 7.72988525,7.20592828 7.72988525,7.03130738 L7.72988525,5.38181148 C7.24071107,5.38143443 6.66260041,5.38143443 6.17422746,5.38181148 Z" id="Path" fill="#000000" fill-rule="nonzero"></path>
                <path d="M5.52805943,5.38289549 C5.30479918,5.38327254 5.16086066,5.38364959 5.154875,5.38440369 C4.86171926,5.37205533 4.56780943,5.47673361 4.36919877,5.72209836 L0.252057377,10.8136762 C-0.0803586066,11.2249898 -0.0164487705,11.8277971 0.394534836,12.1602602 C0.571795082,12.3034918 0.784545082,12.3731045 0.995834016,12.3731045 C1.27518033,12.3731045 1.5518873,12.2515533 1.74111885,12.0178299 L4.41105123,8.71591598 L4.41331352,10.8174467 L5.52805943,10.8174467 L5.52805943,5.38289549 L5.52805943,5.38289549 Z" id="Path" fill="#000000" fill-rule="nonzero"></path>
                <path d="M8.72260861,13.0323279 C8.72260861,13.3079508 8.49934836,13.5312111 8.22381967,13.5312111 L5.68062295,13.5312111 C5.405,13.5312111 5.18178689,13.307998 5.18178689,13.0323279 L5.18178689,11.4875102 L4.41406762,11.4875102 L4.42490779,21.7623832 C4.42490779,22.396957 4.93910861,22.9111107 5.57368238,22.9111107 C6.20825615,22.9111107 6.72240984,22.3969098 6.72240984,21.7623832 L6.72240984,15.3208279 L7.18198566,15.3208279 L7.18198566,21.8054139 C7.18198566,22.4399877 7.69613934,22.9541885 8.33076025,22.9541885 C8.96533402,22.9541885 9.47953484,22.4399877 9.47953484,21.8054139 L9.49819877,11.4875102 L8.72260861,11.4875102 L8.72260861,13.0323279 Z" id="Path" fill="#000000" fill-rule="nonzero"></path>
                <path d="M22.3896045,13.4829488 C22.2541967,13.3068197 22.0448402,13.2035553 21.8226639,13.2035553 L11.2471414,13.1803668 C10.854209,13.1803668 10.5355082,13.4990205 10.5355082,13.8919529 C10.5355082,14.2849795 10.8541619,14.6035861 11.2471414,14.6035861 L12.6322316,14.6035861 L14.4361291,19.9207336 C14.5767213,20.3489201 14.9163012,20.6648873 15.3313381,20.7905861 C15.1922541,20.9415943 15.1028934,21.1394037 15.1028934,21.3608258 C15.1028934,21.8293566 15.4824406,22.2092807 15.9513484,22.2092807 C16.4198791,22.2092807 16.7998033,21.8293566 16.7998033,21.3608258 C16.7998033,21.1663627 16.723168,20.9957951 16.6136352,20.8529877 L18.1355943,20.8529877 C18.0260143,20.9957951 17.949332,21.1663627 17.949332,21.3608258 C17.949332,21.8293566 18.3288791,22.2092807 18.7977869,22.2092807 C19.2663176,22.2092807 19.6462418,21.8293566 19.6462418,21.3608258 C19.6462418,21.1663627 19.5696066,20.9957951 19.4600738,20.8529877 L19.7723176,20.8529877 C20.1260369,20.8529877 20.412877,20.5661947 20.412877,20.2124283 C20.412877,19.858709 20.126084,19.571916 19.7723176,19.571916 L15.7236578,19.571916 C15.6915143,19.571916 15.663,19.5512725 15.6529611,19.5206844 L15.3380779,18.5626025 L20.7793217,18.5626025 C21.103584,18.5626025 21.3874078,18.3445738 21.4707357,18.0308217 L22.514125,14.102252 C22.570918,13.8875225 22.524918,13.6587008 22.3896045,13.4829488 Z" id="Path" fill="#000000" fill-rule="nonzero"></path>
            </g>
        </g>
    </g>
</svg>