<?xml version="1.0" encoding="UTF-8"?>
<svg width="25px" height="20px" viewBox="0 0 25 20" version="1.1" xmlns="http://www.w3.org/2000/svg" xmlns:xlink="http://www.w3.org/1999/xlink">
    <title>Multivendor  vendor</title>
    <defs>
        <filter id="filter-1">
            <feColorMatrix in="SourceGraphic" type="matrix" values="0 0 0 0 1.000000 0 0 0 0 1.000000 0 0 0 0 1.000000 0 0 0 1.000000 0"></feColorMatrix>
        </filter>
    </defs>
    <g id="Page-1" stroke="none" stroke-width="1" fill="none" fill-rule="evenodd">
        <g filter="url(#filter-1)" id="vendor">
            <g transform="translate(-0.000000, 0.000000)">
                <path d="M23.3468988,17.8293036 C23.3468988,17.4515691 23.0406621,17.1453325 22.6629276,17.1453325 L21.9329936,17.1453325 L21.9329936,5.08090239 C22.7290904,4.7985591 23.3009359,4.03830238 23.3009359,3.14667761 L23.3009359,0.684381519 C23.3009359,0.306647059 22.9946992,0.000410382682 22.6169648,0.000410382682 L0.729888399,0.000410382682 C0.352153939,0.000410382682 0.0459172623,0.306647059 0.0459172623,0.684381519 L0.0459172623,3.14672321 C0.0459172623,4.03834798 0.61776273,4.7986047 1.41385954,5.08094798 L1.41385954,17.1453325 L0.683971136,17.1453325 C0.306236677,17.1453325 0,17.4515691 0,17.8293036 C0,18.1438847 0.212669425,18.4082168 0.50189802,18.4880134 L0.50189802,19.27075 C0.50189802,19.6484844 0.808134697,19.9547211 1.18586916,19.9547211 C1.56360362,19.9547211 1.86984029,19.6484844 1.86984029,19.27075 L1.86984029,18.5132747 L21.6138071,18.5132747 L21.6138071,19.27075 C21.6138071,19.6484844 21.9200438,19.9547211 22.2977782,19.9547211 C22.6755127,19.9547211 22.9817494,19.6484844 22.9817494,19.27075 L22.9817494,18.4342077 C23.1987962,18.3195285 23.3468988,18.0918117 23.3468988,17.8293036 Z M21.9329936,3.14672321 C21.9329936,3.52386489 21.6261642,3.83064875 21.2490225,3.83064875 C20.8718808,3.83064875 20.5650514,3.52381929 20.5650514,3.14672321 L20.5650514,1.36835266 L21.9329936,1.36835266 L21.9329936,3.14672321 Z M19.1971091,3.14672321 C19.1971091,3.52386489 18.8902796,3.83064875 18.5131379,3.83064875 C18.136361,3.83064875 17.8298052,3.52445767 17.8291668,3.14790876 C17.8291668,3.14749838 17.8292124,3.14713359 17.8292124,3.14672321 L17.8292124,1.36835266 L19.1971091,1.36835266 L19.1971091,3.14672321 Z M15.0933279,1.36835266 L16.4611789,1.36835266 L16.4611789,3.14672321 C16.4611789,3.14713359 16.4612245,3.14749838 16.4612245,3.14790876 C16.4605862,3.52450327 16.1540759,3.83064875 15.777299,3.83064875 C15.4001573,3.83064875 15.0933279,3.52381929 15.0933279,3.14672321 L15.0933279,1.36835266 Z M13.7253856,3.14672321 C13.7253856,3.52386489 13.4185561,3.83064875 13.0413689,3.83064875 C12.6644552,3.83064875 12.3577625,3.52413848 12.3574433,3.14731598 C12.3574433,3.14713359 12.3574433,3.1469512 12.3574433,3.14672321 L12.3574433,1.36835266 L13.7253856,1.36835266 L13.7253856,3.14672321 Z M9.62155877,1.36835266 L10.989501,1.36835266 L10.989501,3.14672321 L10.989501,3.1469968 C10.9893187,3.52400169 10.6825804,3.83064875 10.3055299,3.83064875 C9.92838822,3.83064875 9.62155877,3.52381929 9.62155877,3.14672321 L9.62155877,1.36835266 Z M8.2536165,3.14672321 C8.2536165,3.52386489 7.94678705,3.83064875 7.56964536,3.83064875 C7.19259487,3.83064875 6.88581102,3.52400169 6.88567422,3.1469968 C6.88567422,3.1469056 6.88567422,3.1468144 6.88567422,3.14672321 L6.88567422,1.36835266 L8.2536165,1.36835266 L8.2536165,3.14672321 Z M4.14978968,1.36835266 L5.51773195,1.36835266 L5.51773195,3.14672321 L5.51773195,3.1469968 C5.51754956,3.52400169 5.2108113,3.83064875 4.83376082,3.83064875 C4.45661913,3.83064875 4.14978968,3.52381929 4.14978968,3.14672321 L4.14978968,1.36835266 Z M1.41385954,1.36835266 L2.78180181,1.36835266 L2.78180181,3.14672321 C2.78180181,3.52386489 2.47497236,3.83064875 2.09783067,3.83064875 C1.72068899,3.83064875 1.41385954,3.52381929 1.41385954,3.14672321 L1.41385954,1.36835266 Z M19.8810346,4.67439554 C20.0784743,4.85136167 20.3102493,4.990527 20.5650058,5.08090239 L20.5650058,17.1453325 L16.8715616,17.1453325 L16.8715616,14.5462421 C16.8715616,12.9354445 15.654549,11.6042543 14.0918573,11.4219988 C14.5181537,10.8908268 14.7740501,10.2172976 14.7740501,9.48481014 C14.7740501,7.77511029 13.3830808,6.38414099 11.673381,6.38414099 C9.96368113,6.38414099 8.57271183,7.77511029 8.57271183,9.48481014 C8.57271183,10.2172976 8.82860823,10.8908268 9.25490464,11.4219988 C7.69221299,11.6042543 6.47520035,12.9354445 6.47520035,14.5462421 L6.47520035,17.1453325 L2.78175621,17.1453325 L2.78175621,5.08090239 C3.03660386,4.990527 3.26837887,4.85136167 3.46577294,4.67439554 C3.82909841,5.0000114 4.30856218,5.19854542 4.83371522,5.19854542 C5.35886826,5.19854542 5.83833202,5.0000114 6.20165749,4.67439554 C6.56498296,5.0000114 7.04444672,5.19854542 7.56959976,5.19854542 C8.0947528,5.19854542 8.57421657,5.0000114 8.93754204,4.67439554 C9.3008675,5.0000114 9.78033127,5.19854542 10.3054843,5.19854542 C10.8306373,5.19854542 11.3101011,5.0000114 11.6734266,4.67439554 C12.036752,5.0000114 12.5162158,5.19854542 13.0413233,5.19854542 C13.5664763,5.19854542 14.0459857,5.0000114 14.4093111,4.67439554 C14.7726366,5.0000114 15.2521004,5.19854542 15.7772534,5.19854542 C16.3023608,5.19854542 16.7818702,5.000057 17.1451501,4.67439554 C17.5084755,5.000057 17.9879393,5.19854542 18.5130923,5.19854542 C19.0382454,5.19854542 19.5177092,5.0000114 19.8810346,4.67439554 Z M10.3510824,12.7678716 L12.9958164,12.7678716 L12.9958164,14.4094023 L10.3510824,14.4094023 L10.3510824,12.7678716 Z M9.66711125,15.7773446 L13.6797875,15.7773446 C14.057522,15.7773446 14.3637586,15.4711079 14.3637586,15.0933735 L14.3637586,12.8868826 C15.0297641,13.1440557 15.5036649,13.790682 15.5036649,14.5462421 L15.5036649,17.1453325 L7.84318822,17.1453325 L7.84318822,14.5462421 C7.84318822,13.7906364 8.31708902,13.1440101 8.98309451,12.886837 L8.98309451,15.0933735 C8.98314011,15.4711079 9.28937679,15.7773446 9.66711125,15.7773446 L9.66711125,15.7773446 Z" id="Shape" fill="#000000" fill-rule="nonzero"></path>
            </g>
        </g>
    </g>
</svg>