<?xml version="1.0" encoding="UTF-8"?>
<svg width="20px" height="20px" viewBox="0 0 20 20" version="1.1" xmlns="http://www.w3.org/2000/svg" xmlns:xlink="http://www.w3.org/1999/xlink">
    <title>Sales archive payments</title>
    <defs>
        <filter id="filter-1">
            <feColorMatrix in="SourceGraphic" type="matrix" values="0 0 0 0 1.000000 0 0 0 0 1.000000 0 0 0 0 1.000000 0 0 0 1.000000 0"></feColorMatrix>
        </filter>
    </defs>
    <g id="Page-1" stroke="none" stroke-width="1" fill="none" fill-rule="evenodd">
        <g filter="url(#filter-1)" id="archive-payments">
            <g>
                <path d="M17.65625,4.6875 L16.484375,4.6875 L16.484375,2.34375 L15.3125,2.34375 L15.3125,0 L10.5067444,0 L9.72549438,1.171875 L4.6875,1.171875 L4.6875,3.515625 L3.515625,3.515625 L3.515625,5.859375 L2.34375,5.859375 L2.34375,7.43972777 L0,10.9553528 L0,20 L20,20 L20,10.9553528 L17.65625,7.43972777 L17.65625,4.6875 Z M5.859375,2.34375 L10.3526306,2.34375 L11.1338806,1.171875 L14.140625,1.171875 L14.140625,2.34375 L11.6786194,2.34375 L10.8973694,3.515625 L5.859375,3.515625 L5.859375,2.34375 Z M4.6875,4.6875 L11.5245056,4.6875 L12.3057556,3.515625 L15.3125,3.515625 L15.3125,4.6875 L12.8504944,4.6875 L12.0692444,5.859375 L4.6875,5.859375 L4.6875,4.6875 Z M3.515625,7.03125 L12.6963806,7.03125 L13.4776306,5.859375 L16.484375,5.859375 L16.484375,10.546875 L12.3510742,10.546875 L11.9604492,11.71875 L8.03955078,11.71875 L7.64892578,10.546875 L3.515625,10.546875 L3.515625,7.03125 Z M2.34375,9.55245973 L2.34375,10.546875 L1.68075562,10.546875 L2.34375,9.55245973 Z M18.828125,18.828125 L1.171875,18.828125 L1.171875,11.71875 L6.80419922,11.71875 L7.19482422,12.890625 L12.8051758,12.890625 L13.1958008,11.71875 L18.828125,11.71875 L18.828125,18.828125 Z M18.3192444,10.546875 L17.65625,10.546875 L17.65625,9.55245973 L18.3192444,10.546875 Z" id="Shape" fill="#000000" fill-rule="nonzero"></path>
                <polygon id="Path" fill="#000000" fill-rule="nonzero" points="7.03125 14.0625 12.96875 14.0625 12.96875 15.234375 7.03125 15.234375"></polygon>
            </g>
        </g>
    </g>
</svg>