<?xml version="1.0" encoding="UTF-8"?>
<svg width="27px" height="20px" viewBox="0 0 27 20" version="1.1" xmlns="http://www.w3.org/2000/svg" xmlns:xlink="http://www.w3.org/1999/xlink">
    <title>Sales Orders</title>
    <g id="Page-1" stroke="none" stroke-width="1" fill="none" fill-rule="evenodd">
        <g id="Orders" fill="#FFFFFF" fill-rule="nonzero">
            <path d="M0.858369099,1.7167382 L2.98643777,1.7167382 L6.91098712,13.4903004 C6.94012116,13.5778528 6.98322421,13.6601168 7.03862661,13.7339056 L7.03862661,13.7339056 C5.92490628,13.7323727 4.98003278,14.551088 4.82302134,15.6536861 C4.6660099,16.7562843 5.34478655,17.8062095 6.41466413,18.1156239 C7.48454172,18.4250382 8.61895191,17.8994965 9.07470823,16.883297 C9.53046455,15.8670974 9.1684524,14.6704238 8.22583691,14.0772532 L15.3899571,14.0772532 C15.3738197,14.246867 15.3648069,14.4185408 15.3648069,14.5922747 C15.3648069,17.5788789 17.785928,20 20.7725322,20 C23.7591364,20 26.1802575,17.5788789 26.1802575,14.5922747 C26.1802575,11.6056705 23.7591364,9.18454936 20.7725322,9.18454936 C20.6019742,9.18454936 20.4335622,9.19313305 20.2669528,9.20892704 L21.586867,5.25004292 C21.6741451,4.9882748 21.6302593,4.70050867 21.4689213,4.47665584 C21.3075833,4.25280302 21.048467,4.12016042 20.7725322,4.12017167 L9.78540773,4.12017167 C9.31134356,4.12017167 8.92703863,4.50447661 8.92703863,4.97854077 C8.92703863,5.45260494 9.31134356,5.83690987 9.78540773,5.83690987 L19.5815451,5.83690987 L18.7791416,8.24369099 C18.7570815,8.24197425 18.7349356,8.24034335 18.7124464,8.24034335 L11.1587983,8.24034335 C10.6847341,8.24034335 10.3004292,8.62464828 10.3004292,9.09871245 C10.3004292,9.57277661 10.6847341,9.95708155 11.1587983,9.95708155 L17.9904721,9.95708155 C17.0505546,10.5239453 16.3039864,11.3617437 15.8487554,12.360515 L8.34403433,12.360515 L4.41948498,0.58695279 C4.30265548,0.236430092 3.97462998,0 3.60515021,0 L0.858369099,0 C0.384304936,0 0,0.384304936 0,0.858369099 C0,1.33243326 0.384304936,1.7167382 0.858369099,1.7167382 Z M7.03862661,16.4806867 C6.75418811,16.4806867 6.52360515,16.2501037 6.52360515,15.9656652 C6.52360515,15.6812267 6.75418811,15.4506438 7.03862661,15.4506438 C7.32306511,15.4506438 7.55364807,15.6812267 7.55364807,15.9656652 C7.55336417,16.2499861 7.32294743,16.4804028 7.03862661,16.4806867 L7.03862661,16.4806867 Z M24.4635193,14.5922747 C24.4635193,16.6307506 22.8110081,18.2832618 20.7725322,18.2832618 C18.7340563,18.2832618 17.0815451,16.6307506 17.0815451,14.5922747 C17.0815451,12.5537988 18.7340563,10.9012876 20.7725322,10.9012876 C22.8100472,10.9036054 24.4612015,12.5547596 24.4635193,14.5922747 L24.4635193,14.5922747 Z" id="Shape"></path>
            <path d="M19.015279,15.36 L20.3886695,16.0466953 C20.7759062,16.2402138 21.2466443,16.1150958 21.4866953,15.7548498 L22.8600858,13.6947639 C23.1177578,13.3005016 23.0096038,12.7722484 22.6177183,12.5109757 C22.2258329,12.2497031 21.6966111,12.3530136 21.4317597,12.7424893 L20.47897,14.172103 L19.783691,13.8242918 C19.3603799,13.6167463 18.8489061,13.7894562 18.6380661,14.2111361 C18.4272262,14.6328159 18.5959426,15.1456209 19.0159657,15.3597425 L19.015279,15.36 Z" id="Path"></path>
        </g>
    </g>
</svg>