<?xml version="1.0" encoding="UTF-8"?>
<svg width="20px" height="20px" viewBox="0 0 20 20" version="1.1" xmlns="http://www.w3.org/2000/svg" xmlns:xlink="http://www.w3.org/1999/xlink">
    <title>Sales Quotation Requests</title>
    <defs>
        <filter id="filter-1">
            <feColorMatrix in="SourceGraphic" type="matrix" values="0 0 0 0 1.000000 0 0 0 0 1.000000 0 0 0 0 1.000000 0 0 0 1.000000 0"></feColorMatrix>
        </filter>
    </defs>
    <g id="Page-1" stroke="none" stroke-width="1" fill="none" fill-rule="evenodd">
        <g filter="url(#filter-1)" id="Quotation-Requests">
            <g>
                <path d="M17.6322287,0 L2.32878493,0 C1.04324053,0.00146668205 0.00146668205,1.04324053 0,2.32878493 L0,13.640026 C0.00146668205,14.9255704 1.04324053,15.9673442 2.32878493,15.9688109 L5.66826251,15.9688109 C5.66826251,16.5613203 5.53818324,17.9170058 4.47326316,18.7896348 C4.2466986,18.970635 4.16345256,19.277525 4.26749585,19.5482048 C4.3715391,19.8188847 4.63890664,19.9910067 4.92837427,19.9736556 C6.57482521,19.8612086 9.40496426,19.1788746 10.2356751,15.9688109 L17.6322287,15.9688109 C18.9177731,15.9673442 19.959547,14.9255704 19.9610136,13.640026 L19.9610136,2.32878493 C19.959547,1.04324053 18.9177731,0.00146668205 17.6322287,0 Z M19.2956465,13.640026 C19.2945466,14.5582503 18.550453,15.3023439 17.6322287,15.3034438 C9.54801819,15.3034438 9.97851072,15.2927979 9.88070175,15.3234048 C9.8004138,15.3480355 9.73302429,15.4032376 9.69306823,15.4771046 C9.67976088,15.5007251 9.65414425,15.5665965 9.65414425,15.5665965 C9.00873814,18.5830383 6.38752437,19.20682 4.89510591,19.3039636 C6.55852372,17.939961 6.32930474,15.694347 6.31899155,15.5995322 C6.31899155,15.5958726 6.2917115,15.5057154 6.2857232,15.4917427 C6.26481187,15.4556278 6.23968455,15.4221247 6.2108694,15.3919376 C6.07812865,15.2701754 6.25910851,15.3034438 2.32878493,15.3034438 C1.41056062,15.3023439 0.666467013,14.5582503 0.665367122,13.640026 L0.665367122,2.32878493 C0.666467013,1.41056062 1.41056062,0.666467013 2.32878493,0.665367122 L17.6322287,0.665367122 C18.550453,0.666467013 19.2945466,1.41056062 19.2956465,2.32878493 L19.2956465,13.640026 Z" id="Shape" fill="#000000" fill-rule="nonzero"></path>
                <text id="$" font-family="Roboto-Bold, Roboto" font-size="13" font-weight="bold" letter-spacing="0.09285718" fill="#FF6E1A">
                    <tspan x="6" y="12">$</tspan>
                </text>
            </g>
        </g>
    </g>
</svg>