<?xml version="1.0" encoding="UTF-8"?>
<svg width="17px" height="20px" viewBox="0 0 17 20" version="1.1" xmlns="http://www.w3.org/2000/svg" xmlns:xlink="http://www.w3.org/1999/xlink">
    <title>Sales payment (1)</title>
    <defs>
        <filter id="filter-1">
            <feColorMatrix in="SourceGraphic" type="matrix" values="0 0 0 0 1.000000 0 0 0 0 1.000000 0 0 0 0 1.000000 0 0 0 1.000000 0"></feColorMatrix>
        </filter>
    </defs>
    <g id="Page-1" stroke="none" stroke-width="1" fill="none" fill-rule="evenodd">
        <g filter="url(#filter-1)" id="payment-(1)">
            <g>
                <path d="M8.9329881,5.57142857 L8.76190476,5.57142857 L8.76190476,4.9047619 L7.42857143,4.9047619 L7.42857143,5.57142857 L7.2574881,5.57142857 C6.36052161,5.57153766 5.59599351,6.22208802 5.45232455,7.10747388 C5.30865558,7.99285974 5.82824627,8.85178028 6.67915476,9.1355119 L9.08965476,9.9390119 C9.32025826,10.0158552 9.46109362,10.248603 9.422171,10.4885361 C9.38324838,10.7284692 9.17605775,10.9047619 8.9329881,10.9047619 L7.2574881,10.9047619 C6.98391823,10.9044405 6.7622262,10.6827484 6.76190476,10.4091786 L6.76190476,10.2380952 L5.42854456,10.2380952 L5.42854456,10.4091786 C5.42976534,11.4187664 6.24790026,12.2369013 7.2574881,12.2380952 L7.42857143,12.2380952 L7.42857143,12.9047619 L8.76190476,12.9047619 L8.76190476,12.2380952 L8.9329881,12.2380952 C9.82995458,12.2379862 10.5944827,11.5874358 10.7381516,10.7020499 C10.8818206,9.81666407 10.3622299,8.95774353 9.51132143,8.6740119 L7.10082143,7.8705119 C6.87021793,7.79366866 6.72938257,7.56092083 6.76830519,7.32098774 C6.80722781,7.08105465 7.01441844,6.9047619 7.2574881,6.9047619 L8.9329881,6.9047619 C9.20655796,6.90508335 9.42824999,7.12677538 9.42857143,7.40034524 L9.42857143,7.57142857 L10.7619316,7.57142857 L10.7619316,7.40034524 C10.7607109,6.3907574 9.94257593,5.57262248 8.9329881,5.57142857 Z M16.6666667,14.2857143 L16.6666667,19.5238095 C16.6666667,19.7868023 16.4534689,20 16.1904762,20 L11.9047619,20 L11.9047619,19.047619 L13.8095238,19.047619 L13.8095238,14.5404762 L13.4119048,14.2752976 C12.3305952,13.5544048 10.782381,13.70125 9.86053571,14.6224405 C9.77122913,14.7117425 9.65010485,14.7619094 9.52380952,14.7619048 L5.47619048,14.7619048 C5.0839511,14.7672839 4.76728392,15.0839511 4.76190476,15.4761905 C4.76158802,15.5753475 4.78225913,15.6734491 4.82255952,15.7640476 C4.93935417,16.0208766 5.19407274,16.1870549 5.47619048,16.1904762 L9.04761905,16.1904762 L9.04761905,17.1428571 L5.47619048,17.1428571 C5.30864074,17.1456849 5.14180308,17.1203937 4.98261905,17.0680357 C4.5627258,16.9386815 4.2114112,16.6478321 4.00595238,16.2594643 L2.4322619,14.9479762 C2.22154762,14.7372619 1.82125,14.7181548 1.55130952,14.7818452 C0.90922619,14.9335119 0.749642857,15.8010119 1.26285714,16.1998214 C2.12511905,16.8699405 3.88785714,18.2402381 4.66809524,18.8474405 C4.83510165,18.9770019 5.04041572,19.0474151 5.25178571,19.047619 L10.952381,19.047619 L10.952381,20 L5.25178571,20 C4.82848591,19.9994569 4.41734982,19.8583637 4.08291667,19.598869 C3.30285714,18.9917262 1.54047619,17.6218452 0.678154762,16.9515476 C0.24812698,16.618087 -0.0024741155,16.1036872 -1.81492088e-05,15.5595238 L-1.81492088e-05,15.5380952 C-0.0021813538,14.8556388 0.399182171,14.2363942 1.02303571,13.9597024 C1.11948357,13.5888324 1.31341248,13.2505256 1.58470238,12.979881 C1.7893285,12.7749713 1.90441577,12.4973235 1.9047619,12.2077381 L1.9047619,7.14285714 C1.90749781,5.02578069 3.45338229,3.22685656 5.54595238,2.90565476 L4.78630952,0.626785714 C4.73789908,0.481565725 4.76225264,0.321927069 4.8517612,0.197747218 C4.94126975,0.0735673675 5.08501873,0 5.23809524,0 L10.952381,0 C11.1054575,0 11.2492064,0.0735673675 11.338715,0.197747218 C11.4282235,0.321927069 11.4525771,0.481565725 11.4041667,0.626785714 L10.6447024,2.90517857 C12.7388538,3.22382897 14.2860767,5.02460119 14.2857143,7.14285714 L14.2857143,12.2077381 C14.286591,12.4972173 14.4015978,12.774671 14.6057738,12.979881 C14.8064056,13.1801705 14.9654662,13.4181444 15.0738095,13.680119 C15.0916667,13.7227381 15.107619,13.7659524 15.1225,13.8095238 L16.1904762,13.8095238 C16.4534689,13.8095238 16.6666667,14.0227215 16.6666667,14.2857143 Z M5.89880952,0.952380952 L6.53369048,2.85714286 L9.65678571,2.85714286 L10.2916667,0.952380952 L5.89880952,0.952380952 Z M13.3333333,12.2077381 L13.3333333,7.14285714 C13.3336019,6.25871989 12.9824986,5.41071748 12.3573191,4.78553801 C11.7321397,4.16035853 10.8841373,3.80925529 10,3.8095235 L6.19047619,3.8095235 C4.35038373,3.81159043 2.85920948,5.30276468 2.85714286,7.14285714 L2.85714286,12.2077381 C2.85676543,12.749912 2.64137602,13.2698049 2.25821429,13.6533929 C2.20683274,13.705075 2.16025243,13.7613181 2.11904762,13.8214286 C2.17726193,13.8281313 2.2350954,13.8378066 2.29232143,13.8504167 C2.29529762,13.8509524 2.29827381,13.8516071 2.30113095,13.8522619 C2.57351061,13.9129416 2.82748475,14.0377248 3.04196429,14.21625 L3.90202381,14.9330357 C4.13307633,14.260868 4.76541996,13.8095526 5.47619048,13.8095235 L9.33452381,13.8095235 C10.0198534,13.1986438 10.9051491,12.8598557 11.8232143,12.8571429 L11.872619,12.8571429 C12.497392,12.8566649 13.1121912,13.0137939 13.660119,13.3139881 C13.4479889,12.9839169 13.3346083,12.6000958 13.3333333,12.2077381 Z M15.7142857,14.7619048 L14.7619048,14.7619048 L14.7619048,19.047619 L15.7142857,19.047619 L15.7142857,14.7619048 Z" id="Shape" fill="#000000" fill-rule="nonzero"></path>
            </g>
        </g>
    </g>
</svg>