<?xml version="1.0" encoding="UTF-8"?>
<svg width="20px" height="22px" viewBox="0 0 20 22" version="1.1" xmlns="http://www.w3.org/2000/svg" xmlns:xlink="http://www.w3.org/1999/xlink">
    <title>Sales cancel request</title>
    <defs>
        <filter id="filter-1">
            <feColorMatrix in="SourceGraphic" type="matrix" values="0 0 0 0 1.000000 0 0 0 0 1.000000 0 0 0 0 1.000000 0 0 0 1.000000 0"></feColorMatrix>
        </filter>
    </defs>
    <g id="Page-1" stroke="none" stroke-width="1" fill="none" fill-rule="evenodd">
        <g filter="url(#filter-1)" id="cancel-request">
            <g>
                <path d="M5.62255859,16.9536133 C6.35070801,16.3865967 6.82037352,15.5025024 6.82037352,14.510376 C6.82037352,12.8030701 5.43121336,11.4140625 3.72390746,11.4140625 C2.01660156,11.4140625 0.627593984,12.8030701 0.627593984,14.510376 C0.627593984,15.5025024 1.09725953,16.3865967 1.82525633,16.9536133 C0.797729492,17.5648804 0,18.7193604 0,20.1588745 L0,21.4140625 C0,21.7377014 0.262298594,22 0.5859375,22 L6.86203004,22 C7.18551637,22 7.44796754,21.7377014 7.44796754,21.4140625 L7.44796754,20.1588745 C7.44796754,18.7196655 6.65039062,17.565033 5.62255859,16.9536133 Z M1.79946898,14.510376 C1.79946898,13.4492798 2.66281129,12.5859375 3.72406008,12.5859375 C4.78515625,12.5859375 5.64849852,13.4492798 5.64849852,14.510376 C5.64849852,15.5716248 4.78515625,16.434967 3.72406008,16.434967 C2.66281129,16.434967 1.79946898,15.5716248 1.79946898,14.510376 Z M6.27609254,20.828125 L1.171875,20.828125 L1.171875,20.1588745 C1.171875,18.7492676 2.31231688,17.606842 3.72390746,17.606842 C5.13351441,17.606842 6.27593992,18.7472839 6.27593992,20.1588745 L6.27593992,20.828125 L6.27609254,20.828125 Z" id="Shape" fill="#000000" fill-rule="nonzero"></path>
                <path d="M17.5312805,2 L10,2 C8.63647461,2 7.53128051,3.10321047 7.53128051,4.46871949 L7.53128051,15.765564 C7.53128051,16.2448425 8.08090211,16.5251465 8.46878051,16.234314 L10.8229065,14.4687195 L17.5312805,14.4687195 C18.8948059,14.4687195 20,13.365509 20,12 L20,4.46871949 C20,3.1051941 18.8967895,2 17.5312805,2 L17.5312805,2 Z M18.828125,12 C18.828125,12.7168579 18.2484436,13.2968445 17.5312805,13.2968445 L10.627594,13.2968445 C10.5007934,13.2968445 10.3775024,13.3380432 10.2760315,13.414032 L8.70315551,14.593689 L8.70315551,4.46871949 C8.70315551,3.75186156 9.28283691,3.171875 10,3.171875 L17.5312805,3.171875 C18.2481384,3.171875 18.828125,3.75155641 18.828125,4.46871949 L18.828125,12 Z" id="Shape" fill="#000000" fill-rule="nonzero"></path>
                <text id="x" font-family="Roboto-Bold, Roboto" font-size="12" font-weight="bold" letter-spacing="0.08571432" fill="#FFFFFF">
                    <tspan x="11" y="11">x</tspan>
                </text>
            </g>
        </g>
    </g>
</svg>