<?xml version="1.0" encoding="UTF-8"?>
<svg width="20px" height="20px" viewBox="0 0 20 20" version="1.1" xmlns="http://www.w3.org/2000/svg" xmlns:xlink="http://www.w3.org/1999/xlink">
    <title>Sales Back orders</title>
    <defs>
        <filter id="filter-1">
            <feColorMatrix in="SourceGraphic" type="matrix" values="0 0 0 0 1.000000 0 0 0 0 1.000000 0 0 0 0 1.000000 0 0 0 1.000000 0"></feColorMatrix>
        </filter>
    </defs>
    <g id="Page-1" stroke="none" stroke-width="1" fill="none" fill-rule="evenodd">
        <g filter="url(#filter-1)" id="Back-orders">
            <g>
                <path d="M15.5945419,20 L9.98050682,20 C9.63617934,20 9.35672515,19.7205458 9.35672515,19.3762183 L9.35672515,14.8018194 C9.35672515,14.4574919 9.63617934,14.1780377 9.98050682,14.1780377 L15.5945419,14.1780377 C15.9388694,14.1780377 16.2183236,14.4574919 16.2183236,14.8018194 L16.2183236,19.3762183 C16.2183236,19.7205458 15.9388694,20 15.5945419,20 Z M10.6042885,18.7524366 L14.9707602,18.7524366 L14.9707602,15.425601 L10.6042885,15.425601 L10.6042885,18.7524366 Z" id="Shape" fill="#000000" fill-rule="nonzero"></path>
                <path d="M12.6835608,15.425601 L7.27745289,15.425601 C6.93312541,15.425601 6.65367122,15.1461468 6.65367122,14.8018194 L6.65367122,9.81156595 C6.65367122,9.46723847 6.93312541,9.18778428 7.27745289,9.18778428 L12.6835608,9.18778428 C13.0278882,9.18778428 13.3073424,9.46723847 13.3073424,9.81156595 L13.3073424,14.8018194 C13.3073424,15.1461468 13.0278882,15.425601 12.6835608,15.425601 Z M7.90123457,14.1780377 L12.0597791,14.1780377 L12.0597791,10.4353476 L7.90123457,10.4353476 L7.90123457,14.1780377 Z" id="Shape" fill="#000000" fill-rule="nonzero"></path>
                <path d="M9.98050682,20 L4.36647173,20 C4.02214425,20 3.74269006,19.7205458 3.74269006,19.3762183 L3.74269006,14.8018194 C3.74269006,14.4574919 4.02214425,14.1780377 4.36647173,14.1780377 L9.98050682,14.1780377 C10.3248343,14.1780377 10.6042885,14.4574919 10.6042885,14.8018194 L10.6042885,19.3762183 C10.6042885,19.7205458 10.3248343,20 9.98050682,20 Z M4.99025341,18.7524366 L9.35672515,18.7524366 L9.35672515,15.425601 L4.99025341,15.425601 L4.99025341,18.7524366 Z" id="Shape" fill="#000000" fill-rule="nonzero"></path>
                <path d="M9.98050682,11.682911 C9.63617934,11.682911 9.35672515,11.4034568 9.35672515,11.0591293 L9.35672515,9.81156595 C9.35672515,9.46723847 9.63617934,9.18778428 9.98050682,9.18778428 C10.3248343,9.18778428 10.6042885,9.46723847 10.6042885,9.81156595 L10.6042885,11.0591293 C10.6042885,11.4034568 10.3248343,11.682911 9.98050682,11.682911 Z" id="Path" fill="#000000" fill-rule="nonzero"></path>
                <path d="M7.27745289,16.6731644 C6.93312541,16.6731644 6.65367122,16.3937102 6.65367122,16.0493827 L6.65367122,14.8018194 C6.65367122,14.4574919 6.93312541,14.1780377 7.27745289,14.1780377 C7.62178038,14.1780377 7.90123457,14.4574919 7.90123457,14.8018194 L7.90123457,16.0493827 C7.90123457,16.3937102 7.62178038,16.6731644 7.27745289,16.6731644 Z" id="Path" fill="#000000" fill-rule="nonzero"></path>
                <path d="M12.6835608,16.6731644 C12.3392333,16.6731644 12.0597791,16.3937102 12.0597791,16.0493827 L12.0597791,14.8018194 C12.0597791,14.4574919 12.3392333,14.1780377 12.6835608,14.1780377 C13.0278882,14.1780377 13.3073424,14.4574919 13.3073424,14.8018194 L13.3073424,16.0493827 C13.3073424,16.3937102 13.0278882,16.6731644 12.6835608,16.6731644 Z" id="Path" fill="#000000" fill-rule="nonzero"></path>
                <path d="M18.5055231,20 L1.45549058,20 C0.652891488,20 0,19.3471085 0,18.5445094 L0,7.10851202 C0,6.90307992 0.101468486,6.71095517 0.270305393,6.59451592 L9.62703054,0.14877193 C9.83994802,0.00155945419 10.1218973,0.00155945419 10.3348148,0.14877193 L19.69154,6.59451592 C19.8595452,6.71095517 19.9610136,6.90307992 19.9610136,7.10851202 L19.9610136,18.5445094 C19.9610136,19.3471085 19.3081222,20 18.5055231,20 Z M1.24756335,7.43620533 L1.24756335,18.5445094 C1.24756335,18.6592853 1.34071475,18.7524366 1.45549058,18.7524366 L18.5055231,18.7524366 C18.6202989,18.7524366 18.7134503,18.6592853 18.7134503,18.5445094 L18.7134503,7.43620533 L9.98050682,1.42045484 L1.24756335,7.43620533 Z" id="Shape" fill="#000000" fill-rule="nonzero"></path>
            </g>
        </g>
    </g>
</svg>