<?xml version="1.0" encoding="UTF-8"?>
<svg width="17px" height="20px" viewBox="0 0 17 20" version="1.1" xmlns="http://www.w3.org/2000/svg" xmlns:xlink="http://www.w3.org/1999/xlink">
    <title>ServicesEnquiry</title>
    <defs>
        <filter id="filter-1">
            <feColorMatrix in="SourceGraphic" type="matrix" values="0 0 0 0 1.000000 0 0 0 0 1.000000 0 0 0 0 1.000000 0 0 0 1.000000 0"></feColorMatrix>
        </filter>
    </defs>
    <g id="Page-1" stroke="none" stroke-width="1" fill="none" fill-rule="evenodd">
        <g filter="url(#filter-1)" id="Enquiry">
            <g>
                <path d="M11.155339,15.6719915 C11.1105508,15.6228814 10.9922881,15.5086441 10.8613983,15.5086441 C10.7326271,15.5086441 10.6003814,15.6216525 10.5330508,15.6890254 L10.4488136,15.7732627 L13.0825847,18.4070763 C13.0932627,18.3958898 13.1044492,18.3850847 13.115,18.3738559 C13.1245708,18.3619698 13.1350394,18.3508355 13.1463136,18.3405508 C13.3864831,18.0852542 13.3831356,17.8977966 13.1364407,17.6535593 L11.1661017,15.6832203 C11.1623305,15.6794915 11.1587712,15.6757627 11.155339,15.6719915 Z" id="Path" fill="#000000" fill-rule="nonzero"></path>
                <path d="M4.2409322,9.39694915 C4.50364407,9.13423729 4.50364407,8.97427966 4.2409322,8.71173729 L3.26809322,7.73889831 C3.26707627,7.73779661 3.26597458,7.73673729 3.26495763,7.73567797 C3.20885593,7.67788136 3.15295198,7.62080508 3.09724576,7.56444915 C3.03961864,7.50597458 2.98264124,7.44779661 2.92631356,7.38991525 C2.69449153,7.1504661 2.49834746,6.95216102 2.29538136,6.76237288 C2.29292373,6.76008475 2.29055085,6.75775424 2.28813559,6.75538136 L2.27686441,6.7440678 C2.20330508,6.67050847 2.08923729,6.58211864 1.96694915,6.58211864 C1.86665254,6.58211864 1.75084746,6.64076271 1.63152542,6.75161017 L1.52940678,6.85368644 L4.1570339,9.48131356 C4.18491525,9.45338983 4.21275424,9.42516949 4.2409322,9.39694915 Z" id="Path" fill="#000000" fill-rule="nonzero"></path>
                <path d="M2.91144068,15.1259746 C4.3244667,16.8250818 6.08385195,18.2030478 8.0720339,19.1677966 C8.78389831,19.5082627 9.73199153,19.9080508 10.7412712,19.9725847 C10.7857203,19.9755508 10.836822,19.9755508 10.8862288,19.9755508 C11.355,19.9755508 11.700339,19.8312712 12.0048729,19.5079237 C12.211881,19.2691289 12.4308923,19.0410097 12.6610593,18.8244492 L10.0292797,16.1927542 L9.31432203,16.9077119 C9.09351695,17.1285169 8.84072034,17.2404661 8.56292373,17.2404661 C8.39385969,17.2393955 8.22747415,17.1981331 8.0775,17.1200847 C8.06241525,17.1125424 8.04677966,17.1033898 8.03144068,17.0937712 L8.02834746,17.091822 C8.02245763,17.0886864 8.01665254,17.0853814 8.01101695,17.0818644 C7.91923729,17.0249153 7.80398305,16.9674576 7.68194915,16.9062712 C7.5228681,16.82972 7.36783251,16.7450317 7.21745763,16.6525424 C6.0495339,15.9139407 4.99351695,14.9544068 3.98957627,13.7194915 C3.98461864,13.7140678 3.97991525,13.7084746 3.97533898,13.7025424 C3.41177966,12.986822 3.04398305,12.3859322 2.78317797,11.7542797 C2.78055085,11.7478955 2.77814972,11.7414266 2.77597458,11.7348729 L2.76525424,11.7026271 C2.76474576,11.7011864 2.76427966,11.6997881 2.76385593,11.6983898 C2.71394068,11.5403814 2.56317797,11.0630508 3.00766949,10.6051695 C3.02065223,10.5897916 3.03498945,10.5756103 3.05050847,10.5627966 L3.05177966,10.5616525 C3.28483051,10.3526271 3.50271186,10.1405508 3.73885593,9.90216102 L1.10991525,7.27334746 L0.419830508,7.96338983 C0.180424962,8.19398184 0.035673585,8.50560526 0.0138983051,8.83728814 C-0.0362711864,9.44970339 0.0813135593,10.098178 0.395254237,10.9389831 C0.921694915,12.3611017 1.72110169,13.6912712 2.91144068,15.1259746 Z" id="Path" fill="#000000" fill-rule="nonzero"></path>
                <polygon id="Path" fill="#000000" fill-rule="nonzero" points="11.9924153 2.66394068 11.0280932 2.10716102 8.4434322 3.59940678 9.40779661 4.15618644"></polygon>
                <polygon id="Path" fill="#000000" fill-rule="nonzero" points="11.0279661 5.09161017 13.6126695 3.59932203 12.5856356 3.00644068 10.0009746 4.49868644"></polygon>
                <polygon id="Path" fill="#000000" fill-rule="nonzero" points="10.720339 5.60533898 8.13559322 4.11309322 8.13559322 7.09771186 10.720339 8.59021186"></polygon>
                <path d="M8.29347458,10.1033898 C8.40878886,10.1710892 8.46454645,10.3075764 8.42961864,10.4366525 L8.05618644,11.816822 L9.57394068,10.7532627 C9.64277148,10.7051202 9.72876159,10.6883563 9.81063559,10.7071186 C12.5697481,11.34533 15.3546467,9.74987525 16.1996127,7.04690496 C17.0445786,4.34393466 15.6642195,1.44639349 13.0328608,0.399508862 C10.4015021,-0.647375767 7.40790133,0.509987791 6.16508942,3.05467528 C4.92227751,5.59936276 5.85002178,8.67189051 8.29347458,10.1035169 L8.29347458,10.1033898 Z M7.54237288,3.59944915 C7.54458873,3.49263373 7.60310134,3.39494618 7.69622881,3.34258475 L10.8769915,1.50783898 C10.9692477,1.45485598 11.0827015,1.45485598 11.1749576,1.50783898 L14.3480932,3.34258475 C14.4386767,3.39612465 14.4934662,3.49424405 14.4915889,3.59944915 L14.4915889,7.26894068 C14.4937135,7.37401131 14.4392123,7.47213619 14.3488559,7.52580508 L11.1737288,9.36097458 C11.0826729,9.413973 10.970166,9.413973 10.8791102,9.36097458 L7.6959322,7.52580508 C7.60289431,7.47339355 7.54449362,7.37570453 7.54237288,7.26894068 L7.54237288,3.59944915 Z" id="Shape" fill="#000000" fill-rule="nonzero"></path>
                <polygon id="Path" fill="#000000" fill-rule="nonzero" points="11.3135593 8.59038136 13.8983051 7.09771186 13.8983051 4.1129661 11.3135593 5.60533898"></polygon>
            </g>
        </g>
    </g>
</svg>