<?xml version="1.0" encoding="UTF-8"?>
<svg width="20px" height="20px" viewBox="0 0 20 20" version="1.1" xmlns="http://www.w3.org/2000/svg" xmlns:xlink="http://www.w3.org/1999/xlink">
    <title>Catalog Categories </title>
    <defs>
        <filter id="filter-1">
            <feColorMatrix in="SourceGraphic" type="matrix" values="0 0 0 0 1.000000 0 0 0 0 1.000000 0 0 0 0 1.000000 0 0 0 1.000000 0"></feColorMatrix>
        </filter>
    </defs>
    <g id="Page-1" stroke="none" stroke-width="1" fill="none" fill-rule="evenodd">
        <g filter="url(#filter-1)" id="Categories-">
            <g>
                <path d="M18.2421875,12.9296875 L17.65625,12.9296875 L17.65625,12.34375 C17.65625,11.3744922 16.8676953,10.5859375 15.8984375,10.5859375 L10.5859375,10.5859375 L10.5859375,9.4140625 C11.1365234,9.4140625 11.7949219,9.4140625 12.34375,9.4140625 C12.6673438,9.4140625 12.9296875,9.15171875 12.9296875,8.828125 C12.9296875,8.50453125 12.6673438,8.2421875 12.34375,8.2421875 L11.7578125,8.2421875 L11.7578125,7.0703125 L13.515625,7.0703125 C14.4848828,7.0703125 15.2734375,6.28175781 15.2734375,5.3125 L15.2734375,1.7578125 C15.2734375,0.788554688 14.4848828,0 13.515625,0 L6.484375,0 C5.51511719,0 4.7265625,0.788554688 4.7265625,1.7578125 L4.7265625,5.3125 C4.7265625,6.28175781 5.51511719,7.0703125 6.484375,7.0703125 L8.2421875,7.0703125 L8.2421875,8.2421875 L7.65625,8.2421875 C7.33265625,8.2421875 7.0703125,8.50453125 7.0703125,8.828125 C7.0703125,9.15171875 7.33265625,9.4140625 7.65625,9.4140625 C8.20507812,9.4140625 8.86347656,9.4140625 9.4140625,9.4140625 L9.4140625,10.5859375 L4.1015625,10.5859375 C3.13230469,10.5859375 2.34375,11.3744922 2.34375,12.34375 L2.34375,12.9296875 L1.7578125,12.9296875 C0.788554688,12.9296875 0,13.7182422 0,14.6875 L0,15.859375 C0,16.8286328 0.788554688,17.6171875 1.7578125,17.6171875 L2.34375,17.6171875 L2.34375,18.828125 L1.7578125,18.828125 C1.43421875,18.828125 1.171875,19.0904687 1.171875,19.4140625 C1.171875,19.7376563 1.43421875,20 1.7578125,20 L4.1015625,20 C4.42515625,20 4.6875,19.7376563 4.6875,19.4140625 C4.6875,19.0904687 4.42515625,18.828125 4.1015625,18.828125 L3.515625,18.828125 L3.515625,17.6171875 L4.1015625,17.6171875 C5.07082031,17.6171875 5.859375,16.8286328 5.859375,15.859375 L5.859375,14.6875 C5.859375,13.7182422 5.07082031,12.9296875 4.1015625,12.9296875 L3.515625,12.9296875 L3.515625,12.34375 C3.515625,12.0206641 3.77847656,11.7578125 4.1015625,11.7578125 L9.4140625,11.7578125 L9.4140625,12.9296875 L8.828125,12.9296875 C7.85886719,12.9296875 7.0703125,13.7182422 7.0703125,14.6875 L7.0703125,15.859375 C7.0703125,16.8286328 7.85886719,17.6171875 8.828125,17.6171875 L9.4140625,17.6171875 L9.4140625,18.828125 L8.828125,18.828125 C8.50453125,18.828125 8.2421875,19.0904687 8.2421875,19.4140625 C8.2421875,19.7376563 8.50453125,20 8.828125,20 L11.171875,20 C11.4954688,20 11.7578125,19.7376563 11.7578125,19.4140625 C11.7578125,19.0904687 11.4954688,18.828125 11.171875,18.828125 L10.5859375,18.828125 L10.5859375,17.6171875 L11.171875,17.6171875 C12.1411328,17.6171875 12.9296875,16.8286328 12.9296875,15.859375 L12.9296875,14.6875 C12.9296875,13.7182422 12.1411328,12.9296875 11.171875,12.9296875 L10.5859375,12.9296875 L10.5859375,11.7578125 L15.8984375,11.7578125 C16.2215234,11.7578125 16.484375,12.0206641 16.484375,12.34375 L16.484375,12.9296875 L15.8984375,12.9296875 C14.9291797,12.9296875 14.140625,13.7182422 14.140625,14.6875 L14.140625,15.859375 C14.140625,16.8286328 14.9291797,17.6171875 15.8984375,17.6171875 L16.484375,17.6171875 L16.484375,18.828125 L15.8984375,18.828125 C15.5748437,18.828125 15.3125,19.0904687 15.3125,19.4140625 C15.3125,19.7376563 15.5748437,20 15.8984375,20 L18.2421875,20 C18.5657813,20 18.828125,19.7376563 18.828125,19.4140625 C18.828125,19.0904687 18.5657813,18.828125 18.2421875,18.828125 L17.65625,18.828125 L17.65625,17.6171875 L18.2421875,17.6171875 C19.2114453,17.6171875 20,16.8286328 20,15.859375 L20,14.6875 C20,13.7182422 19.2114453,12.9296875 18.2421875,12.9296875 Z M4.1015625,14.1015625 C4.42464844,14.1015625 4.6875,14.3644141 4.6875,14.6875 L4.6875,15.859375 C4.6875,16.1824609 4.42464844,16.4453125 4.1015625,16.4453125 L1.7578125,16.4453125 C1.43472656,16.4453125 1.171875,16.1824609 1.171875,15.859375 L1.171875,14.6875 C1.171875,14.3644141 1.43472656,14.1015625 1.7578125,14.1015625 L4.1015625,14.1015625 Z M6.484375,5.8984375 C6.16128906,5.8984375 5.8984375,5.63558594 5.8984375,5.3125 L5.8984375,1.7578125 C5.8984375,1.43472656 6.16128906,1.171875 6.484375,1.171875 L13.515625,1.171875 C13.8387109,1.171875 14.1015625,1.43472656 14.1015625,1.7578125 L14.1015625,5.3125 C14.1015625,5.63558594 13.8387109,5.8984375 13.515625,5.8984375 C12.1078125,5.8984375 7.88714844,5.8984375 6.484375,5.8984375 Z M11.171875,14.1015625 C11.4949609,14.1015625 11.7578125,14.3644141 11.7578125,14.6875 L11.7578125,15.859375 C11.7578125,16.1824609 11.4949609,16.4453125 11.171875,16.4453125 L8.828125,16.4453125 C8.50503906,16.4453125 8.2421875,16.1824609 8.2421875,15.859375 L8.2421875,14.6875 C8.2421875,14.3644141 8.50503906,14.1015625 8.828125,14.1015625 L11.171875,14.1015625 Z M9.4140625,8.2421875 L9.4140625,7.0703125 L10.5859375,7.0703125 L10.5859375,8.2421875 L9.4140625,8.2421875 Z M18.828125,15.859375 C18.828125,16.1824609 18.5652734,16.4453125 18.2421875,16.4453125 L15.8984375,16.4453125 C15.5753516,16.4453125 15.3125,16.1824609 15.3125,15.859375 L15.3125,14.6875 C15.3125,14.3644141 15.5753516,14.1015625 15.8984375,14.1015625 L18.2421875,14.1015625 C18.5652734,14.1015625 18.828125,14.3644141 18.828125,14.6875 L18.828125,15.859375 Z" id="Shape" fill="#000000" fill-rule="nonzero"></path>
            </g>
        </g>
    </g>
</svg>