<?xml version="1.0" encoding="UTF-8"?>
<svg width="15px" height="20px" viewBox="0 0 15 20" version="1.1" xmlns="http://www.w3.org/2000/svg" xmlns:xlink="http://www.w3.org/1999/xlink">
    <title>ServicesService list</title>
    <defs>
        <filter id="filter-1">
            <feColorMatrix in="SourceGraphic" type="matrix" values="0 0 0 0 1.000000 0 0 0 0 1.000000 0 0 0 0 1.000000 0 0 0 1.000000 0"></feColorMatrix>
        </filter>
    </defs>
    <g id="Page-1" stroke="none" stroke-width="1" fill="none" fill-rule="evenodd">
        <g filter="url(#filter-1)" id="Service-list">
            <g>
                <path d="M10.805,1.51196078 L9.34519608,1.51196078 C9.16303922,1.50632353 9.00651961,1.38107843 8.96102941,1.20465686 C8.82269608,0.485980392 8.18147059,-0.0248529412 7.45004902,0.000980392157 C6.71421569,-0.0119117647 6.07612745,0.507205882 5.93906863,1.23029412 C5.89171569,1.40186275 5.7327451,1.51843137 5.55490196,1.5120098 L4.14632353,1.5120098 L4.14632353,4.07303922 L10.805,4.07303922 L10.805,1.51196078 Z" id="Path" fill="#000000" fill-rule="nonzero"></path>
                <path d="M14.9026471,18.7732353 L14.9026471,4.09857843 C14.9042157,3.51867647 14.4353431,3.04730392 13.8554412,3.04571438 C13.8288725,3.04571438 13.8023039,3.04661765 13.7757843,3.04852941 L11.5732843,3.04852941 L11.5732843,4.35465686 C11.5732843,4.55955882 11.4452451,4.84127451 11.2403431,4.84127451 L3.68534314,4.84127451 C3.48044118,4.84127451 3.37803922,4.55955882 3.37803922,4.35465686 L3.37803922,3.04857843 L1.17553922,3.04857843 C0.597205882,3.00612745 0.0939215686,3.44058824 0.0515196078,4.01897059 C0.0495588235,4.0454902 0.048627451,4.07205882 0.0487254902,4.09862745 L0.0487254902,18.7732843 C0.0344117647,19.4096078 0.538676471,19.9370588 1.175,19.9513235 C1.17519608,19.9513235 1.17539216,19.9513235 1.17558824,19.9513235 L13.7758333,19.9513235 C14.4121569,19.9373529 14.9166667,19.4101471 14.9026961,18.7738235 C14.9026471,18.7736275 14.9026471,18.7734314 14.9026471,18.7732353 Z M5.40122549,15.3926961 L3.40362745,17.2622549 C3.3397549,17.3386765 3.24696078,17.385049 3.14754902,17.3902941 C3.04053922,17.3860784 2.93941176,17.340098 2.86583333,17.2622549 L1.81583333,16.1866176 C1.67627451,16.0303431 1.68769608,15.7910784 1.84142157,15.6488235 C1.99078431,15.502402 2.22985294,15.502402 2.37921569,15.6488235 L3.1475,16.4683333 L4.88901961,14.8292647 C5.06362745,14.7087745 5.30289216,14.752598 5.42338235,14.9272059 C5.52171569,15.0696569 5.51259804,15.2602451 5.40122549,15.3926961 Z M5.40122549,11.295049 L5.40122549,11.295049 L3.40362745,13.1646078 C3.3397549,13.2410294 3.24696078,13.287402 3.14754902,13.2926471 C3.04053922,13.2884314 2.93941176,13.242451 2.86583333,13.1646078 L1.81583333,12.0889706 C1.67627451,11.9326961 1.68769608,11.6934314 1.84142157,11.5511765 C1.99078431,11.4047549 2.22985294,11.4047549 2.37921569,11.5511765 L3.1475,12.3706863 L4.88901961,10.7316176 C5.06362745,10.6111275 5.30289216,10.654951 5.42338235,10.8295588 C5.52171569,10.9720098 5.51259804,11.162598 5.40122549,11.295049 Z M5.40122549,7.19740196 L3.40362745,9.06696078 C3.3397549,9.14338235 3.24696078,9.1897549 3.14754902,9.195 C3.04053922,9.19078431 2.93941176,9.14480392 2.86583333,9.06696078 L1.81583333,7.99132353 C1.67627451,7.83504902 1.68769608,7.59578431 1.84142157,7.45352941 C1.99078431,7.30710784 2.22985294,7.30710784 2.37921569,7.45352941 L3.1475,8.27303922 L4.88901961,6.63397059 C5.06362745,6.51348039 5.30289216,6.55730392 5.42338235,6.73191176 C5.52171569,6.87436275 5.51259804,7.06495098 5.40122549,7.19740196 Z M12.8538235,16.8780882 L6.96343137,16.8780882 C6.75127451,16.8780882 6.57926471,16.7060784 6.57926471,16.4939216 C6.57926471,16.2817647 6.75127451,16.1097549 6.96343137,16.1097549 L12.8537745,16.1097549 C13.0659314,16.1097549 13.2379412,16.2817647 13.2379412,16.4939216 C13.2379412,16.7060784 13.0659804,16.8780882 12.8538235,16.8780882 Z M12.8538235,12.7804412 L6.96343137,12.7804412 C6.75127451,12.7804412 6.57926471,12.6084314 6.57926471,12.3962745 C6.57926471,12.1841176 6.75127451,12.0121078 6.96343137,12.0121078 L12.8537745,12.0121078 C13.0659314,12.0121078 13.2379412,12.1841176 13.2379412,12.3962745 C13.2379412,12.6084314 13.0659804,12.7804412 12.8538235,12.7804412 Z M12.8538235,8.68279412 L6.96343137,8.68279412 C6.75127451,8.68279412 6.57926471,8.51078431 6.57926471,8.29862745 C6.57926471,8.08647059 6.75127451,7.91446078 6.96343137,7.91446078 L12.8537745,7.91446078 C13.0659314,7.91446078 13.2379412,8.08647059 13.2379412,8.29862745 C13.2379412,8.51083333 13.0659804,8.68279412 12.8538235,8.68279412 Z" id="Shape" fill="#000000" fill-rule="nonzero"></path>
            </g>
        </g>
    </g>
</svg>