<?xml version="1.0" encoding="UTF-8"?>
<svg width="27px" height="20px" viewBox="0 0 27 20" version="1.1" xmlns="http://www.w3.org/2000/svg" xmlns:xlink="http://www.w3.org/1999/xlink">
    <title>ServicesLeads</title>
    <defs>
        <filter id="filter-1">
            <feColorMatrix in="SourceGraphic" type="matrix" values="0 0 0 0 1.000000 0 0 0 0 1.000000 0 0 0 0 1.000000 0 0 0 1.000000 0"></feColorMatrix>
        </filter>
    </defs>
    <g id="Page-1" stroke="none" stroke-width="1" fill="none" fill-rule="evenodd">
        <g filter="url(#filter-1)" id="Leads">
            <g>
                <path d="M24.8957895,11.9848947 L23.6966316,11.7632105 C23.6075789,11.7467368 23.5428947,11.669 23.5428947,11.5784211 L23.5428947,11.5089474 C24.2914737,11.0321053 24.7895263,10.1953684 24.7895263,9.24394737 L24.7895263,8.34742105 C24.7895263,6.86731579 23.5853684,5.66321053 22.1053158,5.66321053 C20.6252632,5.66321053 19.4211053,6.86731579 19.4211053,8.34742105 L19.4211053,9.24394737 C19.4211053,10.1951579 19.9188947,11.0317368 20.6671579,11.5086316 L20.6671579,11.5784737 C20.6671579,11.6691053 20.6024737,11.7467895 20.5133684,11.7632632 L19.3147368,11.9848947 C18.6904211,12.1003158 18.1562632,12.4414211 17.7895263,12.9141579 C17.4227895,12.4413684 16.8886316,12.1003158 16.2642632,11.9848947 L15.0651053,11.7632105 C14.9760526,11.7467368 14.9113684,11.669 14.9113684,11.5784211 L14.9113684,11.5089474 C15.6599474,11.0321053 16.158,10.1953684 16.158,9.24394737 L16.158,8.34742105 C16.158,6.86731579 14.9538421,5.66321053 13.4737895,5.66321053 C11.9937368,5.66321053 10.7895789,6.86731579 10.7895789,8.34742105 L10.7895789,9.24394737 C10.7895789,10.1951579 11.2873684,11.0317368 12.0356316,11.5086316 L12.0356316,11.5784737 C12.0356316,11.6691053 11.9709474,11.7467895 11.8818421,11.7632632 L10.6832105,11.9848947 C10.0588947,12.1003158 9.52473684,12.4414211 9.158,12.9141579 C8.79126316,12.4413684 8.25710526,12.1003158 7.63273684,11.9848947 L6.43357895,11.7632105 C6.34452632,11.7467368 6.27984211,11.669 6.27984211,11.5784211 L6.27984211,11.5089474 C7.02842105,11.0321053 7.52647368,10.1953684 7.52647368,9.24394737 L7.52647368,8.34742105 C7.52647368,6.86731579 6.32231579,5.66321053 4.84226316,5.66321053 C3.36221053,5.66321053 2.15805263,6.86731579 2.15805263,8.34742105 L2.15805263,9.24394737 C2.15805263,10.1951579 2.65584211,11.0317368 3.40410526,11.5086316 L3.40410526,11.5784737 C3.40410526,11.6691053 3.33942105,11.7467895 3.25031579,11.7632632 L2.05168421,11.9848947 C0.862789474,12.2046842 0,13.2416316 0,14.4505263 L0,19.4605789 C0,19.7512632 0.235684211,19.9868947 0.526315789,19.9868947 L26.4210526,19.9868947 C26.7116842,19.9868947 26.9473684,19.7512632 26.9473684,19.4605789 L26.9473684,14.4505789 C26.9473684,13.2416316 26.0845263,12.2046842 24.8957895,11.9848947 Z M4.84210526,6.71584211 C5.59126316,6.71584211 6.22421053,7.22342105 6.41489474,7.91273684 L5.82305263,7.56505263 C5.60142105,7.43478947 5.31815789,7.48378947 5.15305263,7.68078947 C4.80168421,8.10010526 4.28636842,8.34063158 3.73931579,8.34063158 L3.21052632,8.34063158 C3.21426316,7.44410526 3.94473684,6.71584211 4.84210526,6.71584211 Z M3.21763158,9.39321053 L3.73926316,9.39321053 C4.44621053,9.39321053 5.11936842,9.13757895 5.64315789,8.68015789 L6.47368421,9.16810526 L6.47368421,9.24394737 C6.47368421,10.1435789 5.74178947,10.8755263 4.84210526,10.8755263 C3.99278947,10.8755263 3.29331579,10.2231053 3.21763158,9.39321053 Z M5.31878947,12.044 L4.84226316,12.5045789 L4.36505263,12.0435263 C4.38478947,11.9948947 4.40205263,11.9451579 4.41552632,11.8938421 C4.55452632,11.9161579 4.69694737,11.9281053 4.84210526,11.9281053 C4.98710526,11.9281053 5.12931579,11.9161579 5.26810526,11.8939474 C5.28163158,11.9453684 5.299,11.9952632 5.31878947,12.044 Z M8.63152632,18.9342632 L7.96231579,18.9342632 L7.78694737,18.9342632 L7.78694737,15.4348421 L7.78694737,15.3066316 C7.78694737,15.0159474 7.55126316,14.7803158 7.26063158,14.7803158 C6.97,14.7803158 6.73431579,15.0159474 6.73431579,15.3066316 L6.73431579,15.4348421 L6.73431579,18.9342632 L2.94989474,18.9342632 L2.94989474,15.4348421 L2.94989474,15.3066316 C2.94989474,15.0159474 2.71421053,14.7803158 2.42357895,14.7803158 C2.13294737,14.7803158 1.89726316,15.0159474 1.89726316,15.3066316 L1.89726316,15.4348421 L1.89726316,18.9342632 L1.05263158,18.9342632 L1.05263158,14.4505263 C1.05263158,13.7491579 1.55321053,13.1475263 2.24289474,13.02 L3.44152632,12.7983684 C3.49294737,12.7888421 3.54257895,12.7752105 3.59131579,12.7597368 L4.31594737,13.4598421 L4.31594737,15.0593684 C4.31594737,15.3500526 4.55163158,15.5856842 4.84226316,15.5856842 C5.13289474,15.5856842 5.36857895,15.3500526 5.36857895,15.0593684 L5.36857895,13.4597368 L6.09273684,12.7598421 C6.14136842,12.7752632 6.19089474,12.7888421 6.24210526,12.7983158 L7.44121053,13.02 C8.13089474,13.1474737 8.63152632,13.7491579 8.63152632,14.4505263 L8.63152632,18.9342632 L8.63152632,18.9342632 Z M13.4736842,6.71584211 C14.2228421,6.71584211 14.8557895,7.22342105 15.0464737,7.91273684 L14.4546316,7.56505263 C14.233,7.43478947 13.9497368,7.48378947 13.7846316,7.68078947 C13.4332632,8.10010526 12.9179474,8.34063158 12.3708947,8.34063158 L11.8421053,8.34063158 C11.8458421,7.44410526 12.5763158,6.71584211 13.4736842,6.71584211 Z M11.8492105,9.39321053 L12.3708421,9.39321053 C13.0777895,9.39321053 13.7509474,9.13757895 14.2747368,8.68015789 L15.1052632,9.16810526 L15.1052632,9.24394737 C15.1052632,10.1435789 14.3733684,10.8755263 13.4736842,10.8755263 C12.6243684,10.8755263 11.9248947,10.2231053 11.8492105,9.39321053 Z M13.9503684,12.044 L13.4738421,12.5045789 L12.9966316,12.0435263 C13.0163684,11.9948947 13.0336316,11.9451579 13.0471053,11.8938421 C13.1861053,11.9161579 13.3285263,11.9281053 13.4736842,11.9281053 C13.6186842,11.9281053 13.7608947,11.9161579 13.8996842,11.8939474 C13.9132105,11.9453684 13.9305789,11.9952632 13.9503684,12.044 Z M17.2631053,18.9342632 L16.5938947,18.9342632 L16.4185263,18.9342632 L16.4185263,15.4348421 L16.4185263,15.3066316 C16.4185263,15.0159474 16.1828421,14.7803158 15.8922105,14.7803158 C15.6015789,14.7803158 15.3658947,15.0159474 15.3658947,15.3066316 L15.3658947,15.4348421 L15.3658947,18.9342632 L11.5814737,18.9342632 L11.5814737,15.4348421 L11.5814737,15.3066316 C11.5814737,15.0159474 11.3457895,14.7803158 11.0551579,14.7803158 C10.7645263,14.7803158 10.5288421,15.0159474 10.5288421,15.3066316 L10.5288421,15.4348421 L10.5288421,18.9342632 L9.68421053,18.9342632 L9.68421053,14.4505789 L9.68421053,14.4505263 C9.68421053,13.7491579 10.1847895,13.1475263 10.8744737,13.02 L12.0731053,12.7983684 C12.1245263,12.7888421 12.1741579,12.7752105 12.2228947,12.7597368 L12.9473684,13.4596316 L12.9473684,15.0593684 C12.9473684,15.3500526 13.1830526,15.5856842 13.4736842,15.5856842 C13.7643158,15.5856842 14,15.3500526 14,15.0593684 L14,13.4599474 L14.7243158,12.7598421 C14.7729474,12.7752632 14.8224737,12.7888421 14.8736842,12.7983158 L16.0727895,13.02 C16.7624737,13.1474737 17.2631053,13.7491579 17.2631053,14.4505263 L17.2631053,18.9342632 Z M22.1052632,6.71584211 C22.8544211,6.71584211 23.4873684,7.22342105 23.6780526,7.91273684 L23.0862105,7.56505263 C22.8646316,7.43478947 22.5813158,7.48378947 22.4162105,7.68078947 C22.0648421,8.10010526 21.5495263,8.34063158 21.0024737,8.34063158 L20.4736842,8.34063158 C20.4774211,7.44410526 21.2078947,6.71584211 22.1052632,6.71584211 Z M20.4807895,9.39321053 L21.0024211,9.39321053 C21.7093684,9.39321053 22.3825263,9.13757895 22.9063158,8.68015789 L23.7368421,9.16810526 L23.7368421,9.24394737 C23.7368421,10.1435789 23.0049474,10.8755263 22.1052632,10.8755263 C21.2559474,10.8755263 20.5564737,10.2231053 20.4807895,9.39321053 Z M22.5819474,12.044 L22.1054211,12.5045789 L21.6282105,12.0435263 C21.6479474,11.9948947 21.6652105,11.9451579 21.6786842,11.8938421 C21.8176842,11.9161579 21.9601053,11.9281053 22.1052632,11.9281053 C22.2502632,11.9281053 22.3924737,11.9161579 22.5312632,11.8939474 C22.5447895,11.9453684 22.5621579,11.9952632 22.5819474,12.044 Z M25.8946842,18.9342632 L25.5368947,18.9342632 L25.0501053,18.9342632 L25.0501053,15.4348421 L25.0501053,15.3066316 C25.0501053,15.0159474 24.8144211,14.7803158 24.5237895,14.7803158 C24.2331579,14.7803158 23.9974737,15.0159474 23.9974737,15.3066316 L23.9974737,15.4348421 L23.9974737,18.9342632 L20.2130526,18.9342632 L20.2130526,15.4348421 L20.2130526,15.3066316 C20.2130526,15.0159474 19.9773684,14.7803158 19.6867368,14.7803158 C19.3961053,14.7803158 19.1604211,15.0159474 19.1604211,15.3066316 L19.1604211,15.4348421 L19.1604211,18.9342632 L18.9342105,18.9342632 L18.3157895,18.9342632 L18.3157895,14.4505789 L18.3157895,14.4505263 C18.3157895,13.7491579 18.8163684,13.1475263 19.5060526,13.02 L20.7046842,12.7983684 C20.7561053,12.7888421 20.8057368,12.7752105 20.8544737,12.7597368 L21.7092105,13.5855263 L21.7092105,15.0593684 C21.7092105,15.3500526 21.9448947,15.5856842 22.2355263,15.5856842 C22.5261579,15.5856842 22.7618421,15.3500526 22.7618421,15.0593684 L22.7618421,13.334 L23.3558947,12.7598421 C23.4045263,12.7752632 23.4540526,12.7888421 23.5052632,12.7983158 L24.7043684,13.02 C25.3940526,13.1474737 25.8946842,13.7491579 25.8946842,14.4505263 L25.8946842,18.9342632 Z" id="Shape" fill="#000000" fill-rule="nonzero"></path>
                <path d="M9.15789474,0.0131052632 C7.67784211,0.0131052632 6.47368421,1.21721053 6.47368421,2.69731579 L6.47368421,3.59384211 C6.47368421,5.07394737 7.67784211,6.27805263 9.15789474,6.27805263 C10.6379474,6.27805263 11.8421053,5.07394737 11.8421053,3.59384211 L11.8421053,2.69731579 C11.8421053,1.21721053 10.6379474,0.0131052632 9.15789474,0.0131052632 Z M9.15789474,1.06573684 C9.90705263,1.06573684 10.54,1.57331579 10.7306842,2.26263158 L10.1388421,1.91494737 C9.91721053,1.78473684 9.63394737,1.83368421 9.46884211,2.03068421 C9.11747368,2.45 8.60215789,2.69052632 8.05510526,2.69052632 L7.52631579,2.69052632 C7.53005263,1.794 8.26052632,1.06573684 9.15789474,1.06573684 Z M10.7894737,3.59384211 C10.7894737,4.49347368 10.0575789,5.22542105 9.15789474,5.22542105 C8.30857895,5.22542105 7.60910526,4.573 7.53342105,3.74310526 L8.05505263,3.74310526 C8.762,3.74310526 9.43515789,3.48747368 9.95894737,3.03005263 L10.7894737,3.518 L10.7894737,3.59384211 Z" id="Shape" fill="#000000" fill-rule="nonzero"></path>
                <path d="M17.7894737,0.0131052632 C16.3094211,0.0131052632 15.1052632,1.21721053 15.1052632,2.69731579 L15.1052632,3.59384211 C15.1052632,5.07394737 16.3094211,6.27805263 17.7894737,6.27805263 C19.2695263,6.27805263 20.4736842,5.07394737 20.4736842,3.59384211 L20.4736842,2.69731579 C20.4736842,1.21721053 19.2695263,0.0131052632 17.7894737,0.0131052632 Z M17.7894737,1.06573684 C18.5386316,1.06573684 19.1715789,1.57331579 19.3622632,2.26263158 L18.7704211,1.91494737 C18.5488421,1.78473684 18.2655263,1.83368421 18.1004211,2.03068421 C17.7490526,2.45 17.2337368,2.69052632 16.6866842,2.69052632 L16.1578947,2.69052632 C16.1616316,1.794 16.8921053,1.06573684 17.7894737,1.06573684 Z M19.4210526,3.59384211 C19.4210526,4.49347368 18.6891579,5.22542105 17.7894737,5.22542105 C16.9401579,5.22542105 16.2406842,4.573 16.165,3.74310526 L16.6866316,3.74310526 C17.3935789,3.74310526 18.0667368,3.48747368 18.5905263,3.03005263 L19.4210526,3.518 L19.4210526,3.59384211 L19.4210526,3.59384211 Z" id="Shape" fill="#000000" fill-rule="nonzero"></path>
                <path d="M9.15789474,7.15978947 C8.86726316,7.15978947 8.63157895,7.39542105 8.63157895,7.68610526 L8.63157895,9.51321053 C8.63157895,9.80389474 8.86726316,10.0395263 9.15789474,10.0395263 C9.44852632,10.0395263 9.68421053,9.80389474 9.68421053,9.51321053 L9.68421053,7.68610526 C9.68421053,7.39542105 9.44852632,7.15978947 9.15789474,7.15978947 Z" id="Path" fill="#000000" fill-rule="nonzero"></path>
                <path d="M9.52994737,10.8226842 C9.43210526,10.7242632 9.29631579,10.6684737 9.15789474,10.6684737 C9.01947368,10.6684737 8.88368421,10.7242632 8.78578947,10.8226842 C8.68789474,10.9205789 8.63157895,11.0563684 8.63157895,11.1947895 C8.63157895,11.3332105 8.68784211,11.469 8.78578947,11.5668947 C8.88368421,11.6647895 9.01947368,11.7211053 9.15789474,11.7211053 C9.29631579,11.7211053 9.43210526,11.6647895 9.52994737,11.5668947 C9.62784211,11.469 9.68421053,11.3332105 9.68421053,11.1947895 C9.68421053,11.0563684 9.62789474,10.9205789 9.52994737,10.8226842 Z" id="Path" fill="#000000" fill-rule="nonzero"></path>
                <path d="M17.7894737,8.84121053 C17.4988421,8.84121053 17.2631579,9.07684211 17.2631579,9.36752632 L17.2631579,11.1946316 C17.2631579,11.4853158 17.4988421,11.7209474 17.7894737,11.7209474 C18.0801053,11.7209474 18.3157895,11.4853158 18.3157895,11.1946316 L18.3157895,9.36752632 C18.3157895,9.07684211 18.0801053,8.84121053 17.7894737,8.84121053 Z" id="Path" fill="#000000" fill-rule="nonzero"></path>
                <path d="M18.1615263,7.31373684 C18.0636842,7.21584211 17.9278947,7.16005263 17.7894737,7.16005263 C17.6510526,7.16005263 17.5152632,7.21584211 17.4173684,7.31373684 C17.3194737,7.41215789 17.2631579,7.54742105 17.2631579,7.68584211 C17.2631579,7.82478947 17.3194211,7.96057895 17.4173684,8.05794737 C17.5152632,8.15636842 17.6510526,8.21215789 17.7894737,8.21215789 C17.9278947,8.21215789 18.0636842,8.15636842 18.1615263,8.05794737 C18.2594211,7.96005263 18.3157895,7.82478947 18.3157895,7.68584211 C18.3157895,7.54742105 18.2594737,7.41215789 18.1615263,7.31373684 Z" id="Path" fill="#000000" fill-rule="nonzero"></path>
            </g>
        </g>
    </g>
</svg>