<svg xmlns="http://www.w3.org/2000/svg" width="20" height="18" viewBox="0 0 20 18">
    <g fill="none" fill-rule="evenodd">
        <g fill="#FFF" fill-rule="nonzero">
            <g>
                <path d="M19.687 2.718c-.268-.333-.667-.524-1.094-.524H3.35l-.136-.978C3.117.523 2.518 0 1.82 0H.625C.28 0 0 .28 0 .627c0 .346.28.627.625.627H1.82c.078 0 .144.058.155.135l1.687 12.129c.096.693.695 1.216 1.393 1.216h.677c-.069.196-.107.407-.107.627 0 1.037.841 1.88 1.875 1.88s1.875-.843 1.875-1.88c0-.22-.038-.431-.108-.627h3.34c-.069.196-.107.407-.107.627 0 1.037.841 1.88 1.875 1.88s1.875-.843 1.875-1.88c0-.22-.038-.431-.108-.627H17.5c.345 0 .625-.281.625-.627 0-.347-.28-.627-.625-.627H5.055c-.078 0-.144-.058-.155-.135l-.156-1.12h12.309c.659 0 1.237-.468 1.375-1.114l1.54-7.21c.09-.419-.013-.85-.28-1.183zM8.125 15.361c0 .345-.28.626-.625.626s-.625-.28-.625-.626.28-.627.625-.627.625.28.625.627zm6.875 0c0 .345-.28.626-.625.626s-.625-.28-.625-.626.28-.627.625-.627.625.28.625.627zm3.746-11.723l-1.54 7.21c-.015.072-.08.124-.153.124H4.57L3.523 3.448h15.07c.062 0 .1.032.122.058.021.027.044.071.031.132z" transform="translate(-102 -578) translate(102 578)"/>
            </g>
        </g>
    </g>
</svg>
