<svg xmlns="http://www.w3.org/2000/svg" width="17" height="17" viewBox="0 0 17 17">
    <g fill="#53A50B">
        <path d="M5.096 13.59c-.938 0-1.69.76-1.69 1.698 0 .939.752 1.699 1.69 1.699a1.698 1.698 0 100-3.398zM6.03 9.343h6.328c.637 0 1.193-.353 1.486-.875l3.037-5.512a.85.85 0 00-.743-1.257H3.58L2.773 0H0v1.699h1.699L4.752 8.14l-1.147 2.08a1.727 1.727 0 00-.208.82c0 .939.76 1.699 1.699 1.699h10.192v-1.699H5.457a.21.21 0 01-.212-.212c0-.038.008-.072.025-.102l.76-1.384zM13.59 13.59c-.94 0-1.69.76-1.69 1.698 0 .939.75 1.699 1.69 1.699a1.698 1.698 0 100-3.398z"/>
    </g>
</svg>
