<svg id="blogger-logotype" xmlns="http://www.w3.org/2000/svg" width="26" height="26" viewBox="0 0 26 26">
  <g id="Group_201" data-name="Group 201">
    <path id="Path_46" data-name="Path 46" d="M32.271,31.725l3.744,0a1.537,1.537,0,0,0,1.587-1.5,1.643,1.643,0,0,0-1.562-1.675l-3.719,0a1.587,1.587,0,1,0-.05,3.174Z" transform="translate(-22.586 -20.97)" fill="#232220"/>
    <path id="Path_47" data-name="Path 47" d="M38.171,55.48H30.733a1.587,1.587,0,1,0,0,3.174h7.438a1.587,1.587,0,1,0,0-3.174Z" transform="translate(-21.476 -40.755)" fill="#232220"/>
    <path id="Path_48" data-name="Path 48" d="M13,0A13,13,0,1,0,26,13,13,13,0,0,0,13,0Zm7.422,20.486a5.618,5.618,0,0,1-4.1,1.6H9.635a5.662,5.662,0,0,1-4.316-1.576c-.983-1.047-1.3-2.462-1.3-4.428,0-.136-.011-.268,0-.4l0-6.913A5.093,5.093,0,0,1,5.446,5.392,5.163,5.163,0,0,1,9.362,3.913h.046l4.285,0h.04a4.713,4.713,0,0,1,4.84,4.74,7.1,7.1,0,0,1-.131,2.248A3.525,3.525,0,0,1,21.3,12.065c.665.859.669,1.836.675,3.188,0,.277.009.981.009.981A6.037,6.037,0,0,1,20.422,20.486Z" fill="#232220"/>
  </g>
</svg>
