<svg xmlns="http://www.w3.org/2000/svg" width="26" height="28" viewBox="0 0 26 28">
    <g fill="none" fill-rule="evenodd">
        <g fill-rule="nonzero">
            <g transform="translate(-1025 -82) translate(1025 82.618)">
                <circle cx="8.603" cy="23.515" r="2.868" fill="#B1A58A"/>
                <circle cx="20.074" cy="23.515" r="2.868" fill="#B1A58A"/>
                <path fill="#FFF" stroke="#AEA286" stroke-width="1.147" d="M2.74.574c.48.012.931.176 1.302.453.38.284.674.686.829 1.163h0l1.097 3.396 18.548.283-1.155 4.967c-.078.344-.26.642-.508.862-.245.218-.555.359-.903.39h0L8.46 13.51l.442 1.129c.005.04 0 .08-.014.12h0l-.373.952c-.263.677-.186 1.441.205 2.049.378.625 1.04 1.013 1.76 1.035H22.7c.014 0 .025.006.033.015.013.013.02.031.02.05 0 .02-.007.038-.02.051-.008.01-.02.015-.033.015h0-12.201c-.758-.026-1.455-.427-1.871-1.073-.407-.686-.48-1.526-.201-2.272h0l.354-.923L4.77 2.214c-.15-.443-.427-.813-.78-1.077C3.63.871 3.194.714 2.73.705h0H.955z"/>
            </g>
        </g>
    </g>
</svg>
