<svg xmlns="http://www.w3.org/2000/svg" width="39.236" height="24.196" viewBox="0 0 39.236 24.196">
  <g id="Group_230" data-name="Group 230" transform="translate(-957 -31)">
    <rect id="Rectangle_86" data-name="Rectangle 86" width="25" height="15" transform="translate(970 32)" fill="#fff"/>
    <g id="Free_delivery" data-name="Free delivery" transform="translate(957 31)">
      <circle id="Ellipse_25" data-name="Ellipse 25" cx="1.5" cy="1.5" r="1.5" transform="translate(6 19)" fill="#b1a58a"/>
      <circle id="Ellipse_26" data-name="Ellipse 26" cx="1.5" cy="1.5" r="1.5" transform="translate(28 19)" fill="#b1a58a"/>
      <path id="Path_50" data-name="Path 50" d="M40.582,25H14.425a.654.654,0,0,0-.654.654v4.578H7.232a.654.654,0,0,0-.6.383l-3.27,7.193v.008a.654.654,0,0,0-.059.263V43.31H2.654A.654.654,0,0,0,2,43.964v1.308a1.962,1.962,0,0,0,1.962,1.962H5.8a3.914,3.914,0,0,0,6.785,0H28.035a3.914,3.914,0,0,0,6.785,0h3.147a1.962,1.962,0,0,0,1.962-1.962v-.654h.654a.654.654,0,0,0,.654-.654V25.654A.654.654,0,0,0,40.582,25Zm-25.5,1.308h24.85V40.695H15.079Zm12.956,17H15.079V42H29.263a3.951,3.951,0,0,0-1.228,1.308ZM7.653,31.539h3.5v5.885H4.977ZM4.616,38.733h7.193a.654.654,0,0,0,.654-.654V31.539h1.308V43.31H12.586a3.914,3.914,0,0,0-6.785,0H4.616Zm-.654,7.193a.654.654,0,0,1-.654-.654v-.654H5.329a3.662,3.662,0,0,0,0,1.308Zm5.232,1.962a2.616,2.616,0,1,1,2.616-2.616A2.616,2.616,0,0,1,9.193,47.888Zm3.865-1.962a3.662,3.662,0,0,0,0-1.308h14.5a3.662,3.662,0,0,0,0,1.308Zm18.369,1.962a2.616,2.616,0,1,1,2.616-2.616A2.616,2.616,0,0,1,31.427,47.888Zm7.193-2.616a.654.654,0,0,1-.654.654H35.292a3.662,3.662,0,0,0,0-1.308h3.329Zm1.308-1.962H34.82A3.95,3.95,0,0,0,33.592,42h6.337Z" transform="translate(-2 -25)" fill="#b1a58a"/>
      <path id="Path_51" data-name="Path 51" d="M27.654,39.539a.654.654,0,0,0,.654-.654V36.924h1.308a.654.654,0,0,0,0-1.308H28.308V34.308H30.27a.654.654,0,0,0,0-1.308H27.654a.654.654,0,0,0-.654.654v5.232A.654.654,0,0,0,27.654,39.539Z" transform="translate(-10.652 -27.768)" fill="#b1a58a"/>
      <path id="Path_52" data-name="Path 52" d="M34.654,39.539a.654.654,0,0,0,.654-.654V37.36l1.439,1.918a.654.654,0,0,0,1.046-.785l-1.25-1.667A1.957,1.957,0,0,0,35.962,33H34.654a.654.654,0,0,0-.654.654v5.232A.654.654,0,0,0,34.654,39.539Zm1.962-4.578a.654.654,0,0,1-.654.654h-.654V34.308h.654A.654.654,0,0,1,36.616,34.962Z" transform="translate(-13.074 -27.768)" fill="#b1a58a"/>
      <path id="Path_53" data-name="Path 53" d="M42.654,39.539H45.27a.654.654,0,1,0,0-1.308H43.308V36.924h1.308a.654.654,0,0,0,0-1.308H43.308V34.308H45.27a.654.654,0,1,0,0-1.308H42.654a.654.654,0,0,0-.654.654v5.232A.654.654,0,0,0,42.654,39.539Z" transform="translate(-15.842 -27.768)" fill="#b1a58a"/>
      <path id="Path_54" data-name="Path 54" d="M49.654,39.539H52.27a.654.654,0,0,0,0-1.308H50.308V36.924h1.308a.654.654,0,1,0,0-1.308H50.308V34.308H52.27a.654.654,0,0,0,0-1.308H49.654a.654.654,0,0,0-.654.654v5.232A.654.654,0,0,0,49.654,39.539Z" transform="translate(-18.265 -27.768)" fill="#b1a58a"/>
    </g>
  </g>
</svg>
