<svg xmlns="http://www.w3.org/2000/svg" width="26" height="23" viewBox="0 0 26 23">
    <g fill="none" fill-rule="evenodd">
        <g fill="#FFF" fill-rule="nonzero" stroke="#CEC5B0" stroke-width="1.118">
            <g>
                <path d="M17.236 0c1.759 0 3.365.702 4.522 1.976 1.104 1.216 1.713 2.844 1.713 4.585 0 1.895-.763 3.657-2.4 5.546-1.463 1.688-3.568 3.429-6.005 5.444-.909.75-1.848 1.527-2.848 2.376h0l-.03.026c-.13.11-.291.165-.453.165-.161 0-.323-.055-.453-.165h0l-.03-.026c-1-.849-1.939-1.625-2.847-2.376-2.437-2.015-4.542-3.756-6.005-5.444C.762 10.218 0 8.456 0 6.561c0-1.74.608-3.369 1.712-4.585C2.87.702 4.476 0 6.234 0c2.473 0 4.04 1.433 4.917 2.635.228.312.422.625.584.92.163-.295.357-.608.585-.92C13.197 1.433 14.763 0 17.236 0z" transform="translate(-972 -87) translate(973 88.882)"/>
            </g>
        </g>
    </g>
</svg>
