<svg id="instagram_1_" data-name="instagram (1)" xmlns="http://www.w3.org/2000/svg" width="26" height="26" viewBox="0 0 26 26">
  <path id="Path_49" data-name="Path 49" d="M211.986,209.493A2.493,2.493,0,1,1,209.493,207,2.493,2.493,0,0,1,211.986,209.493Zm0,0" transform="translate(-196.493 -196.493)" fill="#232220"/>
  <path id="Path_50" data-name="Path 50" d="M147.446,137.209a2.477,2.477,0,0,0-1.419-1.419,4.137,4.137,0,0,0-1.389-.257c-.789-.036-1.025-.044-3.022-.044s-2.234.008-3.022.044a4.14,4.14,0,0,0-1.389.258,2.478,2.478,0,0,0-1.42,1.419,4.139,4.139,0,0,0-.257,1.389c-.036.789-.044,1.025-.044,3.022s.008,2.233.044,3.022a4.138,4.138,0,0,0,.257,1.389,2.477,2.477,0,0,0,1.419,1.419,4.133,4.133,0,0,0,1.389.258c.789.036,1.025.044,3.022.044s2.234-.008,3.022-.044a4.133,4.133,0,0,0,1.389-.258,2.477,2.477,0,0,0,1.419-1.419,4.141,4.141,0,0,0,.258-1.389c.036-.789.044-1.025.044-3.022s-.008-2.234-.044-3.022A4.132,4.132,0,0,0,147.446,137.209Zm-5.83,8.251a3.84,3.84,0,1,1,3.84-3.84A3.84,3.84,0,0,1,141.616,145.46Zm3.992-6.935a.9.9,0,1,1,.9-.9A.9.9,0,0,1,145.608,138.525Zm0,0" transform="translate(-128.616 -128.62)" fill="#232220"/>
  <path id="Path_51" data-name="Path 51" d="M13,0A13,13,0,1,0,26,13,13,13,0,0,0,13,0Zm7.42,16.078a5.477,5.477,0,0,1-.347,1.812,3.817,3.817,0,0,1-2.183,2.183,5.48,5.48,0,0,1-1.812.347c-.8.036-1.05.045-3.078.045s-2.282-.009-3.078-.045a5.48,5.48,0,0,1-1.812-.347A3.817,3.817,0,0,1,5.927,17.89a5.475,5.475,0,0,1-.347-1.812c-.037-.8-.045-1.051-.045-3.078s.009-2.282.045-3.078A5.477,5.477,0,0,1,5.927,8.11,3.82,3.82,0,0,1,8.11,5.927,5.482,5.482,0,0,1,9.922,5.58c.8-.036,1.05-.045,3.078-.045s2.282.009,3.078.045a5.483,5.483,0,0,1,1.812.347A3.818,3.818,0,0,1,20.073,8.11a5.476,5.476,0,0,1,.347,1.812c.036.8.045,1.05.045,3.078S20.456,15.282,20.42,16.078Zm0,0" fill="#232220"/>
</svg>
