<svg xmlns="http://www.w3.org/2000/svg" width="24.859" height="24.017" viewBox="0 0 24.859 24.017">
  <g id="Group_229" data-name="Group 229" transform="translate(-1029 -22)">
    <g id="shopping-cart" transform="translate(1029 24.762)">
      <circle id="Oval" cx="2.31" cy="2.31" r="2.31" transform="translate(4.621 16.634)" fill="#b1a58a"/>
      <circle id="Oval-2" data-name="Oval" cx="2.31" cy="2.31" r="2.31" transform="translate(13.862 16.634)" fill="#b1a58a"/>
      <g id="Path" fill="#fff" stroke-miterlimit="10">
        <path d="M 6.855125904083252 10.7681131362915 L 4.871822357177734 4.612845897674561 L 5.137059211730957 4.616894721984863 L 19.61137008666992 4.837786674499512 L 18.71286010742188 8.703874588012695 C 18.59663009643555 9.210984230041504 18.18185997009277 9.581504821777344 17.68035888671875 9.627584457397461 L 17.67654991149902 9.627934455871582 L 17.6727294921875 9.628334045410156 L 7.406349182128906 10.71003437042236 L 6.855125904083252 10.7681131362915 Z" stroke="none"/>
        <path d="M 5.66309642791748 5.198525428771973 L 7.258187294006348 10.14894390106201 L 7.346259117126465 10.13966464996338 L 17.61263847351074 9.057964324951172 L 17.62025833129883 9.057154655456543 L 17.62788963317871 9.056454658508301 C 17.88191986083984 9.033114433288574 18.09310913085938 8.84062385559082 18.15421867370605 8.574034690856934 L 18.89179611206055 5.400408744812012 L 5.66309642791748 5.198525428771973 M 0.5044898986816406 4.76837158203125e-06 L 2.194528579711914 4.76837158203125e-06 C 3.182119369506836 0.01439476013183594 4.052579879760742 0.6654443740844727 4.363849639892578 1.622524261474609 L 5.145809173583984 4.043434143066406 L 20.3309383392334 4.275174140930176 L 19.27149963378906 8.833703994750977 C 19.10048866271973 9.57984447479248 18.48031997680664 10.13003444671631 17.73283004760742 10.19870471954346 L 7.466448783874512 11.28040504455566 L 7.617818832397461 11.66673469543457 C 7.646879196166992 11.79524421691895 7.638089179992676 11.92962455749512 7.592609405517578 12.05306434631348 L 7.289938926696777 12.82572460174561 C 7.130799293518066 13.23399448394775 7.177919387817383 13.69599437713623 7.416049003601074 14.06196403503418 C 7.636738777160645 14.43277454376221 8.02549934387207 14.66510486602783 8.450229644775391 14.68008422851563 L 18.28781890869141 14.68008422851563 C 18.56644821166992 14.68008422851563 18.79230880737305 14.91069412231445 18.79230880737305 15.1951847076416 C 18.79230880737305 15.47966480255127 18.56644821166992 15.71026420593262 18.28781890869141 15.71026420593262 L 8.450279235839844 15.71026420593262 C 7.684489250183105 15.68675422668457 6.978229522705078 15.28292465209961 6.558428764343262 14.62857437133789 C 6.154559135437012 13.95401477813721 6.080009460449219 13.12638473510742 6.356609344482422 12.38793468475342 L 6.583629608154297 11.79559421539307 L 3.405319213867188 1.931604385375977 C 3.226058959960938 1.402164459228516 2.743049621582031 1.04255485534668 2.194528579711914 1.030184745788574 L 0.5044898986816406 1.030184745788574 C 0.2258586883544922 1.030184745788574 0 0.7995748519897461 0 0.5150947570800781 C 0 0.2306041717529297 0.2258586883544922 4.76837158203125e-06 0.5044898986816406 4.76837158203125e-06 Z" stroke="none" fill="#aea286"/>
      </g>
    </g>
    <g id="Group_228" data-name="Group 228" transform="translate(1040.048 22)">
      <g id="secure" transform="translate(0 0)">
        <path id="Path_55" data-name="Path 55" d="M45.6,2.106,39.021.034a.314.314,0,0,0-.189,0L32.256,2.106a.344.344,0,0,0-.235.331v7.6c0,3.053,4.434,5.768,6.808,6.545a.314.314,0,0,0,.2,0c2.372-.776,6.806-3.491,6.806-6.545v-7.6A.344.344,0,0,0,45.6,2.106Z" transform="translate(-32.021 -0.019)" fill="#fff"/>
        <path id="Path_58" data-name="Path 58" d="M38.927,16.573a.322.322,0,0,1-.1-.015c-2.374-.776-6.808-3.492-6.808-6.545v-7.6a.344.344,0,0,1,.234-.331L38.832.015a.3.3,0,0,1,.189,0L45.6,2.087a.344.344,0,0,1,.235.331v7.6c0,3.053-4.434,5.768-6.808,6.545A.32.32,0,0,1,38.927,16.573Zm-6.248-13.9v7.339c0,2.424,3.659,4.972,6.248,5.853,2.589-.879,6.248-3.429,6.248-5.853V2.674L38.927.706Z" transform="translate(-32.021 0)" fill="#b1a58a"/>
      </g>
      <g id="Group_227" data-name="Group 227" transform="translate(1.381 1.381)">
        <g id="secure-2" data-name="secure" transform="translate(0 0)">
          <path id="Path_55-2" data-name="Path 55" d="M42.883,1.758,37.621.032a.242.242,0,0,0-.151,0L32.209,1.758a.286.286,0,0,0-.188.276v6.33c0,2.545,3.547,4.807,5.447,5.454a.242.242,0,0,0,.158,0c1.9-.647,5.444-2.909,5.444-5.454V2.033A.286.286,0,0,0,42.883,1.758Z" transform="translate(-32.021 -0.019)" fill="#b1a58a"/>
          <path id="Path_58-2" data-name="Path 58" d="M37.545,13.811a.248.248,0,0,1-.078-.013c-1.9-.647-5.447-2.91-5.447-5.454V2.015a.286.286,0,0,1,.187-.276L37.47.013a.232.232,0,0,1,.151,0l5.261,1.726a.286.286,0,0,1,.188.276v6.33c0,2.544-3.547,4.807-5.447,5.454A.247.247,0,0,1,37.545,13.811Zm-5-11.582V8.344c0,2.02,2.927,4.143,5,4.877,2.071-.732,5-2.858,5-4.877V2.229l-5-1.64Z" transform="translate(-32.021 0)" fill="#b1a58a"/>
        </g>
      </g>
    </g>
  </g>
</svg>
