<svg xmlns="http://www.w3.org/2000/svg" width="77" height="13" viewBox="0 0 77 13">
    <g fill="none" fill-rule="evenodd">
        <g fill="#FBA70D">
            <g>
                <path d="M6.5 9.75L2.679 11.759 3.409 7.504.318 4.491 4.59 3.871 6.5 0 8.41 3.871 12.682 4.491 9.591 7.504 10.321 11.759zM22.5 9.75L18.679 11.759 19.409 7.504 16.318 4.491 20.59 3.871 22.5 0 24.41 3.871 28.682 4.491 25.591 7.504 26.321 11.759zM38.5 9.75L34.679 11.759 35.409 7.504 32.318 4.491 36.59 3.871 38.5 0 40.41 3.871 44.682 4.491 41.591 7.504 42.321 11.759zM54.5 9.75L50.679 11.759 51.409 7.504 48.318 4.491 52.59 3.871 54.5 0 56.41 3.871 60.682 4.491 57.591 7.504 58.321 11.759zM70.5 9.75L66.679 11.759 67.409 7.504 64.318 4.491 68.59 3.871 70.5 0 72.41 3.871 76.682 4.491 73.591 7.504 74.321 11.759z" transform="translate(-86 -1030) translate(86 1030)"/>
            </g>
        </g>
    </g>
</svg>
