<svg id="youtube_1_" data-name="youtube (1)" xmlns="http://www.w3.org/2000/svg" width="26" height="26" viewBox="0 0 26 26">
  <path id="Path_12" data-name="Path 12" d="M224.113,212.956l4.268-2.458-4.268-2.458Zm0,0" transform="translate(-212.753 -197.497)" fill="#232220"/>
  <path id="Path_13" data-name="Path 13" d="M13,0A13,13,0,1,0,26,13,13,13,0,0,0,13,0Zm8.123,13.013a21.456,21.456,0,0,1-.334,3.908,2.036,2.036,0,0,1-1.432,1.432A49.411,49.411,0,0,1,13,18.688a47.642,47.642,0,0,1-6.357-.348,2.036,2.036,0,0,1-1.432-1.432A21.362,21.362,0,0,1,4.877,13a21.442,21.442,0,0,1,.335-3.908A2.077,2.077,0,0,1,6.643,7.647,49.41,49.41,0,0,1,13,7.313a47.541,47.541,0,0,1,6.357.348,2.036,2.036,0,0,1,1.432,1.432,20.361,20.361,0,0,1,.334,3.921Zm0,0" fill="#232220"/>
</svg>
