<svg id="Layer_5" enable-background="new 0 0 64 64" height="512" viewBox="0 0 64 64" width="512" xmlns="http://www.w3.org/2000/svg"><path d="m9 5h2v2h-2z"/><path d="m5 5h2v2h-2z"/><path d="m13 5h2v2h-2z"/><path d="m11 24.468v-.878c2.051-.506 3.975-1.471 5.604-2.819l-1.274-1.541c-1.583 1.309-3.488 2.197-5.51 2.569l-.82.15v2.519c0 1.266.146 2.53.433 3.76l1.947-.455c-.252-1.081-.38-2.192-.38-3.305z"/><path d="m22.03 14.937c-.985-1.231-2.454-1.937-4.03-1.937s-3.045.706-4.03 1.937c-1.557 1.947-3.88 3.063-6.373 3.063h-2.597v6.468c0 7.477 4.064 14.37 10.673 18.021.725.334 1.53.511 2.327.511s1.602-.177 2.392-.544c6.544-3.619 10.608-10.512 10.608-17.988v-6.468h-2.597c-2.493 0-4.816-1.116-6.373-3.063zm6.97 9.531c0 6.749-3.669 12.971-9.51 16.205-.942.435-2.103.401-2.914.033-5.907-3.267-9.576-9.489-9.576-16.238v-4.468h.597c3.104 0 5.996-1.39 7.935-3.813.603-.754 1.503-1.187 2.468-1.187s1.865.433 2.469 1.186c1.938 2.424 4.83 3.814 7.934 3.814h.597z"/><path d="m16 33.586-3.293-3.293-1.414 1.414 4.707 4.707 11.707-11.707-1.414-1.414z"/><path d="m63 44v-40c0-1.654-1.346-3-3-3h-56c-1.654 0-3 1.346-3 3v40c0 1.654 1.346 3 3 3h26.402c-2.094 1.675-3.402 4.247-3.402 7.034v8.966h36v-8.966c0-2.788-1.308-5.359-3.402-7.034h.402c1.654 0 3-1.346 3-3zm-59-41h56c.551 0 1 .449 1 1v3h-42.414l-2 2h-13.586v-5c0-.551.449-1 1-1zm-1 41v-33h14.414l2-2h41.586v35c0 .551-.449 1-1 1h-4.86l-6.14-1.754v-1.681c1.367-1.272 2.434-2.831 3.119-4.565h.881c2.206 0 4-1.794 4-4v-6.877c0-2.767-1.797-5.183-4.412-5.997-2.075-2.59-5.259-4.126-8.588-4.126-6.065 0-11 4.935-11 11v6c0 2.206 1.794 4 4 4h.881c.685 1.734 1.752 3.292 3.119 4.565v1.681l-6.139 1.754h-30.861c-.551 0-1-.449-1-1zm42 3.764-2-4v-.676c.51.312 1.045.591 1.606.831l.394.169.394-.169c.561-.24 1.096-.519 1.606-.831v.676zm-7.721-12.764h-.279c-1.103 0-2-.897-2-2s.897-2 2-2v1.384c0 .892.098 1.767.279 2.616zm15.721-2.616v-1.384c1.103 0 2 .897 2 2s-.897 2-2 2h-.279c.181-.849.279-1.724.279-2.616zm2-2.828c-.591-.344-1.268-.556-2-.556-1.667 0-3.235-.649-4.414-1.828l-1.586-1.586-.707.707c-1.746 1.746-4.067 2.707-6.536 2.707h-2.757c-.732 0-1.409.212-2 .556v-2.556c0-4.962 4.038-9 9-9 2.818 0 5.509 1.346 7.2 3.6l.213.284.344.086c1.91.478 3.243 2.185 3.243 4.153zm-16 1.444h.757c2.667 0 5.192-.922 7.212-2.617l.203.203c1.073 1.073 2.392 1.804 3.828 2.161v1.637c0 4.081-2.341 7.771-6 9.518-3.659-1.747-6-5.437-6-9.518zm2.477 14.19 2.256 4.511-1.932 1.449-.652-5.866zm7.046 0 .328.094-.652 5.866-1.932-1.449zm12.477 8.844v6.966h-4v-10h-2v10h-20v-10h-2v10h-4v-6.966c0-3.109 2.088-5.876 5.077-6.73l5.121-1.463 1.001 9.01 4.801-3.601 4.801 3.601 1.001-9.01 5.122 1.463c2.988.854 5.076 3.621 5.076 6.73z"/><path d="m44 57h2v2h-2z"/><path d="m44 53h2v2h-2z"/><path d="m49 11h10v2h-10z"/><path d="m51 15h8v2h-8z"/><path d="m5 41h2v2h-2z"/><path d="m5 37h2v2h-2z"/></svg>