<svg xmlns="http://www.w3.org/2000/svg" width="16" height="21" viewBox="0 0 16 21">
    <g fill="none" fill-rule="evenodd">
        <g fill="#FFF" fill-rule="nonzero">
            <g>
                <path d="M11 1.417H9.465c-.191-.005-.356-.122-.403-.288C8.916.456 8.242-.023 7.473.001 6.7-.011 6.03.475 5.885 1.153c-.05.161-.217.27-.404.264H4v2.401h7v-2.4z" transform="translate(-14 -142) translate(14 142)"/>
                <path d="M16 19.736V3.993c.001-.622-.504-1.128-1.128-1.13-.029 0-.058.002-.086.004h-2.372v1.4c0 .22-.138.523-.36.523H3.918c-.22 0-.33-.302-.33-.522V2.867H1.213c-.623-.046-1.165.42-1.21 1.04C0 3.938 0 3.966 0 3.994v15.743c-.015.683.528 1.249 1.213 1.264H14.786c.685-.015 1.229-.58 1.214-1.263zM5.766 16.11l-2.152 2.006c-.069.082-.169.132-.276.138-.115-.005-.224-.054-.303-.138l-1.131-1.154c-.15-.167-.138-.424.027-.577.161-.157.419-.157.58 0l.827.88 1.876-1.759c.188-.13.446-.082.575.105.106.153.097.357-.023.5zm0-4.395l-2.152 2.005c-.069.082-.169.132-.276.138-.115-.005-.224-.054-.303-.138l-1.131-1.154c-.15-.167-.138-.424.027-.577.161-.157.419-.157.58 0l.827.88 1.876-1.759c.188-.13.446-.082.575.105.106.153.097.357-.023.5zm0-4.396L3.614 9.323c-.069.082-.169.132-.276.138-.115-.005-.224-.054-.303-.138L1.904 8.17c-.15-.167-.138-.424.027-.577.161-.157.419-.157.58 0l.827.88 1.876-1.759c.188-.13.446-.082.575.105.106.153.097.357-.023.5zm8.027 10.385H7.448c-.228 0-.414-.185-.414-.412 0-.228.186-.412.414-.412h6.345c.228 0 .414.184.414.412 0 .227-.186.412-.414.412zm0-4.396H7.448c-.228 0-.414-.184-.414-.412 0-.228.186-.412.414-.412h6.345c.228 0 .414.184.414.412 0 .228-.186.412-.414.412zm0-4.396H7.448c-.228 0-.414-.184-.414-.412 0-.228.186-.412.414-.412h6.345c.228 0 .414.184.414.412 0 .228-.186.412-.414.412z" transform="translate(-14 -142) translate(14 142)"/>
            </g>
        </g>
    </g>
</svg>
