<svg xmlns="http://www.w3.org/2000/svg" width="30" height="18" viewBox="0 0 30 18">
    <defs>
        <filter id="v3hzwt0r1a">
            <feColorMatrix in="SourceGraphic" values="0 0 0 0 0.847000 0 0 0 0 0.847000 0 0 0 0 0.847000 0 0 0 1.000000 0"/>
        </filter>
    </defs>
    <g fill="none" fill-rule="evenodd">
        <g filter="url(#v3hzwt0r1a)" transform="translate(-894 -775)">
            <g fill="#000" fill-rule="nonzero">
                <g>
                    <path d="M16.792 0L0 9.445 5.366 11.433 13.643 3.673 7.348 12.167 7.353 12.169 7.346 12.167 7.346 16.792 10.356 13.281 14.168 14.693z" transform="translate(894 775) translate(12.27)"/>
                </g>
                <g>
                    <path d="M6.458 7.75c1.784 0 3.23-1.735 3.23-3.875C9.688 1.735 9.213 0 6.457 0 3.704 0 3.23 1.735 3.23 3.875c0 2.14 1.446 3.875 3.23 3.875zM.664 13.63c-.001-.195-.002-.055 0 0zM12.288 13.62c.003-.034 0-.242 0 0z" transform="translate(894 775) translate(0 1.292)"/>
                    <path d="M12.264 13.178c-.057-3.704-.526-4.76-4.12-5.428 0 0-.506.664-1.686.664-1.179 0-1.685-.664-1.685-.664C1.218 8.41.72 9.45.655 13.058c-.006.295-.008.31-.01.276l.001.39S1.502 15.5 6.458 15.5c4.957 0 5.813-1.777 5.813-1.777v-.288c-.001.021-.003-.02-.007-.257z" transform="translate(894 775) translate(0 1.292)"/>
                </g>
            </g>
        </g>
    </g>
</svg>
